G75*
G70*
%OFA0B0*%
%FSLAX24Y24*%
%IPPOS*%
%LPD*%
%AMOC8*
5,1,8,0,0,1.08239X$1,22.5*
%
%ADD10C,0.0572*%
%ADD11C,0.0660*%
%ADD12C,0.0800*%
%ADD13R,0.1635X0.0355*%
%ADD14C,0.1320*%
%ADD15R,0.0375X0.0375*%
%ADD16OC8,0.0780*%
%ADD17C,0.0800*%
%ADD18R,0.1241X0.0454*%
%ADD19C,0.0436*%
%ADD20C,0.0397*%
%ADD21C,0.0476*%
D10*
X009700Y005900D03*
X009900Y005900D03*
X010100Y005900D03*
X010300Y005900D03*
X010500Y005900D03*
X010700Y005900D03*
X010900Y005900D03*
X017500Y005900D03*
X017700Y005900D03*
X017900Y005900D03*
X018100Y005900D03*
X018300Y005900D03*
X018500Y005900D03*
X018700Y005900D03*
X018600Y021400D03*
X018400Y021400D03*
X018200Y021400D03*
X018000Y021400D03*
X017800Y021400D03*
X017600Y021400D03*
X018800Y021400D03*
X010900Y021400D03*
X010700Y021400D03*
X010500Y021400D03*
X010300Y021400D03*
X010100Y021400D03*
X009900Y021400D03*
X009700Y021400D03*
D11*
X009390Y009910D02*
X008790Y009910D01*
X008790Y008810D02*
X009390Y008810D01*
D12*
X026720Y011272D03*
X031090Y011272D03*
X023190Y020410D03*
X022190Y020410D03*
X021190Y020410D03*
D13*
X010297Y015235D03*
X010297Y014841D03*
X010297Y014447D03*
X010297Y014054D03*
X010297Y013660D03*
X010297Y013266D03*
X010297Y012873D03*
X010297Y012479D03*
X010297Y012085D03*
D14*
X008256Y006756D03*
X008256Y020535D03*
X032665Y020535D03*
X032665Y006756D03*
D15*
X020035Y006200D03*
X019445Y006200D03*
X014895Y006200D03*
X014305Y006200D03*
X014315Y021120D03*
X014905Y021120D03*
X019425Y021130D03*
X020015Y021130D03*
D16*
X011490Y020110D03*
X010490Y020110D03*
X010490Y019110D03*
X011490Y019110D03*
X011490Y018110D03*
X010490Y018110D03*
D17*
X031370Y008710D02*
X032110Y008710D01*
X032120Y010910D02*
X032860Y010910D01*
D18*
X032331Y012600D03*
X032331Y013600D03*
X032331Y014600D03*
X032331Y015600D03*
X032331Y016600D03*
X032331Y017600D03*
X032331Y018600D03*
D19*
X031040Y018710D03*
X031040Y017710D03*
X031050Y016750D03*
X031040Y015710D03*
X031040Y014710D03*
X029200Y013050D03*
X028540Y012810D03*
X028500Y014250D03*
X031100Y012600D03*
X024940Y012210D03*
X024390Y013810D03*
X023290Y014810D03*
X022390Y017510D03*
X019990Y017360D03*
X020240Y018860D03*
X017890Y019010D03*
X017690Y019860D03*
X016750Y018000D03*
X015490Y017360D03*
X015240Y017860D03*
X013750Y018350D03*
X013740Y019860D03*
X013740Y021110D03*
X010990Y015860D03*
X011490Y015360D03*
X011490Y014610D03*
X011740Y013860D03*
X011490Y013110D03*
X011490Y012610D03*
X012490Y012110D03*
X010490Y011610D03*
X008490Y013110D03*
X014190Y013810D03*
X014990Y014610D03*
X014240Y015360D03*
X017040Y014360D03*
X022000Y012000D03*
X022600Y009750D03*
X024500Y007500D03*
X015990Y007610D03*
X013740Y006110D03*
X027290Y017910D03*
X028540Y018660D03*
X026050Y018550D03*
X023900Y019850D03*
X030990Y021110D03*
D20*
X016490Y020110D03*
D21*
X018000Y013800D03*
X018900Y012600D03*
M02*
