G75*
G70*
%OFA0B0*%
%FSLAX24Y24*%
%IPPOS*%
%LPD*%
%AMOC8*
5,1,8,0,0,1.08239X$1,22.5*
%
%ADD10C,0.0572*%
%ADD11C,0.0800*%
%ADD12R,0.1635X0.0355*%
%ADD13C,0.1320*%
%ADD14R,0.0375X0.0375*%
%ADD15OC8,0.0780*%
%ADD16C,0.1241*%
%ADD17R,0.1241X0.0454*%
%ADD18C,0.0436*%
%ADD19C,0.0397*%
%ADD20C,0.0476*%
D10*
X009700Y005900D03*
X009900Y005900D03*
X010100Y005900D03*
X010300Y005900D03*
X010500Y005900D03*
X010700Y005900D03*
X010900Y005900D03*
X017500Y005900D03*
X017700Y005900D03*
X017900Y005900D03*
X018100Y005900D03*
X018300Y005900D03*
X018500Y005900D03*
X018700Y005900D03*
X018600Y021400D03*
X018400Y021400D03*
X018200Y021400D03*
X018000Y021400D03*
X017800Y021400D03*
X017600Y021400D03*
X018800Y021400D03*
X010900Y021400D03*
X010700Y021400D03*
X010500Y021400D03*
X010300Y021400D03*
X010100Y021400D03*
X009900Y021400D03*
X009700Y021400D03*
D11*
X026720Y011272D03*
X031090Y011272D03*
X029040Y019960D03*
X028040Y019960D03*
X027040Y019960D03*
D12*
X010297Y015235D03*
X010297Y014841D03*
X010297Y014447D03*
X010297Y014054D03*
X010297Y013660D03*
X010297Y013266D03*
X010297Y012873D03*
X010297Y012479D03*
X010297Y012085D03*
D13*
X008256Y006756D03*
X008256Y020535D03*
X032665Y020535D03*
X032665Y006756D03*
D14*
X020035Y006200D03*
X019445Y006200D03*
X014895Y006200D03*
X014305Y006200D03*
X014315Y021120D03*
X014905Y021120D03*
X019425Y021130D03*
X020015Y021130D03*
D15*
X012040Y019960D03*
X011040Y019960D03*
X011040Y018960D03*
X012040Y018960D03*
X012040Y017960D03*
X011040Y017960D03*
D16*
X008500Y010100D03*
X009600Y008600D03*
X031740Y009010D03*
X032490Y010910D03*
D17*
X032331Y013600D03*
X032331Y014600D03*
X032331Y015600D03*
X032331Y016600D03*
X032331Y017600D03*
D18*
X031040Y017710D03*
X031000Y016800D03*
X031040Y015710D03*
X030940Y014810D03*
X028500Y014250D03*
X029200Y013050D03*
X028540Y012810D03*
X031100Y012600D03*
X024940Y012210D03*
X024390Y013810D03*
X023290Y014810D03*
X022390Y017510D03*
X019990Y017360D03*
X020240Y018860D03*
X017890Y019010D03*
X017690Y019860D03*
X016750Y018000D03*
X015490Y017360D03*
X015240Y017860D03*
X013750Y018350D03*
X013740Y019860D03*
X013740Y021110D03*
X011900Y015900D03*
X010990Y015860D03*
X011900Y014700D03*
X011840Y013960D03*
X011490Y013110D03*
X011490Y012610D03*
X012490Y012110D03*
X010490Y011610D03*
X008490Y013110D03*
X007500Y011000D03*
X014190Y013810D03*
X014990Y014610D03*
X014240Y015360D03*
X017040Y014360D03*
X021700Y011900D03*
X022600Y009750D03*
X024500Y007500D03*
X015990Y007610D03*
X013740Y006510D03*
X011500Y006500D03*
X027300Y018800D03*
X028450Y018750D03*
X031040Y018710D03*
X030990Y020610D03*
X025600Y020700D03*
X024800Y020200D03*
X022700Y020300D03*
X022200Y020600D03*
D19*
X016490Y020110D03*
D20*
X018000Y013800D03*
X018900Y012600D03*
M02*
