G75*
G70*
%OFA0B0*%
%FSLAX24Y24*%
%IPPOS*%
%LPD*%
%AMOC8*
5,1,8,0,0,1.08239X$1,22.5*
%
%ADD10C,0.0030*%
%ADD11C,0.0020*%
%ADD12C,0.0000*%
%ADD13C,0.0060*%
%ADD14C,0.0080*%
%ADD15R,0.0300X0.0340*%
%ADD16C,0.0010*%
%ADD17C,0.0050*%
D10*
X009186Y007705D02*
X009276Y007615D01*
X009366Y007705D01*
X009366Y007885D01*
X009463Y007885D02*
X009598Y007885D01*
X009643Y007840D01*
X009643Y007660D01*
X009598Y007615D01*
X009463Y007615D01*
X009463Y007885D01*
X009739Y007885D02*
X009739Y007615D01*
X009874Y007615D01*
X009919Y007660D01*
X009919Y007840D01*
X009874Y007885D01*
X009739Y007885D01*
X009186Y007885D02*
X009186Y007705D01*
X008729Y009115D02*
X008819Y009205D01*
X008819Y009385D01*
X008639Y009385D02*
X008639Y009205D01*
X008729Y009115D01*
X008543Y009115D02*
X008363Y009115D01*
X008543Y009295D01*
X008543Y009340D01*
X008498Y009385D01*
X008408Y009385D01*
X008363Y009340D01*
X008176Y009385D02*
X008176Y009115D01*
X008086Y009115D02*
X008266Y009115D01*
X008086Y009295D02*
X008176Y009385D01*
X011105Y017075D02*
X011195Y017075D01*
X011150Y017075D02*
X011150Y017345D01*
X011105Y017345D02*
X011195Y017345D01*
X011289Y017300D02*
X011289Y017120D01*
X011334Y017075D01*
X011424Y017075D01*
X011469Y017120D01*
X011565Y017120D02*
X011610Y017075D01*
X011701Y017075D01*
X011746Y017120D01*
X011746Y017165D01*
X011701Y017210D01*
X011610Y017210D01*
X011565Y017255D01*
X011565Y017300D01*
X011610Y017345D01*
X011701Y017345D01*
X011746Y017300D01*
X011842Y017345D02*
X011977Y017345D01*
X012022Y017300D01*
X012022Y017210D01*
X011977Y017165D01*
X011842Y017165D01*
X011842Y017075D02*
X011842Y017345D01*
X011469Y017300D02*
X011424Y017345D01*
X011334Y017345D01*
X011289Y017300D01*
X026905Y020570D02*
X026950Y020525D01*
X027130Y020525D01*
X027175Y020570D01*
X027175Y020660D01*
X027130Y020705D01*
X027040Y020705D01*
X027040Y020615D01*
X026950Y020705D02*
X026905Y020660D01*
X026905Y020570D01*
X026905Y020801D02*
X027175Y020981D01*
X026905Y020981D01*
X026905Y021077D02*
X026905Y021213D01*
X026950Y021258D01*
X027130Y021258D01*
X027175Y021213D01*
X027175Y021077D01*
X026905Y021077D01*
X026905Y020801D02*
X027175Y020801D01*
X027905Y020751D02*
X028175Y020931D01*
X028130Y021027D02*
X028175Y021073D01*
X028175Y021163D01*
X028130Y021208D01*
X027950Y021208D01*
X027905Y021163D01*
X027905Y021073D01*
X027950Y021027D01*
X028130Y021027D01*
X027905Y020931D02*
X028175Y020751D01*
X028175Y020565D02*
X027905Y020565D01*
X027905Y020475D02*
X027905Y020655D01*
X028905Y020660D02*
X028950Y020705D01*
X029040Y020705D01*
X029085Y020660D01*
X029085Y020525D01*
X029175Y020525D02*
X028905Y020525D01*
X028905Y020660D01*
X028905Y020801D02*
X029175Y020981D01*
X029175Y021077D02*
X029175Y021168D01*
X029175Y021123D02*
X028905Y021123D01*
X028905Y021168D02*
X028905Y021077D01*
X028905Y020981D02*
X029175Y020801D01*
X029175Y020705D02*
X029085Y020615D01*
X032265Y010215D02*
X032265Y009945D01*
X032175Y009945D02*
X032355Y009945D01*
X032451Y009945D02*
X032631Y010125D01*
X032631Y010170D01*
X032586Y010215D01*
X032496Y010215D01*
X032451Y010170D01*
X032265Y010215D02*
X032175Y010125D01*
X032451Y009945D02*
X032631Y009945D01*
X032727Y010035D02*
X032818Y009945D01*
X032908Y010035D01*
X032908Y010215D01*
X032727Y010215D02*
X032727Y010035D01*
X032541Y008115D02*
X032406Y008115D01*
X032406Y007845D01*
X032541Y007845D01*
X032586Y007890D01*
X032586Y008070D01*
X032541Y008115D01*
X032310Y008115D02*
X032310Y007845D01*
X032130Y008115D01*
X032130Y007845D01*
X032034Y007890D02*
X032034Y008115D01*
X031854Y008115D02*
X031854Y007890D01*
X031899Y007845D01*
X031989Y007845D01*
X032034Y007890D01*
X031758Y007890D02*
X031758Y008070D01*
X031713Y008115D01*
X031623Y008115D01*
X031577Y008070D01*
X031577Y007890D01*
X031623Y007845D01*
X031713Y007845D01*
X031758Y007890D01*
X031481Y007845D02*
X031391Y007935D01*
X031436Y007935D02*
X031301Y007935D01*
X031301Y007845D02*
X031301Y008115D01*
X031436Y008115D01*
X031481Y008070D01*
X031481Y007980D01*
X031436Y007935D01*
X031205Y007890D02*
X031205Y007980D01*
X031115Y007980D01*
X031025Y008070D02*
X031025Y007890D01*
X031070Y007845D01*
X031160Y007845D01*
X031205Y007890D01*
X031205Y008070D02*
X031160Y008115D01*
X031070Y008115D01*
X031025Y008070D01*
D11*
X029273Y011172D02*
X029226Y011172D01*
X029203Y011195D01*
X029203Y011242D01*
X029226Y011265D01*
X029273Y011265D01*
X029296Y011242D01*
X029296Y011219D01*
X029203Y011219D01*
X029149Y011195D02*
X029125Y011219D01*
X029079Y011219D01*
X029055Y011242D01*
X029079Y011265D01*
X029149Y011265D01*
X029149Y011195D02*
X029125Y011172D01*
X029055Y011172D01*
X029001Y011172D02*
X029001Y011265D01*
X028908Y011265D02*
X028908Y011195D01*
X028931Y011172D01*
X029001Y011172D01*
X028854Y011312D02*
X028761Y011312D01*
X028761Y011172D01*
X028761Y011242D02*
X028807Y011242D01*
X031658Y012217D02*
X031695Y012180D01*
X031768Y012180D01*
X031805Y012217D01*
X031805Y012363D01*
X031768Y012400D01*
X031695Y012400D01*
X031658Y012363D01*
X031658Y012217D01*
X031731Y012253D02*
X031805Y012180D01*
X031879Y012217D02*
X031916Y012180D01*
X031989Y012180D01*
X032026Y012217D01*
X032026Y012253D01*
X031989Y012290D01*
X031952Y012290D01*
X031989Y012290D02*
X032026Y012327D01*
X032026Y012363D01*
X031989Y012400D01*
X031916Y012400D01*
X031879Y012363D01*
X023730Y009588D02*
X023730Y009441D01*
X023730Y009514D02*
X023510Y009514D01*
X023583Y009441D01*
X023547Y009367D02*
X023510Y009330D01*
X023510Y009220D01*
X023730Y009220D01*
X023730Y009330D01*
X023693Y009367D01*
X023547Y009367D01*
X014330Y012757D02*
X014293Y012720D01*
X014147Y012720D01*
X014110Y012757D01*
X014110Y012830D01*
X014147Y012867D01*
X014293Y012867D01*
X014330Y012830D01*
X014330Y012757D01*
X014257Y012793D02*
X014330Y012867D01*
X014220Y012941D02*
X014220Y013088D01*
X014330Y013051D02*
X014110Y013051D01*
X014220Y012941D01*
X012843Y017670D02*
X012880Y017707D01*
X012880Y017780D01*
X012843Y017817D01*
X012770Y017817D01*
X012770Y017743D01*
X012697Y017670D02*
X012843Y017670D01*
X012697Y017670D02*
X012660Y017707D01*
X012660Y017780D01*
X012697Y017817D01*
X012660Y017891D02*
X012880Y018038D01*
X012660Y018038D01*
X012660Y018112D02*
X012660Y018222D01*
X012697Y018259D01*
X012843Y018259D01*
X012880Y018222D01*
X012880Y018112D01*
X012660Y018112D01*
X012660Y017891D02*
X012880Y017891D01*
X012880Y018570D02*
X012660Y018570D01*
X012733Y018643D01*
X012660Y018717D01*
X012880Y018717D01*
X012843Y018791D02*
X012880Y018828D01*
X012880Y018901D01*
X012843Y018938D01*
X012697Y018938D01*
X012660Y018901D01*
X012660Y018828D01*
X012697Y018791D01*
X012843Y018791D01*
X012843Y019012D02*
X012880Y019049D01*
X012880Y019122D01*
X012843Y019159D01*
X012807Y019159D01*
X012770Y019122D01*
X012770Y019049D01*
X012733Y019012D01*
X012697Y019012D01*
X012660Y019049D01*
X012660Y019122D01*
X012697Y019159D01*
X012660Y019233D02*
X012660Y019306D01*
X012660Y019270D02*
X012880Y019270D01*
X012880Y019306D02*
X012880Y019233D01*
X012797Y019637D02*
X012870Y019710D01*
X012797Y019784D01*
X012650Y019784D01*
X012687Y019858D02*
X012833Y019858D01*
X012870Y019895D01*
X012870Y019968D01*
X012833Y020005D01*
X012833Y020079D02*
X012870Y020116D01*
X012870Y020189D01*
X012833Y020226D01*
X012687Y020226D02*
X012650Y020189D01*
X012650Y020116D01*
X012687Y020079D01*
X012833Y020079D01*
X012687Y020005D02*
X012650Y019968D01*
X012650Y019895D01*
X012687Y019858D01*
X012650Y019637D02*
X012797Y019637D01*
X010430Y019259D02*
X010320Y019149D01*
X010357Y019112D02*
X010210Y019259D01*
X010210Y019112D02*
X010430Y019112D01*
X010393Y019038D02*
X010430Y019001D01*
X010430Y018928D01*
X010393Y018891D01*
X010247Y018891D01*
X010210Y018928D01*
X010210Y019001D01*
X010247Y019038D01*
X010247Y018817D02*
X010210Y018780D01*
X010210Y018707D01*
X010247Y018670D01*
X010283Y018670D01*
X010320Y018707D01*
X010320Y018780D01*
X010357Y018817D01*
X010393Y018817D01*
X010430Y018780D01*
X010430Y018707D01*
X010393Y018670D01*
X010210Y018309D02*
X010210Y018162D01*
X010210Y018235D02*
X010430Y018235D01*
X010393Y018088D02*
X010430Y018051D01*
X010430Y017978D01*
X010393Y017941D01*
X010320Y017978D02*
X010320Y018051D01*
X010357Y018088D01*
X010393Y018088D01*
X010320Y017978D02*
X010283Y017941D01*
X010247Y017941D01*
X010210Y017978D01*
X010210Y018051D01*
X010247Y018088D01*
X010247Y017867D02*
X010320Y017867D01*
X010357Y017830D01*
X010357Y017720D01*
X010430Y017720D02*
X010210Y017720D01*
X010210Y017830D01*
X010247Y017867D01*
X010357Y017793D02*
X010430Y017867D01*
X010280Y019600D02*
X010060Y019600D01*
X010133Y019673D01*
X010060Y019747D01*
X010280Y019747D01*
X010280Y019821D02*
X010280Y019894D01*
X010280Y019858D02*
X010060Y019858D01*
X010060Y019894D02*
X010060Y019821D01*
X010097Y019968D02*
X010133Y019968D01*
X010170Y020005D01*
X010170Y020078D01*
X010207Y020115D01*
X010243Y020115D01*
X010280Y020078D01*
X010280Y020005D01*
X010243Y019968D01*
X010097Y019968D02*
X010060Y020005D01*
X010060Y020078D01*
X010097Y020115D01*
X010097Y020189D02*
X010243Y020189D01*
X010280Y020226D01*
X010280Y020299D01*
X010243Y020336D01*
X010097Y020336D01*
X010060Y020299D01*
X010060Y020226D01*
X010097Y020189D01*
D12*
X008256Y005181D02*
X032665Y005181D01*
X032035Y006756D02*
X032037Y006806D01*
X032043Y006856D01*
X032053Y006905D01*
X032067Y006953D01*
X032084Y007000D01*
X032105Y007045D01*
X032130Y007089D01*
X032158Y007130D01*
X032190Y007169D01*
X032224Y007206D01*
X032261Y007240D01*
X032301Y007270D01*
X032343Y007297D01*
X032387Y007321D01*
X032433Y007342D01*
X032480Y007358D01*
X032528Y007371D01*
X032578Y007380D01*
X032627Y007385D01*
X032678Y007386D01*
X032728Y007383D01*
X032777Y007376D01*
X032826Y007365D01*
X032874Y007350D01*
X032920Y007332D01*
X032965Y007310D01*
X033008Y007284D01*
X033049Y007255D01*
X033088Y007223D01*
X033124Y007188D01*
X033156Y007150D01*
X033186Y007110D01*
X033213Y007067D01*
X033236Y007023D01*
X033255Y006977D01*
X033271Y006929D01*
X033283Y006880D01*
X033291Y006831D01*
X033295Y006781D01*
X033295Y006731D01*
X033291Y006681D01*
X033283Y006632D01*
X033271Y006583D01*
X033255Y006535D01*
X033236Y006489D01*
X033213Y006445D01*
X033186Y006402D01*
X033156Y006362D01*
X033124Y006324D01*
X033088Y006289D01*
X033049Y006257D01*
X033008Y006228D01*
X032965Y006202D01*
X032920Y006180D01*
X032874Y006162D01*
X032826Y006147D01*
X032777Y006136D01*
X032728Y006129D01*
X032678Y006126D01*
X032627Y006127D01*
X032578Y006132D01*
X032528Y006141D01*
X032480Y006154D01*
X032433Y006170D01*
X032387Y006191D01*
X032343Y006215D01*
X032301Y006242D01*
X032261Y006272D01*
X032224Y006306D01*
X032190Y006343D01*
X032158Y006382D01*
X032130Y006423D01*
X032105Y006467D01*
X032084Y006512D01*
X032067Y006559D01*
X032053Y006607D01*
X032043Y006656D01*
X032037Y006706D01*
X032035Y006756D01*
X032665Y005181D02*
X032742Y005183D01*
X032819Y005189D01*
X032896Y005198D01*
X032972Y005211D01*
X033048Y005228D01*
X033122Y005249D01*
X033196Y005273D01*
X033268Y005301D01*
X033338Y005332D01*
X033407Y005367D01*
X033475Y005405D01*
X033540Y005446D01*
X033603Y005491D01*
X033664Y005539D01*
X033723Y005589D01*
X033779Y005642D01*
X033832Y005698D01*
X033882Y005757D01*
X033930Y005818D01*
X033975Y005881D01*
X034016Y005946D01*
X034054Y006014D01*
X034089Y006083D01*
X034120Y006153D01*
X034148Y006225D01*
X034172Y006299D01*
X034193Y006373D01*
X034210Y006449D01*
X034223Y006525D01*
X034232Y006602D01*
X034238Y006679D01*
X034240Y006756D01*
X034240Y020535D01*
X032035Y020535D02*
X032037Y020585D01*
X032043Y020635D01*
X032053Y020684D01*
X032067Y020732D01*
X032084Y020779D01*
X032105Y020824D01*
X032130Y020868D01*
X032158Y020909D01*
X032190Y020948D01*
X032224Y020985D01*
X032261Y021019D01*
X032301Y021049D01*
X032343Y021076D01*
X032387Y021100D01*
X032433Y021121D01*
X032480Y021137D01*
X032528Y021150D01*
X032578Y021159D01*
X032627Y021164D01*
X032678Y021165D01*
X032728Y021162D01*
X032777Y021155D01*
X032826Y021144D01*
X032874Y021129D01*
X032920Y021111D01*
X032965Y021089D01*
X033008Y021063D01*
X033049Y021034D01*
X033088Y021002D01*
X033124Y020967D01*
X033156Y020929D01*
X033186Y020889D01*
X033213Y020846D01*
X033236Y020802D01*
X033255Y020756D01*
X033271Y020708D01*
X033283Y020659D01*
X033291Y020610D01*
X033295Y020560D01*
X033295Y020510D01*
X033291Y020460D01*
X033283Y020411D01*
X033271Y020362D01*
X033255Y020314D01*
X033236Y020268D01*
X033213Y020224D01*
X033186Y020181D01*
X033156Y020141D01*
X033124Y020103D01*
X033088Y020068D01*
X033049Y020036D01*
X033008Y020007D01*
X032965Y019981D01*
X032920Y019959D01*
X032874Y019941D01*
X032826Y019926D01*
X032777Y019915D01*
X032728Y019908D01*
X032678Y019905D01*
X032627Y019906D01*
X032578Y019911D01*
X032528Y019920D01*
X032480Y019933D01*
X032433Y019949D01*
X032387Y019970D01*
X032343Y019994D01*
X032301Y020021D01*
X032261Y020051D01*
X032224Y020085D01*
X032190Y020122D01*
X032158Y020161D01*
X032130Y020202D01*
X032105Y020246D01*
X032084Y020291D01*
X032067Y020338D01*
X032053Y020386D01*
X032043Y020435D01*
X032037Y020485D01*
X032035Y020535D01*
X032665Y022110D02*
X032742Y022108D01*
X032819Y022102D01*
X032896Y022093D01*
X032972Y022080D01*
X033048Y022063D01*
X033122Y022042D01*
X033196Y022018D01*
X033268Y021990D01*
X033338Y021959D01*
X033407Y021924D01*
X033475Y021886D01*
X033540Y021845D01*
X033603Y021800D01*
X033664Y021752D01*
X033723Y021702D01*
X033779Y021649D01*
X033832Y021593D01*
X033882Y021534D01*
X033930Y021473D01*
X033975Y021410D01*
X034016Y021345D01*
X034054Y021277D01*
X034089Y021208D01*
X034120Y021138D01*
X034148Y021066D01*
X034172Y020992D01*
X034193Y020918D01*
X034210Y020842D01*
X034223Y020766D01*
X034232Y020689D01*
X034238Y020612D01*
X034240Y020535D01*
X032665Y022110D02*
X008256Y022110D01*
X009444Y021400D02*
X009446Y021431D01*
X009452Y021462D01*
X009461Y021492D01*
X009474Y021521D01*
X009491Y021548D01*
X009511Y021572D01*
X009533Y021594D01*
X009559Y021613D01*
X009586Y021629D01*
X009615Y021641D01*
X009645Y021650D01*
X009676Y021655D01*
X009708Y021656D01*
X009739Y021653D01*
X009770Y021646D01*
X009800Y021636D01*
X009828Y021622D01*
X009854Y021604D01*
X009878Y021584D01*
X009899Y021560D01*
X009918Y021535D01*
X009933Y021507D01*
X009944Y021478D01*
X009952Y021447D01*
X009956Y021416D01*
X009956Y021384D01*
X009952Y021353D01*
X009944Y021322D01*
X009933Y021293D01*
X009918Y021265D01*
X009899Y021240D01*
X009878Y021216D01*
X009854Y021196D01*
X009828Y021178D01*
X009800Y021164D01*
X009770Y021154D01*
X009739Y021147D01*
X009708Y021144D01*
X009676Y021145D01*
X009645Y021150D01*
X009615Y021159D01*
X009586Y021171D01*
X009559Y021187D01*
X009533Y021206D01*
X009511Y021228D01*
X009491Y021252D01*
X009474Y021279D01*
X009461Y021308D01*
X009452Y021338D01*
X009446Y021369D01*
X009444Y021400D01*
X009644Y021400D02*
X009646Y021431D01*
X009652Y021462D01*
X009661Y021492D01*
X009674Y021521D01*
X009691Y021548D01*
X009711Y021572D01*
X009733Y021594D01*
X009759Y021613D01*
X009786Y021629D01*
X009815Y021641D01*
X009845Y021650D01*
X009876Y021655D01*
X009908Y021656D01*
X009939Y021653D01*
X009970Y021646D01*
X010000Y021636D01*
X010028Y021622D01*
X010054Y021604D01*
X010078Y021584D01*
X010099Y021560D01*
X010118Y021535D01*
X010133Y021507D01*
X010144Y021478D01*
X010152Y021447D01*
X010156Y021416D01*
X010156Y021384D01*
X010152Y021353D01*
X010144Y021322D01*
X010133Y021293D01*
X010118Y021265D01*
X010099Y021240D01*
X010078Y021216D01*
X010054Y021196D01*
X010028Y021178D01*
X010000Y021164D01*
X009970Y021154D01*
X009939Y021147D01*
X009908Y021144D01*
X009876Y021145D01*
X009845Y021150D01*
X009815Y021159D01*
X009786Y021171D01*
X009759Y021187D01*
X009733Y021206D01*
X009711Y021228D01*
X009691Y021252D01*
X009674Y021279D01*
X009661Y021308D01*
X009652Y021338D01*
X009646Y021369D01*
X009644Y021400D01*
X009844Y021400D02*
X009846Y021431D01*
X009852Y021462D01*
X009861Y021492D01*
X009874Y021521D01*
X009891Y021548D01*
X009911Y021572D01*
X009933Y021594D01*
X009959Y021613D01*
X009986Y021629D01*
X010015Y021641D01*
X010045Y021650D01*
X010076Y021655D01*
X010108Y021656D01*
X010139Y021653D01*
X010170Y021646D01*
X010200Y021636D01*
X010228Y021622D01*
X010254Y021604D01*
X010278Y021584D01*
X010299Y021560D01*
X010318Y021535D01*
X010333Y021507D01*
X010344Y021478D01*
X010352Y021447D01*
X010356Y021416D01*
X010356Y021384D01*
X010352Y021353D01*
X010344Y021322D01*
X010333Y021293D01*
X010318Y021265D01*
X010299Y021240D01*
X010278Y021216D01*
X010254Y021196D01*
X010228Y021178D01*
X010200Y021164D01*
X010170Y021154D01*
X010139Y021147D01*
X010108Y021144D01*
X010076Y021145D01*
X010045Y021150D01*
X010015Y021159D01*
X009986Y021171D01*
X009959Y021187D01*
X009933Y021206D01*
X009911Y021228D01*
X009891Y021252D01*
X009874Y021279D01*
X009861Y021308D01*
X009852Y021338D01*
X009846Y021369D01*
X009844Y021400D01*
X010044Y021400D02*
X010046Y021431D01*
X010052Y021462D01*
X010061Y021492D01*
X010074Y021521D01*
X010091Y021548D01*
X010111Y021572D01*
X010133Y021594D01*
X010159Y021613D01*
X010186Y021629D01*
X010215Y021641D01*
X010245Y021650D01*
X010276Y021655D01*
X010308Y021656D01*
X010339Y021653D01*
X010370Y021646D01*
X010400Y021636D01*
X010428Y021622D01*
X010454Y021604D01*
X010478Y021584D01*
X010499Y021560D01*
X010518Y021535D01*
X010533Y021507D01*
X010544Y021478D01*
X010552Y021447D01*
X010556Y021416D01*
X010556Y021384D01*
X010552Y021353D01*
X010544Y021322D01*
X010533Y021293D01*
X010518Y021265D01*
X010499Y021240D01*
X010478Y021216D01*
X010454Y021196D01*
X010428Y021178D01*
X010400Y021164D01*
X010370Y021154D01*
X010339Y021147D01*
X010308Y021144D01*
X010276Y021145D01*
X010245Y021150D01*
X010215Y021159D01*
X010186Y021171D01*
X010159Y021187D01*
X010133Y021206D01*
X010111Y021228D01*
X010091Y021252D01*
X010074Y021279D01*
X010061Y021308D01*
X010052Y021338D01*
X010046Y021369D01*
X010044Y021400D01*
X010244Y021400D02*
X010246Y021431D01*
X010252Y021462D01*
X010261Y021492D01*
X010274Y021521D01*
X010291Y021548D01*
X010311Y021572D01*
X010333Y021594D01*
X010359Y021613D01*
X010386Y021629D01*
X010415Y021641D01*
X010445Y021650D01*
X010476Y021655D01*
X010508Y021656D01*
X010539Y021653D01*
X010570Y021646D01*
X010600Y021636D01*
X010628Y021622D01*
X010654Y021604D01*
X010678Y021584D01*
X010699Y021560D01*
X010718Y021535D01*
X010733Y021507D01*
X010744Y021478D01*
X010752Y021447D01*
X010756Y021416D01*
X010756Y021384D01*
X010752Y021353D01*
X010744Y021322D01*
X010733Y021293D01*
X010718Y021265D01*
X010699Y021240D01*
X010678Y021216D01*
X010654Y021196D01*
X010628Y021178D01*
X010600Y021164D01*
X010570Y021154D01*
X010539Y021147D01*
X010508Y021144D01*
X010476Y021145D01*
X010445Y021150D01*
X010415Y021159D01*
X010386Y021171D01*
X010359Y021187D01*
X010333Y021206D01*
X010311Y021228D01*
X010291Y021252D01*
X010274Y021279D01*
X010261Y021308D01*
X010252Y021338D01*
X010246Y021369D01*
X010244Y021400D01*
X010444Y021400D02*
X010446Y021431D01*
X010452Y021462D01*
X010461Y021492D01*
X010474Y021521D01*
X010491Y021548D01*
X010511Y021572D01*
X010533Y021594D01*
X010559Y021613D01*
X010586Y021629D01*
X010615Y021641D01*
X010645Y021650D01*
X010676Y021655D01*
X010708Y021656D01*
X010739Y021653D01*
X010770Y021646D01*
X010800Y021636D01*
X010828Y021622D01*
X010854Y021604D01*
X010878Y021584D01*
X010899Y021560D01*
X010918Y021535D01*
X010933Y021507D01*
X010944Y021478D01*
X010952Y021447D01*
X010956Y021416D01*
X010956Y021384D01*
X010952Y021353D01*
X010944Y021322D01*
X010933Y021293D01*
X010918Y021265D01*
X010899Y021240D01*
X010878Y021216D01*
X010854Y021196D01*
X010828Y021178D01*
X010800Y021164D01*
X010770Y021154D01*
X010739Y021147D01*
X010708Y021144D01*
X010676Y021145D01*
X010645Y021150D01*
X010615Y021159D01*
X010586Y021171D01*
X010559Y021187D01*
X010533Y021206D01*
X010511Y021228D01*
X010491Y021252D01*
X010474Y021279D01*
X010461Y021308D01*
X010452Y021338D01*
X010446Y021369D01*
X010444Y021400D01*
X010644Y021400D02*
X010646Y021431D01*
X010652Y021462D01*
X010661Y021492D01*
X010674Y021521D01*
X010691Y021548D01*
X010711Y021572D01*
X010733Y021594D01*
X010759Y021613D01*
X010786Y021629D01*
X010815Y021641D01*
X010845Y021650D01*
X010876Y021655D01*
X010908Y021656D01*
X010939Y021653D01*
X010970Y021646D01*
X011000Y021636D01*
X011028Y021622D01*
X011054Y021604D01*
X011078Y021584D01*
X011099Y021560D01*
X011118Y021535D01*
X011133Y021507D01*
X011144Y021478D01*
X011152Y021447D01*
X011156Y021416D01*
X011156Y021384D01*
X011152Y021353D01*
X011144Y021322D01*
X011133Y021293D01*
X011118Y021265D01*
X011099Y021240D01*
X011078Y021216D01*
X011054Y021196D01*
X011028Y021178D01*
X011000Y021164D01*
X010970Y021154D01*
X010939Y021147D01*
X010908Y021144D01*
X010876Y021145D01*
X010845Y021150D01*
X010815Y021159D01*
X010786Y021171D01*
X010759Y021187D01*
X010733Y021206D01*
X010711Y021228D01*
X010691Y021252D01*
X010674Y021279D01*
X010661Y021308D01*
X010652Y021338D01*
X010646Y021369D01*
X010644Y021400D01*
X007626Y020535D02*
X007628Y020585D01*
X007634Y020635D01*
X007644Y020684D01*
X007658Y020732D01*
X007675Y020779D01*
X007696Y020824D01*
X007721Y020868D01*
X007749Y020909D01*
X007781Y020948D01*
X007815Y020985D01*
X007852Y021019D01*
X007892Y021049D01*
X007934Y021076D01*
X007978Y021100D01*
X008024Y021121D01*
X008071Y021137D01*
X008119Y021150D01*
X008169Y021159D01*
X008218Y021164D01*
X008269Y021165D01*
X008319Y021162D01*
X008368Y021155D01*
X008417Y021144D01*
X008465Y021129D01*
X008511Y021111D01*
X008556Y021089D01*
X008599Y021063D01*
X008640Y021034D01*
X008679Y021002D01*
X008715Y020967D01*
X008747Y020929D01*
X008777Y020889D01*
X008804Y020846D01*
X008827Y020802D01*
X008846Y020756D01*
X008862Y020708D01*
X008874Y020659D01*
X008882Y020610D01*
X008886Y020560D01*
X008886Y020510D01*
X008882Y020460D01*
X008874Y020411D01*
X008862Y020362D01*
X008846Y020314D01*
X008827Y020268D01*
X008804Y020224D01*
X008777Y020181D01*
X008747Y020141D01*
X008715Y020103D01*
X008679Y020068D01*
X008640Y020036D01*
X008599Y020007D01*
X008556Y019981D01*
X008511Y019959D01*
X008465Y019941D01*
X008417Y019926D01*
X008368Y019915D01*
X008319Y019908D01*
X008269Y019905D01*
X008218Y019906D01*
X008169Y019911D01*
X008119Y019920D01*
X008071Y019933D01*
X008024Y019949D01*
X007978Y019970D01*
X007934Y019994D01*
X007892Y020021D01*
X007852Y020051D01*
X007815Y020085D01*
X007781Y020122D01*
X007749Y020161D01*
X007721Y020202D01*
X007696Y020246D01*
X007675Y020291D01*
X007658Y020338D01*
X007644Y020386D01*
X007634Y020435D01*
X007628Y020485D01*
X007626Y020535D01*
X006681Y020535D02*
X006683Y020612D01*
X006689Y020689D01*
X006698Y020766D01*
X006711Y020842D01*
X006728Y020918D01*
X006749Y020992D01*
X006773Y021066D01*
X006801Y021138D01*
X006832Y021208D01*
X006867Y021277D01*
X006905Y021345D01*
X006946Y021410D01*
X006991Y021473D01*
X007039Y021534D01*
X007089Y021593D01*
X007142Y021649D01*
X007198Y021702D01*
X007257Y021752D01*
X007318Y021800D01*
X007381Y021845D01*
X007446Y021886D01*
X007514Y021924D01*
X007583Y021959D01*
X007653Y021990D01*
X007725Y022018D01*
X007799Y022042D01*
X007873Y022063D01*
X007949Y022080D01*
X008025Y022093D01*
X008102Y022102D01*
X008179Y022108D01*
X008256Y022110D01*
X006681Y020535D02*
X006681Y006756D01*
X007626Y006756D02*
X007628Y006806D01*
X007634Y006856D01*
X007644Y006905D01*
X007658Y006953D01*
X007675Y007000D01*
X007696Y007045D01*
X007721Y007089D01*
X007749Y007130D01*
X007781Y007169D01*
X007815Y007206D01*
X007852Y007240D01*
X007892Y007270D01*
X007934Y007297D01*
X007978Y007321D01*
X008024Y007342D01*
X008071Y007358D01*
X008119Y007371D01*
X008169Y007380D01*
X008218Y007385D01*
X008269Y007386D01*
X008319Y007383D01*
X008368Y007376D01*
X008417Y007365D01*
X008465Y007350D01*
X008511Y007332D01*
X008556Y007310D01*
X008599Y007284D01*
X008640Y007255D01*
X008679Y007223D01*
X008715Y007188D01*
X008747Y007150D01*
X008777Y007110D01*
X008804Y007067D01*
X008827Y007023D01*
X008846Y006977D01*
X008862Y006929D01*
X008874Y006880D01*
X008882Y006831D01*
X008886Y006781D01*
X008886Y006731D01*
X008882Y006681D01*
X008874Y006632D01*
X008862Y006583D01*
X008846Y006535D01*
X008827Y006489D01*
X008804Y006445D01*
X008777Y006402D01*
X008747Y006362D01*
X008715Y006324D01*
X008679Y006289D01*
X008640Y006257D01*
X008599Y006228D01*
X008556Y006202D01*
X008511Y006180D01*
X008465Y006162D01*
X008417Y006147D01*
X008368Y006136D01*
X008319Y006129D01*
X008269Y006126D01*
X008218Y006127D01*
X008169Y006132D01*
X008119Y006141D01*
X008071Y006154D01*
X008024Y006170D01*
X007978Y006191D01*
X007934Y006215D01*
X007892Y006242D01*
X007852Y006272D01*
X007815Y006306D01*
X007781Y006343D01*
X007749Y006382D01*
X007721Y006423D01*
X007696Y006467D01*
X007675Y006512D01*
X007658Y006559D01*
X007644Y006607D01*
X007634Y006656D01*
X007628Y006706D01*
X007626Y006756D01*
X006681Y006756D02*
X006683Y006679D01*
X006689Y006602D01*
X006698Y006525D01*
X006711Y006449D01*
X006728Y006373D01*
X006749Y006299D01*
X006773Y006225D01*
X006801Y006153D01*
X006832Y006083D01*
X006867Y006014D01*
X006905Y005946D01*
X006946Y005881D01*
X006991Y005818D01*
X007039Y005757D01*
X007089Y005698D01*
X007142Y005642D01*
X007198Y005589D01*
X007257Y005539D01*
X007318Y005491D01*
X007381Y005446D01*
X007446Y005405D01*
X007514Y005367D01*
X007583Y005332D01*
X007653Y005301D01*
X007725Y005273D01*
X007799Y005249D01*
X007873Y005228D01*
X007949Y005211D01*
X008025Y005198D01*
X008102Y005189D01*
X008179Y005183D01*
X008256Y005181D01*
X009444Y005900D02*
X009446Y005931D01*
X009452Y005962D01*
X009461Y005992D01*
X009474Y006021D01*
X009491Y006048D01*
X009511Y006072D01*
X009533Y006094D01*
X009559Y006113D01*
X009586Y006129D01*
X009615Y006141D01*
X009645Y006150D01*
X009676Y006155D01*
X009708Y006156D01*
X009739Y006153D01*
X009770Y006146D01*
X009800Y006136D01*
X009828Y006122D01*
X009854Y006104D01*
X009878Y006084D01*
X009899Y006060D01*
X009918Y006035D01*
X009933Y006007D01*
X009944Y005978D01*
X009952Y005947D01*
X009956Y005916D01*
X009956Y005884D01*
X009952Y005853D01*
X009944Y005822D01*
X009933Y005793D01*
X009918Y005765D01*
X009899Y005740D01*
X009878Y005716D01*
X009854Y005696D01*
X009828Y005678D01*
X009800Y005664D01*
X009770Y005654D01*
X009739Y005647D01*
X009708Y005644D01*
X009676Y005645D01*
X009645Y005650D01*
X009615Y005659D01*
X009586Y005671D01*
X009559Y005687D01*
X009533Y005706D01*
X009511Y005728D01*
X009491Y005752D01*
X009474Y005779D01*
X009461Y005808D01*
X009452Y005838D01*
X009446Y005869D01*
X009444Y005900D01*
X009644Y005900D02*
X009646Y005931D01*
X009652Y005962D01*
X009661Y005992D01*
X009674Y006021D01*
X009691Y006048D01*
X009711Y006072D01*
X009733Y006094D01*
X009759Y006113D01*
X009786Y006129D01*
X009815Y006141D01*
X009845Y006150D01*
X009876Y006155D01*
X009908Y006156D01*
X009939Y006153D01*
X009970Y006146D01*
X010000Y006136D01*
X010028Y006122D01*
X010054Y006104D01*
X010078Y006084D01*
X010099Y006060D01*
X010118Y006035D01*
X010133Y006007D01*
X010144Y005978D01*
X010152Y005947D01*
X010156Y005916D01*
X010156Y005884D01*
X010152Y005853D01*
X010144Y005822D01*
X010133Y005793D01*
X010118Y005765D01*
X010099Y005740D01*
X010078Y005716D01*
X010054Y005696D01*
X010028Y005678D01*
X010000Y005664D01*
X009970Y005654D01*
X009939Y005647D01*
X009908Y005644D01*
X009876Y005645D01*
X009845Y005650D01*
X009815Y005659D01*
X009786Y005671D01*
X009759Y005687D01*
X009733Y005706D01*
X009711Y005728D01*
X009691Y005752D01*
X009674Y005779D01*
X009661Y005808D01*
X009652Y005838D01*
X009646Y005869D01*
X009644Y005900D01*
X009844Y005900D02*
X009846Y005931D01*
X009852Y005962D01*
X009861Y005992D01*
X009874Y006021D01*
X009891Y006048D01*
X009911Y006072D01*
X009933Y006094D01*
X009959Y006113D01*
X009986Y006129D01*
X010015Y006141D01*
X010045Y006150D01*
X010076Y006155D01*
X010108Y006156D01*
X010139Y006153D01*
X010170Y006146D01*
X010200Y006136D01*
X010228Y006122D01*
X010254Y006104D01*
X010278Y006084D01*
X010299Y006060D01*
X010318Y006035D01*
X010333Y006007D01*
X010344Y005978D01*
X010352Y005947D01*
X010356Y005916D01*
X010356Y005884D01*
X010352Y005853D01*
X010344Y005822D01*
X010333Y005793D01*
X010318Y005765D01*
X010299Y005740D01*
X010278Y005716D01*
X010254Y005696D01*
X010228Y005678D01*
X010200Y005664D01*
X010170Y005654D01*
X010139Y005647D01*
X010108Y005644D01*
X010076Y005645D01*
X010045Y005650D01*
X010015Y005659D01*
X009986Y005671D01*
X009959Y005687D01*
X009933Y005706D01*
X009911Y005728D01*
X009891Y005752D01*
X009874Y005779D01*
X009861Y005808D01*
X009852Y005838D01*
X009846Y005869D01*
X009844Y005900D01*
X010044Y005900D02*
X010046Y005931D01*
X010052Y005962D01*
X010061Y005992D01*
X010074Y006021D01*
X010091Y006048D01*
X010111Y006072D01*
X010133Y006094D01*
X010159Y006113D01*
X010186Y006129D01*
X010215Y006141D01*
X010245Y006150D01*
X010276Y006155D01*
X010308Y006156D01*
X010339Y006153D01*
X010370Y006146D01*
X010400Y006136D01*
X010428Y006122D01*
X010454Y006104D01*
X010478Y006084D01*
X010499Y006060D01*
X010518Y006035D01*
X010533Y006007D01*
X010544Y005978D01*
X010552Y005947D01*
X010556Y005916D01*
X010556Y005884D01*
X010552Y005853D01*
X010544Y005822D01*
X010533Y005793D01*
X010518Y005765D01*
X010499Y005740D01*
X010478Y005716D01*
X010454Y005696D01*
X010428Y005678D01*
X010400Y005664D01*
X010370Y005654D01*
X010339Y005647D01*
X010308Y005644D01*
X010276Y005645D01*
X010245Y005650D01*
X010215Y005659D01*
X010186Y005671D01*
X010159Y005687D01*
X010133Y005706D01*
X010111Y005728D01*
X010091Y005752D01*
X010074Y005779D01*
X010061Y005808D01*
X010052Y005838D01*
X010046Y005869D01*
X010044Y005900D01*
X010244Y005900D02*
X010246Y005931D01*
X010252Y005962D01*
X010261Y005992D01*
X010274Y006021D01*
X010291Y006048D01*
X010311Y006072D01*
X010333Y006094D01*
X010359Y006113D01*
X010386Y006129D01*
X010415Y006141D01*
X010445Y006150D01*
X010476Y006155D01*
X010508Y006156D01*
X010539Y006153D01*
X010570Y006146D01*
X010600Y006136D01*
X010628Y006122D01*
X010654Y006104D01*
X010678Y006084D01*
X010699Y006060D01*
X010718Y006035D01*
X010733Y006007D01*
X010744Y005978D01*
X010752Y005947D01*
X010756Y005916D01*
X010756Y005884D01*
X010752Y005853D01*
X010744Y005822D01*
X010733Y005793D01*
X010718Y005765D01*
X010699Y005740D01*
X010678Y005716D01*
X010654Y005696D01*
X010628Y005678D01*
X010600Y005664D01*
X010570Y005654D01*
X010539Y005647D01*
X010508Y005644D01*
X010476Y005645D01*
X010445Y005650D01*
X010415Y005659D01*
X010386Y005671D01*
X010359Y005687D01*
X010333Y005706D01*
X010311Y005728D01*
X010291Y005752D01*
X010274Y005779D01*
X010261Y005808D01*
X010252Y005838D01*
X010246Y005869D01*
X010244Y005900D01*
X010444Y005900D02*
X010446Y005931D01*
X010452Y005962D01*
X010461Y005992D01*
X010474Y006021D01*
X010491Y006048D01*
X010511Y006072D01*
X010533Y006094D01*
X010559Y006113D01*
X010586Y006129D01*
X010615Y006141D01*
X010645Y006150D01*
X010676Y006155D01*
X010708Y006156D01*
X010739Y006153D01*
X010770Y006146D01*
X010800Y006136D01*
X010828Y006122D01*
X010854Y006104D01*
X010878Y006084D01*
X010899Y006060D01*
X010918Y006035D01*
X010933Y006007D01*
X010944Y005978D01*
X010952Y005947D01*
X010956Y005916D01*
X010956Y005884D01*
X010952Y005853D01*
X010944Y005822D01*
X010933Y005793D01*
X010918Y005765D01*
X010899Y005740D01*
X010878Y005716D01*
X010854Y005696D01*
X010828Y005678D01*
X010800Y005664D01*
X010770Y005654D01*
X010739Y005647D01*
X010708Y005644D01*
X010676Y005645D01*
X010645Y005650D01*
X010615Y005659D01*
X010586Y005671D01*
X010559Y005687D01*
X010533Y005706D01*
X010511Y005728D01*
X010491Y005752D01*
X010474Y005779D01*
X010461Y005808D01*
X010452Y005838D01*
X010446Y005869D01*
X010444Y005900D01*
X010644Y005900D02*
X010646Y005931D01*
X010652Y005962D01*
X010661Y005992D01*
X010674Y006021D01*
X010691Y006048D01*
X010711Y006072D01*
X010733Y006094D01*
X010759Y006113D01*
X010786Y006129D01*
X010815Y006141D01*
X010845Y006150D01*
X010876Y006155D01*
X010908Y006156D01*
X010939Y006153D01*
X010970Y006146D01*
X011000Y006136D01*
X011028Y006122D01*
X011054Y006104D01*
X011078Y006084D01*
X011099Y006060D01*
X011118Y006035D01*
X011133Y006007D01*
X011144Y005978D01*
X011152Y005947D01*
X011156Y005916D01*
X011156Y005884D01*
X011152Y005853D01*
X011144Y005822D01*
X011133Y005793D01*
X011118Y005765D01*
X011099Y005740D01*
X011078Y005716D01*
X011054Y005696D01*
X011028Y005678D01*
X011000Y005664D01*
X010970Y005654D01*
X010939Y005647D01*
X010908Y005644D01*
X010876Y005645D01*
X010845Y005650D01*
X010815Y005659D01*
X010786Y005671D01*
X010759Y005687D01*
X010733Y005706D01*
X010711Y005728D01*
X010691Y005752D01*
X010674Y005779D01*
X010661Y005808D01*
X010652Y005838D01*
X010646Y005869D01*
X010644Y005900D01*
X017244Y005900D02*
X017246Y005931D01*
X017252Y005962D01*
X017261Y005992D01*
X017274Y006021D01*
X017291Y006048D01*
X017311Y006072D01*
X017333Y006094D01*
X017359Y006113D01*
X017386Y006129D01*
X017415Y006141D01*
X017445Y006150D01*
X017476Y006155D01*
X017508Y006156D01*
X017539Y006153D01*
X017570Y006146D01*
X017600Y006136D01*
X017628Y006122D01*
X017654Y006104D01*
X017678Y006084D01*
X017699Y006060D01*
X017718Y006035D01*
X017733Y006007D01*
X017744Y005978D01*
X017752Y005947D01*
X017756Y005916D01*
X017756Y005884D01*
X017752Y005853D01*
X017744Y005822D01*
X017733Y005793D01*
X017718Y005765D01*
X017699Y005740D01*
X017678Y005716D01*
X017654Y005696D01*
X017628Y005678D01*
X017600Y005664D01*
X017570Y005654D01*
X017539Y005647D01*
X017508Y005644D01*
X017476Y005645D01*
X017445Y005650D01*
X017415Y005659D01*
X017386Y005671D01*
X017359Y005687D01*
X017333Y005706D01*
X017311Y005728D01*
X017291Y005752D01*
X017274Y005779D01*
X017261Y005808D01*
X017252Y005838D01*
X017246Y005869D01*
X017244Y005900D01*
X017444Y005900D02*
X017446Y005931D01*
X017452Y005962D01*
X017461Y005992D01*
X017474Y006021D01*
X017491Y006048D01*
X017511Y006072D01*
X017533Y006094D01*
X017559Y006113D01*
X017586Y006129D01*
X017615Y006141D01*
X017645Y006150D01*
X017676Y006155D01*
X017708Y006156D01*
X017739Y006153D01*
X017770Y006146D01*
X017800Y006136D01*
X017828Y006122D01*
X017854Y006104D01*
X017878Y006084D01*
X017899Y006060D01*
X017918Y006035D01*
X017933Y006007D01*
X017944Y005978D01*
X017952Y005947D01*
X017956Y005916D01*
X017956Y005884D01*
X017952Y005853D01*
X017944Y005822D01*
X017933Y005793D01*
X017918Y005765D01*
X017899Y005740D01*
X017878Y005716D01*
X017854Y005696D01*
X017828Y005678D01*
X017800Y005664D01*
X017770Y005654D01*
X017739Y005647D01*
X017708Y005644D01*
X017676Y005645D01*
X017645Y005650D01*
X017615Y005659D01*
X017586Y005671D01*
X017559Y005687D01*
X017533Y005706D01*
X017511Y005728D01*
X017491Y005752D01*
X017474Y005779D01*
X017461Y005808D01*
X017452Y005838D01*
X017446Y005869D01*
X017444Y005900D01*
X017644Y005900D02*
X017646Y005931D01*
X017652Y005962D01*
X017661Y005992D01*
X017674Y006021D01*
X017691Y006048D01*
X017711Y006072D01*
X017733Y006094D01*
X017759Y006113D01*
X017786Y006129D01*
X017815Y006141D01*
X017845Y006150D01*
X017876Y006155D01*
X017908Y006156D01*
X017939Y006153D01*
X017970Y006146D01*
X018000Y006136D01*
X018028Y006122D01*
X018054Y006104D01*
X018078Y006084D01*
X018099Y006060D01*
X018118Y006035D01*
X018133Y006007D01*
X018144Y005978D01*
X018152Y005947D01*
X018156Y005916D01*
X018156Y005884D01*
X018152Y005853D01*
X018144Y005822D01*
X018133Y005793D01*
X018118Y005765D01*
X018099Y005740D01*
X018078Y005716D01*
X018054Y005696D01*
X018028Y005678D01*
X018000Y005664D01*
X017970Y005654D01*
X017939Y005647D01*
X017908Y005644D01*
X017876Y005645D01*
X017845Y005650D01*
X017815Y005659D01*
X017786Y005671D01*
X017759Y005687D01*
X017733Y005706D01*
X017711Y005728D01*
X017691Y005752D01*
X017674Y005779D01*
X017661Y005808D01*
X017652Y005838D01*
X017646Y005869D01*
X017644Y005900D01*
X017844Y005900D02*
X017846Y005931D01*
X017852Y005962D01*
X017861Y005992D01*
X017874Y006021D01*
X017891Y006048D01*
X017911Y006072D01*
X017933Y006094D01*
X017959Y006113D01*
X017986Y006129D01*
X018015Y006141D01*
X018045Y006150D01*
X018076Y006155D01*
X018108Y006156D01*
X018139Y006153D01*
X018170Y006146D01*
X018200Y006136D01*
X018228Y006122D01*
X018254Y006104D01*
X018278Y006084D01*
X018299Y006060D01*
X018318Y006035D01*
X018333Y006007D01*
X018344Y005978D01*
X018352Y005947D01*
X018356Y005916D01*
X018356Y005884D01*
X018352Y005853D01*
X018344Y005822D01*
X018333Y005793D01*
X018318Y005765D01*
X018299Y005740D01*
X018278Y005716D01*
X018254Y005696D01*
X018228Y005678D01*
X018200Y005664D01*
X018170Y005654D01*
X018139Y005647D01*
X018108Y005644D01*
X018076Y005645D01*
X018045Y005650D01*
X018015Y005659D01*
X017986Y005671D01*
X017959Y005687D01*
X017933Y005706D01*
X017911Y005728D01*
X017891Y005752D01*
X017874Y005779D01*
X017861Y005808D01*
X017852Y005838D01*
X017846Y005869D01*
X017844Y005900D01*
X018044Y005900D02*
X018046Y005931D01*
X018052Y005962D01*
X018061Y005992D01*
X018074Y006021D01*
X018091Y006048D01*
X018111Y006072D01*
X018133Y006094D01*
X018159Y006113D01*
X018186Y006129D01*
X018215Y006141D01*
X018245Y006150D01*
X018276Y006155D01*
X018308Y006156D01*
X018339Y006153D01*
X018370Y006146D01*
X018400Y006136D01*
X018428Y006122D01*
X018454Y006104D01*
X018478Y006084D01*
X018499Y006060D01*
X018518Y006035D01*
X018533Y006007D01*
X018544Y005978D01*
X018552Y005947D01*
X018556Y005916D01*
X018556Y005884D01*
X018552Y005853D01*
X018544Y005822D01*
X018533Y005793D01*
X018518Y005765D01*
X018499Y005740D01*
X018478Y005716D01*
X018454Y005696D01*
X018428Y005678D01*
X018400Y005664D01*
X018370Y005654D01*
X018339Y005647D01*
X018308Y005644D01*
X018276Y005645D01*
X018245Y005650D01*
X018215Y005659D01*
X018186Y005671D01*
X018159Y005687D01*
X018133Y005706D01*
X018111Y005728D01*
X018091Y005752D01*
X018074Y005779D01*
X018061Y005808D01*
X018052Y005838D01*
X018046Y005869D01*
X018044Y005900D01*
X018244Y005900D02*
X018246Y005931D01*
X018252Y005962D01*
X018261Y005992D01*
X018274Y006021D01*
X018291Y006048D01*
X018311Y006072D01*
X018333Y006094D01*
X018359Y006113D01*
X018386Y006129D01*
X018415Y006141D01*
X018445Y006150D01*
X018476Y006155D01*
X018508Y006156D01*
X018539Y006153D01*
X018570Y006146D01*
X018600Y006136D01*
X018628Y006122D01*
X018654Y006104D01*
X018678Y006084D01*
X018699Y006060D01*
X018718Y006035D01*
X018733Y006007D01*
X018744Y005978D01*
X018752Y005947D01*
X018756Y005916D01*
X018756Y005884D01*
X018752Y005853D01*
X018744Y005822D01*
X018733Y005793D01*
X018718Y005765D01*
X018699Y005740D01*
X018678Y005716D01*
X018654Y005696D01*
X018628Y005678D01*
X018600Y005664D01*
X018570Y005654D01*
X018539Y005647D01*
X018508Y005644D01*
X018476Y005645D01*
X018445Y005650D01*
X018415Y005659D01*
X018386Y005671D01*
X018359Y005687D01*
X018333Y005706D01*
X018311Y005728D01*
X018291Y005752D01*
X018274Y005779D01*
X018261Y005808D01*
X018252Y005838D01*
X018246Y005869D01*
X018244Y005900D01*
X018444Y005900D02*
X018446Y005931D01*
X018452Y005962D01*
X018461Y005992D01*
X018474Y006021D01*
X018491Y006048D01*
X018511Y006072D01*
X018533Y006094D01*
X018559Y006113D01*
X018586Y006129D01*
X018615Y006141D01*
X018645Y006150D01*
X018676Y006155D01*
X018708Y006156D01*
X018739Y006153D01*
X018770Y006146D01*
X018800Y006136D01*
X018828Y006122D01*
X018854Y006104D01*
X018878Y006084D01*
X018899Y006060D01*
X018918Y006035D01*
X018933Y006007D01*
X018944Y005978D01*
X018952Y005947D01*
X018956Y005916D01*
X018956Y005884D01*
X018952Y005853D01*
X018944Y005822D01*
X018933Y005793D01*
X018918Y005765D01*
X018899Y005740D01*
X018878Y005716D01*
X018854Y005696D01*
X018828Y005678D01*
X018800Y005664D01*
X018770Y005654D01*
X018739Y005647D01*
X018708Y005644D01*
X018676Y005645D01*
X018645Y005650D01*
X018615Y005659D01*
X018586Y005671D01*
X018559Y005687D01*
X018533Y005706D01*
X018511Y005728D01*
X018491Y005752D01*
X018474Y005779D01*
X018461Y005808D01*
X018452Y005838D01*
X018446Y005869D01*
X018444Y005900D01*
X018144Y021400D02*
X018146Y021431D01*
X018152Y021462D01*
X018161Y021492D01*
X018174Y021521D01*
X018191Y021548D01*
X018211Y021572D01*
X018233Y021594D01*
X018259Y021613D01*
X018286Y021629D01*
X018315Y021641D01*
X018345Y021650D01*
X018376Y021655D01*
X018408Y021656D01*
X018439Y021653D01*
X018470Y021646D01*
X018500Y021636D01*
X018528Y021622D01*
X018554Y021604D01*
X018578Y021584D01*
X018599Y021560D01*
X018618Y021535D01*
X018633Y021507D01*
X018644Y021478D01*
X018652Y021447D01*
X018656Y021416D01*
X018656Y021384D01*
X018652Y021353D01*
X018644Y021322D01*
X018633Y021293D01*
X018618Y021265D01*
X018599Y021240D01*
X018578Y021216D01*
X018554Y021196D01*
X018528Y021178D01*
X018500Y021164D01*
X018470Y021154D01*
X018439Y021147D01*
X018408Y021144D01*
X018376Y021145D01*
X018345Y021150D01*
X018315Y021159D01*
X018286Y021171D01*
X018259Y021187D01*
X018233Y021206D01*
X018211Y021228D01*
X018191Y021252D01*
X018174Y021279D01*
X018161Y021308D01*
X018152Y021338D01*
X018146Y021369D01*
X018144Y021400D01*
X017944Y021400D02*
X017946Y021431D01*
X017952Y021462D01*
X017961Y021492D01*
X017974Y021521D01*
X017991Y021548D01*
X018011Y021572D01*
X018033Y021594D01*
X018059Y021613D01*
X018086Y021629D01*
X018115Y021641D01*
X018145Y021650D01*
X018176Y021655D01*
X018208Y021656D01*
X018239Y021653D01*
X018270Y021646D01*
X018300Y021636D01*
X018328Y021622D01*
X018354Y021604D01*
X018378Y021584D01*
X018399Y021560D01*
X018418Y021535D01*
X018433Y021507D01*
X018444Y021478D01*
X018452Y021447D01*
X018456Y021416D01*
X018456Y021384D01*
X018452Y021353D01*
X018444Y021322D01*
X018433Y021293D01*
X018418Y021265D01*
X018399Y021240D01*
X018378Y021216D01*
X018354Y021196D01*
X018328Y021178D01*
X018300Y021164D01*
X018270Y021154D01*
X018239Y021147D01*
X018208Y021144D01*
X018176Y021145D01*
X018145Y021150D01*
X018115Y021159D01*
X018086Y021171D01*
X018059Y021187D01*
X018033Y021206D01*
X018011Y021228D01*
X017991Y021252D01*
X017974Y021279D01*
X017961Y021308D01*
X017952Y021338D01*
X017946Y021369D01*
X017944Y021400D01*
X017744Y021400D02*
X017746Y021431D01*
X017752Y021462D01*
X017761Y021492D01*
X017774Y021521D01*
X017791Y021548D01*
X017811Y021572D01*
X017833Y021594D01*
X017859Y021613D01*
X017886Y021629D01*
X017915Y021641D01*
X017945Y021650D01*
X017976Y021655D01*
X018008Y021656D01*
X018039Y021653D01*
X018070Y021646D01*
X018100Y021636D01*
X018128Y021622D01*
X018154Y021604D01*
X018178Y021584D01*
X018199Y021560D01*
X018218Y021535D01*
X018233Y021507D01*
X018244Y021478D01*
X018252Y021447D01*
X018256Y021416D01*
X018256Y021384D01*
X018252Y021353D01*
X018244Y021322D01*
X018233Y021293D01*
X018218Y021265D01*
X018199Y021240D01*
X018178Y021216D01*
X018154Y021196D01*
X018128Y021178D01*
X018100Y021164D01*
X018070Y021154D01*
X018039Y021147D01*
X018008Y021144D01*
X017976Y021145D01*
X017945Y021150D01*
X017915Y021159D01*
X017886Y021171D01*
X017859Y021187D01*
X017833Y021206D01*
X017811Y021228D01*
X017791Y021252D01*
X017774Y021279D01*
X017761Y021308D01*
X017752Y021338D01*
X017746Y021369D01*
X017744Y021400D01*
X017544Y021400D02*
X017546Y021431D01*
X017552Y021462D01*
X017561Y021492D01*
X017574Y021521D01*
X017591Y021548D01*
X017611Y021572D01*
X017633Y021594D01*
X017659Y021613D01*
X017686Y021629D01*
X017715Y021641D01*
X017745Y021650D01*
X017776Y021655D01*
X017808Y021656D01*
X017839Y021653D01*
X017870Y021646D01*
X017900Y021636D01*
X017928Y021622D01*
X017954Y021604D01*
X017978Y021584D01*
X017999Y021560D01*
X018018Y021535D01*
X018033Y021507D01*
X018044Y021478D01*
X018052Y021447D01*
X018056Y021416D01*
X018056Y021384D01*
X018052Y021353D01*
X018044Y021322D01*
X018033Y021293D01*
X018018Y021265D01*
X017999Y021240D01*
X017978Y021216D01*
X017954Y021196D01*
X017928Y021178D01*
X017900Y021164D01*
X017870Y021154D01*
X017839Y021147D01*
X017808Y021144D01*
X017776Y021145D01*
X017745Y021150D01*
X017715Y021159D01*
X017686Y021171D01*
X017659Y021187D01*
X017633Y021206D01*
X017611Y021228D01*
X017591Y021252D01*
X017574Y021279D01*
X017561Y021308D01*
X017552Y021338D01*
X017546Y021369D01*
X017544Y021400D01*
X017344Y021400D02*
X017346Y021431D01*
X017352Y021462D01*
X017361Y021492D01*
X017374Y021521D01*
X017391Y021548D01*
X017411Y021572D01*
X017433Y021594D01*
X017459Y021613D01*
X017486Y021629D01*
X017515Y021641D01*
X017545Y021650D01*
X017576Y021655D01*
X017608Y021656D01*
X017639Y021653D01*
X017670Y021646D01*
X017700Y021636D01*
X017728Y021622D01*
X017754Y021604D01*
X017778Y021584D01*
X017799Y021560D01*
X017818Y021535D01*
X017833Y021507D01*
X017844Y021478D01*
X017852Y021447D01*
X017856Y021416D01*
X017856Y021384D01*
X017852Y021353D01*
X017844Y021322D01*
X017833Y021293D01*
X017818Y021265D01*
X017799Y021240D01*
X017778Y021216D01*
X017754Y021196D01*
X017728Y021178D01*
X017700Y021164D01*
X017670Y021154D01*
X017639Y021147D01*
X017608Y021144D01*
X017576Y021145D01*
X017545Y021150D01*
X017515Y021159D01*
X017486Y021171D01*
X017459Y021187D01*
X017433Y021206D01*
X017411Y021228D01*
X017391Y021252D01*
X017374Y021279D01*
X017361Y021308D01*
X017352Y021338D01*
X017346Y021369D01*
X017344Y021400D01*
X018344Y021400D02*
X018346Y021431D01*
X018352Y021462D01*
X018361Y021492D01*
X018374Y021521D01*
X018391Y021548D01*
X018411Y021572D01*
X018433Y021594D01*
X018459Y021613D01*
X018486Y021629D01*
X018515Y021641D01*
X018545Y021650D01*
X018576Y021655D01*
X018608Y021656D01*
X018639Y021653D01*
X018670Y021646D01*
X018700Y021636D01*
X018728Y021622D01*
X018754Y021604D01*
X018778Y021584D01*
X018799Y021560D01*
X018818Y021535D01*
X018833Y021507D01*
X018844Y021478D01*
X018852Y021447D01*
X018856Y021416D01*
X018856Y021384D01*
X018852Y021353D01*
X018844Y021322D01*
X018833Y021293D01*
X018818Y021265D01*
X018799Y021240D01*
X018778Y021216D01*
X018754Y021196D01*
X018728Y021178D01*
X018700Y021164D01*
X018670Y021154D01*
X018639Y021147D01*
X018608Y021144D01*
X018576Y021145D01*
X018545Y021150D01*
X018515Y021159D01*
X018486Y021171D01*
X018459Y021187D01*
X018433Y021206D01*
X018411Y021228D01*
X018391Y021252D01*
X018374Y021279D01*
X018361Y021308D01*
X018352Y021338D01*
X018346Y021369D01*
X018344Y021400D01*
X018544Y021400D02*
X018546Y021431D01*
X018552Y021462D01*
X018561Y021492D01*
X018574Y021521D01*
X018591Y021548D01*
X018611Y021572D01*
X018633Y021594D01*
X018659Y021613D01*
X018686Y021629D01*
X018715Y021641D01*
X018745Y021650D01*
X018776Y021655D01*
X018808Y021656D01*
X018839Y021653D01*
X018870Y021646D01*
X018900Y021636D01*
X018928Y021622D01*
X018954Y021604D01*
X018978Y021584D01*
X018999Y021560D01*
X019018Y021535D01*
X019033Y021507D01*
X019044Y021478D01*
X019052Y021447D01*
X019056Y021416D01*
X019056Y021384D01*
X019052Y021353D01*
X019044Y021322D01*
X019033Y021293D01*
X019018Y021265D01*
X018999Y021240D01*
X018978Y021216D01*
X018954Y021196D01*
X018928Y021178D01*
X018900Y021164D01*
X018870Y021154D01*
X018839Y021147D01*
X018808Y021144D01*
X018776Y021145D01*
X018745Y021150D01*
X018715Y021159D01*
X018686Y021171D01*
X018659Y021187D01*
X018633Y021206D01*
X018611Y021228D01*
X018591Y021252D01*
X018574Y021279D01*
X018561Y021308D01*
X018552Y021338D01*
X018546Y021369D01*
X018544Y021400D01*
D13*
X016608Y019846D02*
X016372Y019846D01*
X016372Y019374D02*
X016608Y019374D01*
X017480Y018490D02*
X017620Y018350D01*
X017620Y015730D01*
X014860Y015730D01*
X014860Y018490D01*
X017480Y018490D01*
X017179Y018190D02*
X017181Y018213D01*
X017187Y018236D01*
X017196Y018257D01*
X017209Y018277D01*
X017225Y018294D01*
X017243Y018308D01*
X017263Y018319D01*
X017285Y018327D01*
X017308Y018331D01*
X017332Y018331D01*
X017355Y018327D01*
X017377Y018319D01*
X017397Y018308D01*
X017415Y018294D01*
X017431Y018277D01*
X017444Y018257D01*
X017453Y018236D01*
X017459Y018213D01*
X017461Y018190D01*
X017459Y018167D01*
X017453Y018144D01*
X017444Y018123D01*
X017431Y018103D01*
X017415Y018086D01*
X017397Y018072D01*
X017377Y018061D01*
X017355Y018053D01*
X017332Y018049D01*
X017308Y018049D01*
X017285Y018053D01*
X017263Y018061D01*
X017243Y018072D01*
X017225Y018086D01*
X017209Y018103D01*
X017196Y018123D01*
X017187Y018144D01*
X017181Y018167D01*
X017179Y018190D01*
X018990Y017960D02*
X018990Y017760D01*
X019490Y017760D02*
X019490Y017960D01*
X019810Y017820D02*
X019810Y016400D01*
X020140Y015260D02*
X020340Y015260D01*
X020340Y014760D02*
X020140Y014760D01*
X021890Y014760D02*
X022090Y014760D01*
X022090Y015260D02*
X021890Y015260D01*
X021670Y016400D02*
X021670Y017820D01*
X022004Y016728D02*
X022004Y016492D01*
X022476Y016492D02*
X022476Y016728D01*
X026432Y018564D02*
X026668Y018564D01*
X026960Y018410D02*
X026960Y014910D01*
X026970Y014910D02*
X028210Y014910D01*
X028233Y014912D01*
X028256Y014917D01*
X028278Y014926D01*
X028298Y014939D01*
X028316Y014954D01*
X028331Y014972D01*
X028344Y014992D01*
X028353Y015014D01*
X028358Y015037D01*
X028360Y015060D01*
X028360Y018260D01*
X028358Y018283D01*
X028353Y018306D01*
X028344Y018328D01*
X028331Y018348D01*
X028316Y018366D01*
X028298Y018381D01*
X028278Y018394D01*
X028256Y018403D01*
X028233Y018408D01*
X028210Y018410D01*
X027790Y018410D01*
X027390Y018410D01*
X026970Y018410D01*
X026947Y018408D01*
X026924Y018403D01*
X026902Y018394D01*
X026882Y018381D01*
X026864Y018366D01*
X026849Y018348D01*
X026836Y018328D01*
X026827Y018306D01*
X026822Y018283D01*
X026820Y018260D01*
X026820Y015060D01*
X026822Y015037D01*
X026827Y015014D01*
X026836Y014992D01*
X026849Y014972D01*
X026864Y014954D01*
X026882Y014939D01*
X026902Y014926D01*
X026924Y014917D01*
X026947Y014912D01*
X026970Y014910D01*
X031280Y013570D02*
X031280Y013050D01*
X032400Y013050D01*
X032400Y013570D01*
X031280Y013570D01*
X031990Y015760D02*
X031990Y015960D01*
X032490Y015960D02*
X032490Y015760D01*
X027790Y018410D02*
X027788Y018383D01*
X027783Y018356D01*
X027773Y018330D01*
X027761Y018306D01*
X027745Y018284D01*
X027727Y018264D01*
X027705Y018247D01*
X027682Y018232D01*
X027657Y018222D01*
X027631Y018214D01*
X027604Y018210D01*
X027576Y018210D01*
X027549Y018214D01*
X027523Y018222D01*
X027498Y018232D01*
X027475Y018247D01*
X027453Y018264D01*
X027435Y018284D01*
X027419Y018306D01*
X027407Y018330D01*
X027397Y018356D01*
X027392Y018383D01*
X027390Y018410D01*
X026668Y019036D02*
X026432Y019036D01*
X020128Y012526D02*
X019892Y012526D01*
X019892Y012054D02*
X020128Y012054D01*
X016358Y014124D02*
X016122Y014124D01*
X016122Y014596D02*
X016358Y014596D01*
X013500Y013420D02*
X013500Y012300D01*
X012980Y012300D01*
X012980Y013420D01*
X013500Y013420D01*
X012626Y015592D02*
X012626Y015828D01*
X012154Y015828D02*
X012154Y015592D01*
X012640Y020860D02*
X012840Y020860D01*
X012840Y021360D02*
X012640Y021360D01*
X024660Y011760D02*
X024860Y011760D01*
X024860Y011260D02*
X024660Y011260D01*
X016440Y009210D02*
X016440Y009010D01*
X015940Y009010D02*
X015940Y009210D01*
X015508Y010174D02*
X015272Y010174D01*
X015272Y010646D02*
X015508Y010646D01*
X012790Y006560D02*
X012590Y006560D01*
X012590Y006060D02*
X012790Y006060D01*
D14*
X012019Y007470D02*
X014458Y007470D01*
X014458Y010050D01*
X012019Y010050D01*
X010290Y012510D02*
X007290Y012510D01*
X007242Y012531D01*
X007196Y012555D01*
X007152Y012582D01*
X007110Y012613D01*
X007070Y012647D01*
X007033Y012683D01*
X006999Y012722D01*
X006968Y012764D01*
X006940Y012808D01*
X006915Y012854D01*
X006894Y012901D01*
X006876Y012950D01*
X006863Y013000D01*
X006852Y013052D01*
X006846Y013103D01*
X006844Y013155D01*
X006846Y013207D01*
X006851Y013259D01*
X006860Y013310D01*
X006874Y013361D01*
X006890Y013410D01*
X006959Y013483D01*
X007026Y013560D01*
X007088Y013639D01*
X007147Y013721D01*
X007201Y013806D01*
X007252Y013894D01*
X007298Y013983D01*
X007340Y014075D01*
X007377Y014169D01*
X007410Y014264D01*
X007439Y014361D01*
X007463Y014459D01*
X007482Y014558D01*
X007496Y014658D01*
X007506Y014759D01*
X007510Y014860D01*
X007510Y014960D01*
X007506Y015061D01*
X007496Y015162D01*
X007482Y015262D01*
X007463Y015361D01*
X007439Y015459D01*
X007410Y015556D01*
X007377Y015651D01*
X007340Y015745D01*
X007298Y015837D01*
X007252Y015926D01*
X007201Y016014D01*
X007147Y016099D01*
X007088Y016181D01*
X007026Y016260D01*
X006959Y016337D01*
X006890Y016410D01*
X006874Y016459D01*
X006860Y016510D01*
X006851Y016561D01*
X006846Y016613D01*
X006844Y016665D01*
X006846Y016717D01*
X006852Y016768D01*
X006863Y016820D01*
X006876Y016870D01*
X006894Y016919D01*
X006915Y016966D01*
X006940Y017012D01*
X006968Y017056D01*
X006999Y017098D01*
X007033Y017137D01*
X007070Y017173D01*
X007110Y017207D01*
X007152Y017238D01*
X007196Y017265D01*
X007242Y017289D01*
X007290Y017310D01*
X010290Y017310D01*
X011490Y016110D01*
X011490Y013710D01*
X010290Y012510D01*
X019390Y011040D02*
X021750Y011040D01*
X021750Y008460D01*
X019390Y008460D01*
X021916Y007925D02*
X021916Y007098D01*
X021916Y006665D02*
X021916Y005838D01*
X023570Y005838D01*
X024003Y006271D01*
X024003Y006684D01*
X024003Y007098D02*
X024003Y007491D01*
X023570Y007925D01*
X021916Y007925D01*
X021995Y007098D02*
X022010Y007157D01*
X022028Y007214D01*
X022050Y007271D01*
X022075Y007326D01*
X022104Y007379D01*
X022136Y007431D01*
X022171Y007480D01*
X022209Y007527D01*
X022250Y007572D01*
X022294Y007614D01*
X022340Y007653D01*
X022388Y007689D01*
X022439Y007723D01*
X022492Y007753D01*
X022546Y007779D01*
X022602Y007803D01*
X022659Y007822D01*
X022718Y007838D01*
X022777Y007851D01*
X022837Y007860D01*
X022897Y007865D01*
X022958Y007866D01*
X023019Y007863D01*
X023079Y007857D01*
X023139Y007847D01*
X023198Y007833D01*
X023256Y007816D01*
X023313Y007795D01*
X023368Y007771D01*
X023422Y007743D01*
X023474Y007712D01*
X023524Y007678D01*
X023572Y007640D01*
X023617Y007600D01*
X023660Y007557D01*
X023700Y007512D01*
X023737Y007464D01*
X023771Y007414D01*
X023802Y007362D01*
X023829Y007308D01*
X023854Y007252D01*
X023874Y007195D01*
X023891Y007137D01*
X023905Y007078D01*
X023924Y006684D02*
X023909Y006624D01*
X023891Y006565D01*
X023868Y006507D01*
X023842Y006450D01*
X023813Y006396D01*
X023780Y006343D01*
X023744Y006292D01*
X023705Y006244D01*
X023663Y006198D01*
X023618Y006156D01*
X023571Y006115D01*
X023521Y006079D01*
X023469Y006045D01*
X023415Y006014D01*
X023359Y005987D01*
X023301Y005964D01*
X023242Y005944D01*
X023182Y005928D01*
X023122Y005916D01*
X023060Y005907D01*
X022998Y005903D01*
X022936Y005902D01*
X022874Y005905D01*
X022812Y005913D01*
X022751Y005924D01*
X022691Y005938D01*
X022632Y005957D01*
X022574Y005979D01*
X022517Y006005D01*
X022463Y006034D01*
X022410Y006067D01*
X022359Y006103D01*
X022311Y006142D01*
X022265Y006184D01*
X022222Y006229D01*
X022182Y006276D01*
X022145Y006326D01*
X022111Y006378D01*
X022081Y006432D01*
X022054Y006488D01*
X022030Y006546D01*
X022010Y006605D01*
X021994Y006665D01*
X026640Y007070D02*
X026640Y009650D01*
X029000Y009650D01*
X030362Y010622D02*
X027448Y010622D01*
X027448Y011921D01*
X030362Y011921D01*
X030362Y010622D01*
X029000Y007070D02*
X026640Y007070D01*
X022670Y011338D02*
X021016Y011338D01*
X021016Y012165D01*
X021016Y012598D02*
X021016Y013425D01*
X022670Y013425D01*
X023103Y012991D01*
X023103Y012598D01*
X023103Y012184D02*
X023103Y011771D01*
X022670Y011338D01*
X023024Y012184D02*
X023009Y012124D01*
X022991Y012065D01*
X022968Y012007D01*
X022942Y011950D01*
X022913Y011896D01*
X022880Y011843D01*
X022844Y011792D01*
X022805Y011744D01*
X022763Y011698D01*
X022718Y011656D01*
X022671Y011615D01*
X022621Y011579D01*
X022569Y011545D01*
X022515Y011514D01*
X022459Y011487D01*
X022401Y011464D01*
X022342Y011444D01*
X022282Y011428D01*
X022222Y011416D01*
X022160Y011407D01*
X022098Y011403D01*
X022036Y011402D01*
X021974Y011405D01*
X021912Y011413D01*
X021851Y011424D01*
X021791Y011438D01*
X021732Y011457D01*
X021674Y011479D01*
X021617Y011505D01*
X021563Y011534D01*
X021510Y011567D01*
X021459Y011603D01*
X021411Y011642D01*
X021365Y011684D01*
X021322Y011729D01*
X021282Y011776D01*
X021245Y011826D01*
X021211Y011878D01*
X021181Y011932D01*
X021154Y011988D01*
X021130Y012046D01*
X021110Y012105D01*
X021094Y012165D01*
X021095Y012598D02*
X021110Y012657D01*
X021128Y012714D01*
X021150Y012771D01*
X021175Y012826D01*
X021204Y012879D01*
X021236Y012931D01*
X021271Y012980D01*
X021309Y013027D01*
X021350Y013072D01*
X021394Y013114D01*
X021440Y013153D01*
X021488Y013189D01*
X021539Y013223D01*
X021592Y013253D01*
X021646Y013279D01*
X021702Y013303D01*
X021759Y013322D01*
X021818Y013338D01*
X021877Y013351D01*
X021937Y013360D01*
X021997Y013365D01*
X022058Y013366D01*
X022119Y013363D01*
X022179Y013357D01*
X022239Y013347D01*
X022298Y013333D01*
X022356Y013316D01*
X022413Y013295D01*
X022468Y013271D01*
X022522Y013243D01*
X022574Y013212D01*
X022624Y013178D01*
X022672Y013140D01*
X022717Y013100D01*
X022760Y013057D01*
X022800Y013012D01*
X022837Y012964D01*
X022871Y012914D01*
X022902Y012862D01*
X022929Y012808D01*
X022954Y012752D01*
X022974Y012695D01*
X022991Y012637D01*
X023005Y012578D01*
X021393Y017500D02*
X021395Y017515D01*
X021401Y017528D01*
X021410Y017540D01*
X021421Y017549D01*
X021435Y017555D01*
X021450Y017557D01*
X021465Y017555D01*
X021478Y017549D01*
X021490Y017540D01*
X021499Y017529D01*
X021505Y017515D01*
X021507Y017500D01*
X021505Y017485D01*
X021499Y017472D01*
X021490Y017460D01*
X021479Y017451D01*
X021465Y017445D01*
X021450Y017443D01*
X021435Y017445D01*
X021422Y017451D01*
X021410Y017460D01*
X021401Y017471D01*
X021395Y017485D01*
X021393Y017500D01*
X015449Y019354D02*
X015449Y019866D01*
X014031Y019866D02*
X014031Y019354D01*
D15*
X021940Y009750D03*
X026450Y008360D03*
X014648Y008760D03*
D16*
X014380Y007305D02*
X014330Y007305D01*
X014305Y007280D01*
X014258Y007280D02*
X014258Y007180D01*
X014233Y007155D01*
X014183Y007155D01*
X014158Y007180D01*
X014158Y007280D01*
X014183Y007305D01*
X014233Y007305D01*
X014258Y007280D01*
X014208Y007205D02*
X014258Y007155D01*
X014305Y007155D02*
X014405Y007255D01*
X014405Y007280D01*
X014380Y007305D01*
X014405Y007155D02*
X014305Y007155D01*
X014650Y020055D02*
X014650Y020130D01*
X014700Y020180D01*
X014700Y020205D01*
X014748Y020180D02*
X014773Y020205D01*
X014823Y020205D01*
X014848Y020180D01*
X014848Y020155D01*
X014748Y020055D01*
X014848Y020055D01*
X014650Y020130D02*
X014600Y020180D01*
X014600Y020205D01*
D17*
X012540Y020210D02*
X012540Y019710D01*
X012290Y019460D01*
X012540Y019210D01*
X012540Y018710D01*
X012290Y018460D01*
X012540Y018210D01*
X012540Y017710D01*
X012290Y017460D01*
X011790Y017460D01*
X011540Y017710D01*
X011290Y017460D01*
X010790Y017460D01*
X010540Y017710D01*
X010540Y018210D01*
X010790Y018460D01*
X010540Y018710D01*
X010540Y019210D01*
X010790Y019460D01*
X010540Y019710D01*
X010540Y020210D01*
X010790Y020460D01*
X011290Y020460D01*
X011540Y020210D01*
X011790Y020460D01*
X012290Y020460D01*
X012540Y020210D01*
X012040Y019460D02*
X011040Y019460D01*
X010390Y019710D02*
X010390Y020210D01*
X011040Y018460D02*
X012040Y018460D01*
X024140Y009210D02*
X024640Y009210D01*
M02*
