%
M48
M72
T01C0.0197
T02C0.0236
T03C0.0276
T04C0.0354
T05C0.0400
T06C0.0440
T07C0.0472
T08C0.0512
T09C0.1260
%
T01
X16490Y20110
T02
X17690Y19860
X17890Y19010
X16750Y18000
X15490Y17360
X15240Y17860
X13750Y18350
X13740Y19860
X13740Y21110
X20240Y18860
X19990Y17360
X22390Y17510
X23900Y19850
X26050Y18550
X27290Y17910
X28540Y18660
X31040Y18710
X31040Y17710
X31050Y16750
X31040Y15710
X31040Y14710
X29200Y13050
X28540Y12810
X28500Y14250
X31100Y12600
X24940Y12210
X24390Y13810
X23290Y14810
X22000Y12000
X22600Y9750
X24500Y7500
X15990Y7610
X13740Y6110
X10490Y11610
X11490Y12610
X11490Y13110
X11740Y13860
X11490Y14610
X11490Y15360
X10990Y15860
X14240Y15360
X14990Y14610
X14190Y13810
X12490Y12110
X8490Y13110
X17040Y14360
X30990Y21110
T03
X18900Y12600
X18000Y13800
T04
X26720Y11272
X31090Y11272
T05
X23190Y20410
X22190Y20410
X21190Y20410
X9090Y9910
X9090Y8810
T06
X31740Y8710
X32490Y10910
T07
X11490Y18110
X10490Y18110
X10490Y19110
X11490Y19110
X11490Y20110
X10490Y20110
T08
X9700Y5900
X9900Y5900
X10100Y5900
X10300Y5900
X10500Y5900
X10700Y5900
X10900Y5900
X17500Y5900
X17700Y5900
X17900Y5900
X18100Y5900
X18300Y5900
X18500Y5900
X18700Y5900
X18600Y21400
X18400Y21400
X18200Y21400
X18000Y21400
X17800Y21400
X17600Y21400
X18800Y21400
X10900Y21400
X10700Y21400
X10500Y21400
X10300Y21400
X10100Y21400
X9900Y21400
X9700Y21400
T09
X8256Y20535
X8256Y6756
X32665Y6756
X32665Y20535
M30
