G75*
G70*
%OFA0B0*%
%FSLAX24Y24*%
%IPPOS*%
%LPD*%
%AMOC8*
5,1,8,0,0,1.08239X$1,22.5*
%
%ADD10C,0.0600*%
%ADD11C,0.0740*%
%ADD12R,0.1575X0.0295*%
%ADD13R,0.0315X0.0315*%
%ADD14OC8,0.0720*%
%ADD15C,0.0740*%
%ADD16R,0.1181X0.0394*%
%ADD17C,0.0376*%
%ADD18C,0.0100*%
%ADD19C,0.0040*%
%ADD20C,0.0200*%
%ADD21C,0.0337*%
%ADD22C,0.0080*%
%ADD23C,0.0416*%
D10*
X008790Y008810D02*
X009390Y008810D01*
X009390Y009910D02*
X008790Y009910D01*
D11*
X021190Y020410D03*
X022190Y020410D03*
X023190Y020410D03*
X026720Y011272D03*
X031090Y011272D03*
D12*
X010297Y012085D03*
X010297Y012479D03*
X010297Y012873D03*
X010297Y013266D03*
X010297Y013660D03*
X010297Y014054D03*
X010297Y014447D03*
X010297Y014841D03*
X010297Y015235D03*
D13*
X014315Y021120D03*
X014905Y021120D03*
X019425Y021130D03*
X020015Y021130D03*
X020035Y006200D03*
X019445Y006200D03*
X014895Y006200D03*
X014305Y006200D03*
D14*
X011490Y018110D03*
X010490Y018110D03*
X010490Y019110D03*
X011490Y019110D03*
X011490Y020110D03*
X010490Y020110D03*
D15*
X031370Y008710D02*
X032110Y008710D01*
X032120Y010910D02*
X032860Y010910D01*
D16*
X032331Y012600D03*
X032331Y013600D03*
X032331Y014600D03*
X032331Y015600D03*
X032331Y016600D03*
X032331Y017600D03*
X032331Y018600D03*
D17*
X031040Y018710D03*
X031040Y017710D03*
X031050Y016750D03*
X031040Y015710D03*
X031040Y014710D03*
X029200Y013050D03*
X028540Y012810D03*
X028500Y014250D03*
X031100Y012600D03*
X024940Y012210D03*
X024390Y013810D03*
X023290Y014810D03*
X022390Y017510D03*
X019990Y017360D03*
X020240Y018860D03*
X017890Y019010D03*
X017690Y019860D03*
X016750Y018000D03*
X015490Y017360D03*
X015240Y017860D03*
X013750Y018350D03*
X013740Y019860D03*
X013740Y021110D03*
X010990Y015860D03*
X011490Y015360D03*
X011490Y014610D03*
X011740Y013860D03*
X011490Y013110D03*
X011490Y012610D03*
X012490Y012110D03*
X010490Y011610D03*
X008490Y013110D03*
X014190Y013810D03*
X014990Y014610D03*
X014240Y015360D03*
X017040Y014360D03*
X022000Y012000D03*
X022600Y009750D03*
X024500Y007500D03*
X015990Y007610D03*
X013740Y006110D03*
X027290Y017910D03*
X028540Y018660D03*
X026050Y018550D03*
X023900Y019850D03*
X030990Y021110D03*
D18*
X030970Y021130D01*
X020015Y021130D01*
X019425Y021130D02*
X019425Y021045D01*
X018990Y020610D01*
X015415Y020610D01*
X014905Y021120D01*
X014315Y021120D02*
X013750Y021120D01*
X013740Y021110D01*
X010990Y015860D02*
X010365Y015235D01*
X010297Y015235D01*
X010297Y014841D02*
X011221Y014841D01*
X011240Y014860D01*
X011240Y015110D01*
X011490Y015360D01*
X011490Y014610D02*
X011327Y014447D01*
X011153Y014447D01*
X011240Y014360D01*
X011240Y013860D01*
X010990Y013610D01*
X010347Y013610D01*
X010297Y013660D01*
X010297Y014054D02*
X009434Y014054D01*
X009240Y013860D01*
X009240Y012360D01*
X009490Y012110D01*
X010272Y012110D01*
X010297Y012085D01*
X010297Y014447D02*
X011153Y014447D01*
X015305Y006610D02*
X014895Y006200D01*
X015305Y006610D02*
X018990Y006610D01*
X019400Y006200D01*
X019445Y006200D01*
X020035Y006200D02*
X020085Y006250D01*
X023950Y006250D01*
X024500Y006800D01*
X024500Y007500D01*
X031100Y012600D02*
X032331Y012600D01*
X027790Y017910D02*
X027290Y017910D01*
X027790Y017910D02*
X028540Y018660D01*
X024390Y013810D02*
X023290Y014810D01*
X014305Y006200D02*
X013830Y006200D01*
X013740Y006110D01*
D19*
X009741Y006592D02*
X009692Y006641D01*
X009653Y006697D01*
X009624Y006759D01*
X009606Y006825D01*
X009600Y006894D01*
X009600Y007000D01*
X009590Y007142D01*
X009559Y007282D01*
X009510Y007415D01*
X009441Y007541D01*
X015663Y007541D01*
X015662Y007545D02*
X015712Y007424D01*
X015804Y007332D01*
X015925Y007282D01*
X016055Y007282D01*
X016176Y007332D01*
X016268Y007424D01*
X016318Y007545D01*
X016318Y007675D01*
X016268Y007796D01*
X016176Y007888D01*
X016055Y007938D01*
X015925Y007938D01*
X015905Y007930D01*
X015325Y007930D01*
X015170Y008085D01*
X015170Y010685D01*
X015065Y010790D01*
X015065Y010790D01*
X014920Y010935D01*
X014815Y011040D01*
X013065Y011040D01*
X012670Y011435D01*
X012670Y011829D01*
X012676Y011832D01*
X012768Y011924D01*
X012818Y012045D01*
X012818Y012175D01*
X012768Y012296D01*
X012676Y012388D01*
X012555Y012438D01*
X012425Y012438D01*
X012304Y012388D01*
X012212Y012296D01*
X012162Y012175D01*
X012162Y012045D01*
X012212Y011924D01*
X012304Y011832D01*
X012310Y011829D01*
X012310Y011285D01*
X012810Y010785D01*
X012915Y010680D01*
X014665Y010680D01*
X014810Y010535D01*
X014810Y007935D01*
X015070Y007675D01*
X015175Y007570D01*
X015662Y007570D01*
X015662Y007545D01*
X015679Y007503D02*
X009462Y007503D01*
X009441Y007541D02*
X009356Y007655D01*
X009255Y007756D01*
X009141Y007841D01*
X009015Y007910D01*
X008882Y007959D01*
X008742Y007990D01*
X008713Y007992D01*
X008681Y008004D01*
X008675Y008013D01*
X008628Y008024D01*
X008583Y008040D01*
X008573Y008036D01*
X008499Y008052D01*
X008492Y008060D01*
X008444Y008064D01*
X008397Y008074D01*
X008387Y008068D01*
X008318Y008073D01*
X008314Y008077D01*
X008261Y008077D01*
X008208Y008081D01*
X008204Y008077D01*
X007563Y008077D01*
X007541Y008092D01*
X007492Y008141D01*
X007453Y008197D01*
X007424Y008259D01*
X007406Y008325D01*
X007400Y008394D01*
X007400Y018906D01*
X007406Y018975D01*
X007424Y019041D01*
X007453Y019103D01*
X007492Y019159D01*
X007541Y019208D01*
X007549Y019214D01*
X008204Y019214D01*
X008208Y019210D01*
X008261Y019214D01*
X008314Y019214D01*
X008318Y019218D01*
X008387Y019223D01*
X008397Y019217D01*
X008444Y019227D01*
X008492Y019231D01*
X008499Y019239D01*
X008573Y019255D01*
X008583Y019250D01*
X008628Y019267D01*
X008675Y019277D01*
X008681Y019287D01*
X008752Y019313D01*
X008763Y019310D01*
X008805Y019333D01*
X008850Y019350D01*
X008854Y019360D01*
X008897Y019383D01*
X008915Y019390D01*
X008925Y019396D01*
X008932Y019395D01*
X008954Y019412D01*
X009041Y019459D01*
X009155Y019544D01*
X009256Y019645D01*
X009310Y019718D01*
X009310Y019435D01*
X008915Y019040D01*
X007915Y019040D01*
X007810Y018935D01*
X007560Y018685D01*
X007560Y014285D01*
X007665Y014180D01*
X008310Y013535D01*
X008310Y013391D01*
X008304Y013388D01*
X008212Y013296D01*
X008162Y013175D01*
X008162Y013045D01*
X008212Y012924D01*
X008304Y012832D01*
X008425Y012782D01*
X008555Y012782D01*
X008676Y012832D01*
X008768Y012924D01*
X008818Y013045D01*
X008818Y013175D01*
X008768Y013296D01*
X008676Y013388D01*
X008670Y013391D01*
X008670Y013685D01*
X007920Y014435D01*
X007920Y018535D01*
X008065Y018680D01*
X009065Y018680D01*
X009670Y019285D01*
X009670Y020035D01*
X010065Y020430D01*
X010103Y020430D01*
X009990Y020317D01*
X009990Y019903D01*
X010283Y019610D01*
X010697Y019610D01*
X010716Y019629D01*
X010810Y019535D01*
X010915Y019430D01*
X011103Y019430D01*
X010990Y019317D01*
X010990Y018903D01*
X010971Y018884D01*
X011075Y018780D01*
X011113Y018780D01*
X010990Y018903D01*
X010990Y019317D01*
X010697Y019610D01*
X010283Y019610D01*
X009990Y019317D01*
X009990Y018903D01*
X010283Y018610D01*
X009990Y018317D01*
X009990Y017903D01*
X010283Y017610D01*
X010697Y017610D01*
X010990Y017903D01*
X010990Y018317D01*
X010697Y018610D01*
X010283Y018610D01*
X010697Y018610D01*
X010716Y018629D01*
X010716Y018629D01*
X010925Y018420D01*
X011825Y018420D01*
X012075Y018170D01*
X013469Y018170D01*
X013472Y018164D01*
X013564Y018072D01*
X013685Y018022D01*
X013815Y018022D01*
X013936Y018072D01*
X014028Y018164D01*
X014078Y018285D01*
X014078Y018415D01*
X014028Y018536D01*
X013994Y018570D01*
X014275Y018570D01*
X014914Y017931D01*
X014912Y017925D01*
X014912Y017795D01*
X014962Y017674D01*
X015054Y017582D01*
X015175Y017532D01*
X015206Y017532D01*
X015162Y017425D01*
X015162Y017295D01*
X015212Y017174D01*
X015304Y017082D01*
X015425Y017032D01*
X015555Y017032D01*
X015676Y017082D01*
X015768Y017174D01*
X015818Y017295D01*
X015818Y017425D01*
X015816Y017431D01*
X015920Y017535D01*
X015920Y017935D01*
X015815Y018040D01*
X014565Y019290D01*
X014065Y019290D01*
X013565Y019790D01*
X011877Y019790D01*
X011990Y019903D01*
X011990Y020105D01*
X012065Y020180D01*
X014915Y020180D01*
X015060Y020035D01*
X015165Y019930D01*
X016234Y019930D01*
X016315Y019849D01*
X016429Y019802D01*
X016551Y019802D01*
X016665Y019849D01*
X016751Y019935D01*
X016798Y020049D01*
X016798Y020171D01*
X016774Y020230D01*
X019865Y020230D01*
X020060Y020035D01*
X020060Y019141D01*
X020054Y019138D01*
X019962Y019046D01*
X019912Y018925D01*
X019912Y018795D01*
X019962Y018674D01*
X020054Y018582D01*
X020175Y018532D01*
X020305Y018532D01*
X020426Y018582D01*
X020518Y018674D01*
X020568Y018795D01*
X020568Y018925D01*
X020518Y019046D01*
X020426Y019138D01*
X020420Y019141D01*
X020420Y020185D01*
X020120Y020485D01*
X020015Y020590D01*
X019239Y020590D01*
X019349Y020700D01*
X019500Y020700D01*
X019500Y020833D01*
X019640Y020833D01*
X019720Y020912D01*
X019800Y020833D01*
X020231Y020833D01*
X020313Y020915D01*
X020313Y020940D01*
X030705Y020940D01*
X030712Y020924D01*
X030804Y020832D01*
X030925Y020782D01*
X031055Y020782D01*
X031176Y020832D01*
X031268Y020924D01*
X031318Y021045D01*
X031318Y021171D01*
X031333Y021150D01*
X031344Y021126D01*
X031344Y020587D01*
X031340Y020583D01*
X031344Y020530D01*
X031344Y020477D01*
X030680Y020477D01*
X030680Y020439D02*
X031351Y020439D01*
X031348Y020473D02*
X031353Y020404D01*
X031347Y020394D01*
X031357Y020347D01*
X031361Y020299D01*
X031369Y020292D01*
X031385Y020218D01*
X031380Y020208D01*
X031397Y020163D01*
X031407Y020116D01*
X031417Y020110D01*
X031426Y020087D01*
X031441Y020018D01*
X031490Y019885D01*
X031559Y019759D01*
X031644Y019645D01*
X031745Y019544D01*
X031859Y019459D01*
X031985Y019390D01*
X032067Y019360D01*
X032071Y019350D01*
X032116Y019333D01*
X032158Y019310D01*
X032169Y019313D01*
X032240Y019287D01*
X032246Y019277D01*
X032293Y019267D01*
X032338Y019250D01*
X032348Y019255D01*
X032422Y019239D01*
X032429Y019231D01*
X032477Y019227D01*
X032524Y019217D01*
X032534Y019223D01*
X032603Y019218D01*
X032607Y019214D01*
X032660Y019214D01*
X032713Y019210D01*
X032717Y019214D01*
X033277Y019214D01*
X033321Y019183D01*
X033383Y019121D01*
X033433Y019050D01*
X033470Y018971D01*
X033492Y018887D01*
X033500Y018800D01*
X033500Y012700D01*
X033484Y012623D01*
X033485Y012623D02*
X033062Y012623D01*
X033062Y012585D02*
X033470Y012585D01*
X033456Y012549D02*
X033415Y012482D01*
X033363Y012422D01*
X033301Y012373D01*
X033232Y012335D01*
X033157Y012310D01*
X033079Y012298D01*
X033016Y012300D01*
X033062Y012345D01*
X033062Y012855D01*
X032980Y012937D01*
X031683Y012937D01*
X031601Y012855D01*
X031601Y012790D01*
X031374Y012790D01*
X031286Y012878D01*
X031165Y012928D01*
X031035Y012928D01*
X030914Y012878D01*
X030822Y012786D01*
X030772Y012665D01*
X030772Y012535D01*
X030822Y012414D01*
X030914Y012322D01*
X030999Y012287D01*
X030930Y012276D01*
X030801Y012235D01*
X030678Y012176D01*
X030566Y012101D01*
X030465Y012010D01*
X030378Y011906D01*
X030307Y011790D01*
X030253Y011666D01*
X030217Y011535D01*
X030200Y011400D01*
X030200Y011200D01*
X030197Y011042D01*
X030216Y010886D01*
X030258Y010734D01*
X030321Y010589D01*
X030403Y010455D01*
X030504Y010334D01*
X030621Y010229D01*
X030752Y010141D01*
X030894Y010073D01*
X031044Y010025D01*
X031200Y010000D01*
X033000Y010000D01*
X033080Y010012D01*
X033161Y010008D01*
X033239Y009988D01*
X033312Y009954D01*
X033377Y009905D01*
X033431Y009845D01*
X033473Y009776D01*
X033500Y009700D01*
X033500Y008500D01*
X033492Y008413D01*
X033470Y008329D01*
X033433Y008250D01*
X033383Y008179D01*
X033321Y008117D01*
X033264Y008077D01*
X032717Y008077D01*
X032713Y008081D01*
X032660Y008077D01*
X032607Y008077D01*
X032603Y008073D01*
X032534Y008068D01*
X032524Y008074D01*
X032477Y008064D01*
X032429Y008060D01*
X032422Y008052D01*
X032348Y008036D01*
X032338Y008040D01*
X032293Y008024D01*
X032246Y008013D01*
X032240Y008004D01*
X032169Y007977D01*
X032158Y007981D01*
X032120Y007960D01*
X032118Y007959D01*
X031985Y007910D01*
X031859Y007841D01*
X031745Y007756D01*
X031644Y007655D01*
X031559Y007541D01*
X024828Y007541D01*
X024828Y007565D02*
X024778Y007686D01*
X024686Y007778D01*
X024565Y007828D01*
X024435Y007828D01*
X024314Y007778D01*
X024222Y007686D01*
X024172Y007565D01*
X024172Y007435D01*
X024222Y007314D01*
X024310Y007226D01*
X024310Y006879D01*
X023871Y006440D01*
X020308Y006440D01*
X020251Y006497D01*
X019820Y006497D01*
X019740Y006418D01*
X019660Y006497D01*
X019371Y006497D01*
X019180Y006689D01*
X019069Y006800D01*
X015227Y006800D01*
X014927Y006500D01*
X009994Y006500D01*
X009925Y006506D01*
X009859Y006524D01*
X009797Y006553D01*
X009741Y006592D01*
X009760Y006579D02*
X015005Y006579D01*
X015044Y006617D02*
X009716Y006617D01*
X009682Y006656D02*
X015082Y006656D01*
X015121Y006694D02*
X009655Y006694D01*
X009636Y006733D02*
X015159Y006733D01*
X015198Y006771D02*
X009621Y006771D01*
X009610Y006810D02*
X024241Y006810D01*
X024279Y006848D02*
X009604Y006848D01*
X009601Y006887D02*
X024310Y006887D01*
X024310Y006925D02*
X009600Y006925D01*
X009600Y006964D02*
X024310Y006964D01*
X024310Y007002D02*
X009600Y007002D01*
X009597Y007041D02*
X024310Y007041D01*
X024310Y007079D02*
X009594Y007079D01*
X009592Y007118D02*
X024310Y007118D01*
X024310Y007156D02*
X009587Y007156D01*
X009578Y007195D02*
X024310Y007195D01*
X024303Y007233D02*
X009570Y007233D01*
X009562Y007272D02*
X024264Y007272D01*
X024226Y007310D02*
X016123Y007310D01*
X016193Y007349D02*
X024208Y007349D01*
X024192Y007387D02*
X016231Y007387D01*
X016269Y007426D02*
X024176Y007426D01*
X024172Y007464D02*
X016285Y007464D01*
X016301Y007503D02*
X024172Y007503D01*
X024172Y007541D02*
X016317Y007541D01*
X016318Y007580D02*
X024178Y007580D01*
X024194Y007618D02*
X016318Y007618D01*
X016318Y007657D02*
X024210Y007657D01*
X024231Y007695D02*
X016310Y007695D01*
X016294Y007734D02*
X024270Y007734D01*
X024308Y007772D02*
X016278Y007772D01*
X016253Y007811D02*
X024392Y007811D01*
X024608Y007811D02*
X031818Y007811D01*
X031767Y007772D02*
X024692Y007772D01*
X024730Y007734D02*
X031723Y007734D01*
X031684Y007695D02*
X024769Y007695D01*
X024790Y007657D02*
X031646Y007657D01*
X031617Y007618D02*
X024806Y007618D01*
X024822Y007580D02*
X031588Y007580D01*
X031559Y007541D02*
X031490Y007415D01*
X031441Y007282D01*
X031421Y007191D01*
X031417Y007181D01*
X031407Y007175D01*
X031397Y007128D01*
X031380Y007083D01*
X031385Y007073D01*
X031369Y006999D01*
X031361Y006992D01*
X031357Y006944D01*
X031347Y006897D01*
X031353Y006887D01*
X031348Y006818D01*
X031344Y006814D01*
X031344Y006761D01*
X031340Y006708D01*
X031344Y006703D01*
X031344Y005927D01*
X031312Y005888D01*
X031267Y005851D01*
X031215Y005823D01*
X031159Y005806D01*
X031100Y005800D01*
X019500Y005800D01*
X019500Y005903D01*
X019660Y005903D01*
X019740Y005982D01*
X019820Y005903D01*
X020251Y005903D01*
X020333Y005985D01*
X020333Y006060D01*
X024029Y006060D01*
X024140Y006171D01*
X024690Y006721D01*
X024690Y007226D01*
X024778Y007314D01*
X024828Y007435D01*
X024828Y007565D01*
X024828Y007503D02*
X031538Y007503D01*
X031517Y007464D02*
X024828Y007464D01*
X024824Y007426D02*
X031496Y007426D01*
X031480Y007387D02*
X024808Y007387D01*
X024792Y007349D02*
X031465Y007349D01*
X031451Y007310D02*
X024774Y007310D01*
X024736Y007272D02*
X031438Y007272D01*
X031430Y007233D02*
X024697Y007233D01*
X024690Y007195D02*
X031422Y007195D01*
X031403Y007156D02*
X024690Y007156D01*
X024690Y007118D02*
X031393Y007118D01*
X031382Y007079D02*
X024690Y007079D01*
X024690Y007041D02*
X031378Y007041D01*
X031370Y007002D02*
X024690Y007002D01*
X024690Y006964D02*
X031359Y006964D01*
X031353Y006925D02*
X024690Y006925D01*
X024690Y006887D02*
X031353Y006887D01*
X031350Y006848D02*
X024690Y006848D01*
X024690Y006810D02*
X031344Y006810D01*
X031344Y006771D02*
X024690Y006771D01*
X024690Y006733D02*
X031342Y006733D01*
X031344Y006694D02*
X024663Y006694D01*
X024624Y006656D02*
X031344Y006656D01*
X031344Y006617D02*
X024586Y006617D01*
X024547Y006579D02*
X031344Y006579D01*
X031344Y006540D02*
X024509Y006540D01*
X024470Y006502D02*
X031344Y006502D01*
X031344Y006463D02*
X024432Y006463D01*
X024393Y006425D02*
X031344Y006425D01*
X031344Y006386D02*
X024355Y006386D01*
X024316Y006348D02*
X031344Y006348D01*
X031344Y006309D02*
X024278Y006309D01*
X024239Y006271D02*
X031344Y006271D01*
X031344Y006232D02*
X024201Y006232D01*
X024162Y006194D02*
X031344Y006194D01*
X031344Y006155D02*
X024124Y006155D01*
X024085Y006117D02*
X031344Y006117D01*
X031344Y006078D02*
X024047Y006078D01*
X023894Y006463D02*
X020285Y006463D01*
X020333Y006040D02*
X031344Y006040D01*
X031344Y006001D02*
X020333Y006001D01*
X020311Y005963D02*
X031344Y005963D01*
X031342Y005924D02*
X020272Y005924D01*
X019798Y005924D02*
X019682Y005924D01*
X019720Y005963D02*
X019760Y005963D01*
X019500Y005886D02*
X031309Y005886D01*
X031260Y005847D02*
X019500Y005847D01*
X019500Y005809D02*
X031168Y005809D01*
X031874Y007849D02*
X016215Y007849D01*
X016176Y007888D02*
X031944Y007888D01*
X032029Y007926D02*
X016084Y007926D01*
X015695Y007464D02*
X009483Y007464D01*
X009504Y007426D02*
X015711Y007426D01*
X015749Y007387D02*
X009520Y007387D01*
X009535Y007349D02*
X015787Y007349D01*
X015857Y007310D02*
X009549Y007310D01*
X009412Y007580D02*
X015166Y007580D01*
X015127Y007618D02*
X009383Y007618D01*
X009354Y007657D02*
X015089Y007657D01*
X015050Y007695D02*
X009316Y007695D01*
X009277Y007734D02*
X015012Y007734D01*
X014973Y007772D02*
X009233Y007772D01*
X009182Y007811D02*
X014935Y007811D01*
X014896Y007849D02*
X009126Y007849D01*
X009056Y007888D02*
X014858Y007888D01*
X014819Y007926D02*
X008971Y007926D01*
X008859Y007965D02*
X014810Y007965D01*
X014810Y008003D02*
X008683Y008003D01*
X008546Y008042D02*
X014810Y008042D01*
X014810Y008080D02*
X008215Y008080D01*
X008207Y008080D02*
X007558Y008080D01*
X007514Y008119D02*
X014810Y008119D01*
X014810Y008157D02*
X007481Y008157D01*
X007454Y008196D02*
X014810Y008196D01*
X014810Y008234D02*
X007435Y008234D01*
X007420Y008273D02*
X014810Y008273D01*
X014810Y008311D02*
X009544Y008311D01*
X009493Y008290D02*
X009685Y008369D01*
X009831Y008515D01*
X009910Y008707D01*
X009910Y008913D01*
X009831Y009105D01*
X009685Y009251D01*
X009493Y009330D01*
X008687Y009330D01*
X008495Y009251D01*
X008349Y009105D01*
X008270Y008913D01*
X008270Y008707D01*
X008349Y008515D01*
X008495Y008369D01*
X008687Y008290D01*
X009493Y008290D01*
X009637Y008350D02*
X014810Y008350D01*
X014810Y008388D02*
X009703Y008388D01*
X009742Y008427D02*
X014810Y008427D01*
X014810Y008465D02*
X009780Y008465D01*
X009819Y008504D02*
X014810Y008504D01*
X014810Y008542D02*
X009842Y008542D01*
X009858Y008581D02*
X014810Y008581D01*
X014810Y008619D02*
X009874Y008619D01*
X009890Y008658D02*
X014810Y008658D01*
X014810Y008696D02*
X009906Y008696D01*
X009910Y008735D02*
X014810Y008735D01*
X014810Y008773D02*
X009910Y008773D01*
X009910Y008812D02*
X014810Y008812D01*
X014810Y008850D02*
X009910Y008850D01*
X009910Y008889D02*
X014810Y008889D01*
X014810Y008927D02*
X009904Y008927D01*
X009888Y008966D02*
X014810Y008966D01*
X014810Y009004D02*
X009872Y009004D01*
X009857Y009043D02*
X014810Y009043D01*
X014810Y009081D02*
X009841Y009081D01*
X009816Y009120D02*
X014810Y009120D01*
X014810Y009158D02*
X009777Y009158D01*
X009739Y009197D02*
X014810Y009197D01*
X014810Y009235D02*
X009700Y009235D01*
X009630Y009274D02*
X014810Y009274D01*
X014810Y009312D02*
X009537Y009312D01*
X009478Y009470D02*
X009639Y009537D01*
X009763Y009661D01*
X009830Y009822D01*
X009830Y009998D01*
X009763Y010159D01*
X014810Y010159D01*
X014810Y010121D02*
X009779Y010121D01*
X009763Y010159D02*
X009639Y010283D01*
X009478Y010350D01*
X008702Y010350D01*
X008541Y010283D01*
X008417Y010159D01*
X007400Y010159D01*
X007400Y010121D02*
X008401Y010121D01*
X008417Y010159D02*
X008350Y009998D01*
X008350Y009822D01*
X008417Y009661D01*
X008541Y009537D01*
X008702Y009470D01*
X009478Y009470D01*
X009561Y009505D02*
X014810Y009505D01*
X014810Y009543D02*
X009645Y009543D01*
X009684Y009582D02*
X014810Y009582D01*
X014810Y009620D02*
X009722Y009620D01*
X009761Y009659D02*
X014810Y009659D01*
X014810Y009697D02*
X009778Y009697D01*
X009794Y009736D02*
X014810Y009736D01*
X014810Y009774D02*
X009810Y009774D01*
X009826Y009813D02*
X014810Y009813D01*
X014810Y009851D02*
X009830Y009851D01*
X009830Y009890D02*
X014810Y009890D01*
X014810Y009928D02*
X009830Y009928D01*
X009830Y009967D02*
X014810Y009967D01*
X014810Y010005D02*
X009827Y010005D01*
X009811Y010044D02*
X014810Y010044D01*
X014810Y010082D02*
X009795Y010082D01*
X009725Y010198D02*
X014810Y010198D01*
X014810Y010236D02*
X009686Y010236D01*
X009648Y010275D02*
X014810Y010275D01*
X014810Y010313D02*
X009567Y010313D01*
X008613Y010313D02*
X007400Y010313D01*
X007400Y010275D02*
X008532Y010275D01*
X008494Y010236D02*
X007400Y010236D01*
X007400Y010198D02*
X008455Y010198D01*
X008385Y010082D02*
X007400Y010082D01*
X007400Y010044D02*
X008369Y010044D01*
X008353Y010005D02*
X007400Y010005D01*
X007400Y009967D02*
X008350Y009967D01*
X008350Y009928D02*
X007400Y009928D01*
X007400Y009890D02*
X008350Y009890D01*
X008350Y009851D02*
X007400Y009851D01*
X007400Y009813D02*
X008354Y009813D01*
X008370Y009774D02*
X007400Y009774D01*
X007400Y009736D02*
X008386Y009736D01*
X008402Y009697D02*
X007400Y009697D01*
X007400Y009659D02*
X008419Y009659D01*
X008458Y009620D02*
X007400Y009620D01*
X007400Y009582D02*
X008496Y009582D01*
X008535Y009543D02*
X007400Y009543D01*
X007400Y009505D02*
X008619Y009505D01*
X008643Y009312D02*
X007400Y009312D01*
X007400Y009274D02*
X008550Y009274D01*
X008480Y009235D02*
X007400Y009235D01*
X007400Y009197D02*
X008441Y009197D01*
X008403Y009158D02*
X007400Y009158D01*
X007400Y009120D02*
X008364Y009120D01*
X008339Y009081D02*
X007400Y009081D01*
X007400Y009043D02*
X008323Y009043D01*
X008308Y009004D02*
X007400Y009004D01*
X007400Y008966D02*
X008292Y008966D01*
X008276Y008927D02*
X007400Y008927D01*
X007400Y008889D02*
X008270Y008889D01*
X008270Y008850D02*
X007400Y008850D01*
X007400Y008812D02*
X008270Y008812D01*
X008270Y008773D02*
X007400Y008773D01*
X007400Y008735D02*
X008270Y008735D01*
X008274Y008696D02*
X007400Y008696D01*
X007400Y008658D02*
X008290Y008658D01*
X008306Y008619D02*
X007400Y008619D01*
X007400Y008581D02*
X008322Y008581D01*
X008338Y008542D02*
X007400Y008542D01*
X007400Y008504D02*
X008361Y008504D01*
X008400Y008465D02*
X007400Y008465D01*
X007400Y008427D02*
X008438Y008427D01*
X008477Y008388D02*
X007400Y008388D01*
X007404Y008350D02*
X008543Y008350D01*
X008636Y008311D02*
X007410Y008311D01*
X007400Y009351D02*
X014810Y009351D01*
X014810Y009389D02*
X007400Y009389D01*
X007400Y009428D02*
X014810Y009428D01*
X014810Y009466D02*
X007400Y009466D01*
X007400Y010352D02*
X014810Y010352D01*
X014810Y010390D02*
X007400Y010390D01*
X007400Y010429D02*
X014810Y010429D01*
X014810Y010467D02*
X007400Y010467D01*
X007400Y010506D02*
X014810Y010506D01*
X014801Y010544D02*
X007400Y010544D01*
X007400Y010583D02*
X014763Y010583D01*
X014724Y010621D02*
X007400Y010621D01*
X007400Y010660D02*
X014686Y010660D01*
X014926Y010929D02*
X026341Y010929D01*
X026303Y010968D02*
X014887Y010968D01*
X014920Y010935D02*
X014920Y010935D01*
X014964Y010891D02*
X026380Y010891D01*
X026418Y010852D02*
X015003Y010852D01*
X015041Y010814D02*
X026494Y010814D01*
X026431Y010839D02*
X026618Y010762D01*
X026821Y010762D01*
X027009Y010839D01*
X027152Y010983D01*
X027230Y011170D01*
X027230Y011373D01*
X027152Y011561D01*
X027009Y011704D01*
X026821Y011782D01*
X026618Y011782D01*
X026431Y011704D01*
X026288Y011561D01*
X026210Y011373D01*
X026210Y011170D01*
X026288Y010983D01*
X026431Y010839D01*
X026587Y010775D02*
X015080Y010775D01*
X015118Y010737D02*
X030257Y010737D01*
X030247Y010775D02*
X026853Y010775D01*
X026946Y010814D02*
X030236Y010814D01*
X030226Y010852D02*
X027021Y010852D01*
X027060Y010891D02*
X030216Y010891D01*
X030211Y010929D02*
X027098Y010929D01*
X027137Y010968D02*
X030206Y010968D01*
X030201Y011006D02*
X027162Y011006D01*
X027178Y011045D02*
X030197Y011045D01*
X030198Y011083D02*
X027194Y011083D01*
X027210Y011122D02*
X030198Y011122D01*
X030199Y011160D02*
X027226Y011160D01*
X027230Y011199D02*
X030200Y011199D01*
X030200Y011237D02*
X027230Y011237D01*
X027230Y011276D02*
X030200Y011276D01*
X030200Y011314D02*
X027230Y011314D01*
X027230Y011353D02*
X030200Y011353D01*
X030200Y011391D02*
X027223Y011391D01*
X027207Y011430D02*
X030204Y011430D01*
X030208Y011468D02*
X027191Y011468D01*
X027175Y011507D02*
X030213Y011507D01*
X030220Y011545D02*
X027159Y011545D01*
X027129Y011584D02*
X030230Y011584D01*
X030241Y011622D02*
X027091Y011622D01*
X027052Y011661D02*
X030251Y011661D01*
X030267Y011699D02*
X027014Y011699D01*
X026928Y011738D02*
X030284Y011738D01*
X030301Y011776D02*
X026835Y011776D01*
X026605Y011776D02*
X012670Y011776D01*
X012670Y011738D02*
X026512Y011738D01*
X026426Y011699D02*
X012670Y011699D01*
X012670Y011661D02*
X026387Y011661D01*
X026349Y011622D02*
X012670Y011622D01*
X012670Y011584D02*
X026310Y011584D01*
X026281Y011545D02*
X012670Y011545D01*
X012670Y011507D02*
X026265Y011507D01*
X026249Y011468D02*
X012670Y011468D01*
X012675Y011430D02*
X026233Y011430D01*
X026217Y011391D02*
X012714Y011391D01*
X012752Y011353D02*
X026210Y011353D01*
X026210Y011314D02*
X012791Y011314D01*
X012829Y011276D02*
X026210Y011276D01*
X026210Y011237D02*
X012868Y011237D01*
X012906Y011199D02*
X026210Y011199D01*
X026214Y011160D02*
X012945Y011160D01*
X012983Y011122D02*
X026230Y011122D01*
X026246Y011083D02*
X013022Y011083D01*
X013060Y011045D02*
X026262Y011045D01*
X026278Y011006D02*
X014849Y011006D01*
X015157Y010698D02*
X030273Y010698D01*
X030290Y010660D02*
X015170Y010660D01*
X015170Y010621D02*
X030307Y010621D01*
X030325Y010583D02*
X015170Y010583D01*
X015170Y010544D02*
X030349Y010544D01*
X030372Y010506D02*
X015170Y010506D01*
X015170Y010467D02*
X030396Y010467D01*
X030425Y010429D02*
X015170Y010429D01*
X015170Y010390D02*
X030458Y010390D01*
X030490Y010352D02*
X015170Y010352D01*
X015170Y010313D02*
X030528Y010313D01*
X030570Y010275D02*
X015170Y010275D01*
X015170Y010236D02*
X030613Y010236D01*
X030668Y010198D02*
X015170Y010198D01*
X015170Y010159D02*
X030725Y010159D01*
X030795Y010121D02*
X015170Y010121D01*
X015170Y010082D02*
X030875Y010082D01*
X030987Y010044D02*
X015170Y010044D01*
X015170Y010005D02*
X031169Y010005D01*
X033034Y010005D02*
X033172Y010005D01*
X033285Y009967D02*
X015170Y009967D01*
X015170Y009928D02*
X033347Y009928D01*
X033391Y009890D02*
X015170Y009890D01*
X015170Y009851D02*
X033426Y009851D01*
X033451Y009813D02*
X015170Y009813D01*
X015170Y009774D02*
X033474Y009774D01*
X033487Y009736D02*
X015170Y009736D01*
X015170Y009697D02*
X033500Y009697D01*
X033500Y009659D02*
X015170Y009659D01*
X015170Y009620D02*
X033500Y009620D01*
X033500Y009582D02*
X015170Y009582D01*
X015170Y009543D02*
X033500Y009543D01*
X033500Y009505D02*
X015170Y009505D01*
X015170Y009466D02*
X033500Y009466D01*
X033500Y009428D02*
X015170Y009428D01*
X015170Y009389D02*
X033500Y009389D01*
X033500Y009351D02*
X015170Y009351D01*
X015170Y009312D02*
X033500Y009312D01*
X033500Y009274D02*
X015170Y009274D01*
X015170Y009235D02*
X033500Y009235D01*
X033500Y009197D02*
X015170Y009197D01*
X015170Y009158D02*
X033500Y009158D01*
X033500Y009120D02*
X015170Y009120D01*
X015170Y009081D02*
X033500Y009081D01*
X033500Y009043D02*
X015170Y009043D01*
X015170Y009004D02*
X033500Y009004D01*
X033500Y008966D02*
X015170Y008966D01*
X015170Y008927D02*
X033500Y008927D01*
X033500Y008889D02*
X015170Y008889D01*
X015170Y008850D02*
X033500Y008850D01*
X033500Y008812D02*
X015170Y008812D01*
X015170Y008773D02*
X033500Y008773D01*
X033500Y008735D02*
X015170Y008735D01*
X015170Y008696D02*
X033500Y008696D01*
X033500Y008658D02*
X015170Y008658D01*
X015170Y008619D02*
X033500Y008619D01*
X033500Y008581D02*
X015170Y008581D01*
X015170Y008542D02*
X033500Y008542D01*
X033500Y008504D02*
X015170Y008504D01*
X015170Y008465D02*
X033497Y008465D01*
X033494Y008427D02*
X015170Y008427D01*
X015170Y008388D02*
X033486Y008388D01*
X033475Y008350D02*
X015170Y008350D01*
X015170Y008311D02*
X033461Y008311D01*
X033444Y008273D02*
X015170Y008273D01*
X015170Y008234D02*
X033422Y008234D01*
X033395Y008196D02*
X015170Y008196D01*
X015170Y008157D02*
X033361Y008157D01*
X033323Y008119D02*
X015170Y008119D01*
X015175Y008080D02*
X032706Y008080D01*
X032714Y008080D02*
X033269Y008080D01*
X032375Y008042D02*
X015213Y008042D01*
X015252Y008003D02*
X032238Y008003D01*
X032129Y007965D02*
X015290Y007965D01*
X014967Y006540D02*
X009824Y006540D01*
X009976Y006502D02*
X014928Y006502D01*
X019098Y006771D02*
X024202Y006771D01*
X024164Y006733D02*
X019136Y006733D01*
X019175Y006694D02*
X024125Y006694D01*
X024087Y006656D02*
X019213Y006656D01*
X019252Y006617D02*
X024048Y006617D01*
X024010Y006579D02*
X019290Y006579D01*
X019329Y006540D02*
X023971Y006540D01*
X023933Y006502D02*
X019367Y006502D01*
X019695Y006463D02*
X019785Y006463D01*
X019747Y006425D02*
X019733Y006425D01*
X012897Y010698D02*
X007400Y010698D01*
X007400Y010737D02*
X012859Y010737D01*
X012820Y010775D02*
X007400Y010775D01*
X007400Y010814D02*
X012782Y010814D01*
X012743Y010852D02*
X007400Y010852D01*
X007400Y010891D02*
X012705Y010891D01*
X012666Y010929D02*
X007400Y010929D01*
X007400Y010968D02*
X012628Y010968D01*
X012589Y011006D02*
X007400Y011006D01*
X007400Y011045D02*
X012551Y011045D01*
X012512Y011083D02*
X007400Y011083D01*
X007400Y011122D02*
X012474Y011122D01*
X012435Y011160D02*
X007400Y011160D01*
X007400Y011199D02*
X012397Y011199D01*
X012358Y011237D02*
X007400Y011237D01*
X007400Y011276D02*
X012320Y011276D01*
X012310Y011314D02*
X010633Y011314D01*
X010676Y011332D02*
X010768Y011424D01*
X010818Y011545D01*
X012310Y011545D01*
X012310Y011507D02*
X010802Y011507D01*
X010818Y011545D02*
X010818Y011675D01*
X010768Y011796D01*
X010766Y011798D01*
X011142Y011798D01*
X011224Y011880D01*
X011224Y012299D01*
X011384Y012299D01*
X011425Y012282D01*
X011555Y012282D01*
X011676Y012332D01*
X011768Y012424D01*
X011818Y012545D01*
X011818Y012675D01*
X011768Y012796D01*
X011704Y012860D01*
X011768Y012924D01*
X011818Y013045D01*
X011818Y013175D01*
X011768Y013296D01*
X011676Y013388D01*
X011568Y013433D01*
X011669Y013534D01*
X011675Y013532D01*
X011805Y013532D01*
X011926Y013582D01*
X012018Y013674D01*
X012068Y013795D01*
X012068Y013925D01*
X012018Y014046D01*
X011926Y014138D01*
X011805Y014188D01*
X011675Y014188D01*
X011554Y014138D01*
X011462Y014046D01*
X011412Y013925D01*
X011412Y013795D01*
X011414Y013789D01*
X011161Y013535D01*
X011142Y013554D01*
X009452Y013554D01*
X009430Y013532D01*
X009430Y013781D01*
X009433Y013785D01*
X009452Y013766D01*
X011142Y013766D01*
X011224Y013848D01*
X011224Y014259D01*
X011142Y014341D01*
X009452Y014341D01*
X009370Y014259D01*
X009370Y014244D01*
X009355Y014244D01*
X009161Y014050D01*
X009050Y013939D01*
X009050Y012281D01*
X009300Y012031D01*
X009370Y011962D01*
X009370Y011880D01*
X009452Y011798D01*
X010057Y011798D01*
X010057Y011755D01*
X010094Y011667D01*
X010162Y011599D01*
X010162Y011545D01*
X007400Y011545D01*
X007400Y011507D02*
X010178Y011507D01*
X010162Y011545D02*
X010212Y011424D01*
X010304Y011332D01*
X010425Y011282D01*
X010555Y011282D01*
X010676Y011332D01*
X010697Y011353D02*
X012310Y011353D01*
X012310Y011391D02*
X010735Y011391D01*
X010770Y011430D02*
X012310Y011430D01*
X012310Y011468D02*
X010786Y011468D01*
X010818Y011584D02*
X012310Y011584D01*
X012310Y011622D02*
X010818Y011622D01*
X010818Y011661D02*
X012310Y011661D01*
X012310Y011699D02*
X010808Y011699D01*
X010792Y011738D02*
X012310Y011738D01*
X012310Y011776D02*
X010776Y011776D01*
X011159Y011815D02*
X012310Y011815D01*
X012283Y011853D02*
X011198Y011853D01*
X011224Y011892D02*
X012244Y011892D01*
X012209Y011930D02*
X011224Y011930D01*
X011224Y011969D02*
X012193Y011969D01*
X012178Y012007D02*
X011224Y012007D01*
X011224Y012046D02*
X012162Y012046D01*
X012162Y012084D02*
X011224Y012084D01*
X011224Y012123D02*
X012162Y012123D01*
X012162Y012161D02*
X011224Y012161D01*
X011224Y012200D02*
X012172Y012200D01*
X012188Y012238D02*
X011224Y012238D01*
X011224Y012277D02*
X012204Y012277D01*
X012231Y012315D02*
X011635Y012315D01*
X011698Y012354D02*
X012270Y012354D01*
X012314Y012392D02*
X011736Y012392D01*
X011771Y012431D02*
X012406Y012431D01*
X012574Y012431D02*
X018594Y012431D01*
X018605Y012403D02*
X018703Y012305D01*
X018831Y012252D01*
X018969Y012252D01*
X019097Y012305D01*
X019195Y012403D01*
X019248Y012531D01*
X019248Y012669D01*
X019195Y012797D01*
X019097Y012895D01*
X019007Y012932D01*
X018307Y013632D01*
X018348Y013731D01*
X018348Y013869D01*
X018295Y013997D01*
X018197Y014095D01*
X018069Y014148D01*
X017931Y014148D01*
X017803Y014095D01*
X017705Y013997D01*
X017652Y013869D01*
X017652Y013731D01*
X017705Y013603D01*
X017763Y013545D01*
X017797Y013464D01*
X017864Y013397D01*
X018564Y012697D01*
X018552Y012669D01*
X018552Y012531D01*
X018605Y012403D01*
X018616Y012392D02*
X012666Y012392D01*
X012710Y012354D02*
X018655Y012354D01*
X018693Y012315D02*
X012749Y012315D01*
X012776Y012277D02*
X018772Y012277D01*
X019028Y012277D02*
X030936Y012277D01*
X030931Y012315D02*
X019107Y012315D01*
X019145Y012354D02*
X030882Y012354D01*
X030844Y012392D02*
X019184Y012392D01*
X019206Y012431D02*
X030815Y012431D01*
X030799Y012469D02*
X019222Y012469D01*
X019238Y012508D02*
X030783Y012508D01*
X030772Y012546D02*
X019248Y012546D01*
X019248Y012585D02*
X030772Y012585D01*
X030772Y012623D02*
X019248Y012623D01*
X019248Y012662D02*
X030772Y012662D01*
X030786Y012700D02*
X019235Y012700D01*
X019219Y012739D02*
X029095Y012739D01*
X029135Y012722D02*
X029265Y012722D01*
X029386Y012772D01*
X029478Y012864D01*
X029528Y012985D01*
X029528Y013115D01*
X029478Y013236D01*
X029430Y013284D01*
X029430Y013325D01*
X029325Y013430D01*
X028734Y014020D01*
X028778Y014064D01*
X028828Y014185D01*
X028828Y014315D01*
X028778Y014436D01*
X028686Y014528D01*
X028565Y014578D01*
X028435Y014578D01*
X028314Y014528D01*
X028222Y014436D01*
X028172Y014315D01*
X028172Y014185D01*
X028222Y014064D01*
X028314Y013972D01*
X028320Y013969D01*
X028320Y013925D01*
X028966Y013280D01*
X028922Y013236D01*
X028872Y013115D01*
X028872Y012985D01*
X028922Y012864D01*
X029014Y012772D01*
X029135Y012722D01*
X029009Y012777D02*
X019203Y012777D01*
X019176Y012816D02*
X028970Y012816D01*
X028932Y012854D02*
X019138Y012854D01*
X019099Y012893D02*
X028910Y012893D01*
X028894Y012931D02*
X019010Y012931D01*
X018970Y012970D02*
X028878Y012970D01*
X028872Y013008D02*
X018931Y013008D01*
X018893Y013047D02*
X028872Y013047D01*
X028872Y013085D02*
X018854Y013085D01*
X018816Y013124D02*
X028875Y013124D01*
X028891Y013162D02*
X018777Y013162D01*
X018739Y013201D02*
X028907Y013201D01*
X028925Y013239D02*
X018700Y013239D01*
X018662Y013278D02*
X028964Y013278D01*
X028929Y013316D02*
X018623Y013316D01*
X018585Y013355D02*
X028891Y013355D01*
X028852Y013393D02*
X018546Y013393D01*
X018508Y013432D02*
X028814Y013432D01*
X028775Y013470D02*
X018469Y013470D01*
X018431Y013509D02*
X024260Y013509D01*
X024204Y013532D02*
X024325Y013482D01*
X024455Y013482D01*
X024576Y013532D01*
X024668Y013624D01*
X028621Y013624D01*
X028583Y013663D02*
X024684Y013663D01*
X024700Y013701D02*
X028544Y013701D01*
X028506Y013740D02*
X024716Y013740D01*
X024718Y013745D02*
X024718Y013875D01*
X024668Y013996D01*
X024576Y014088D01*
X024455Y014138D01*
X024325Y014138D01*
X024316Y014134D01*
X023618Y014768D01*
X023618Y014875D01*
X023568Y014996D01*
X023476Y015088D01*
X023355Y015138D01*
X023225Y015138D01*
X023104Y015088D01*
X023012Y014996D01*
X022962Y014875D01*
X022962Y014745D01*
X023012Y014624D01*
X023104Y014532D01*
X023225Y014482D01*
X023355Y014482D01*
X023364Y014486D01*
X024062Y013852D01*
X024062Y013745D01*
X024112Y013624D01*
X018315Y013624D01*
X018320Y013663D02*
X024096Y013663D01*
X024080Y013701D02*
X018335Y013701D01*
X018348Y013740D02*
X024064Y013740D01*
X024062Y013778D02*
X018348Y013778D01*
X018348Y013817D02*
X024062Y013817D01*
X024058Y013855D02*
X018348Y013855D01*
X018338Y013894D02*
X024016Y013894D01*
X023973Y013932D02*
X018322Y013932D01*
X018306Y013971D02*
X023931Y013971D01*
X023889Y014009D02*
X018283Y014009D01*
X018244Y014048D02*
X023846Y014048D01*
X023804Y014086D02*
X018206Y014086D01*
X018125Y014125D02*
X023762Y014125D01*
X023719Y014163D02*
X011866Y014163D01*
X011939Y014125D02*
X017875Y014125D01*
X017794Y014086D02*
X011978Y014086D01*
X012016Y014048D02*
X017756Y014048D01*
X017717Y014009D02*
X012033Y014009D01*
X012049Y013971D02*
X017694Y013971D01*
X017678Y013932D02*
X012065Y013932D01*
X012068Y013894D02*
X017662Y013894D01*
X017652Y013855D02*
X012068Y013855D01*
X012068Y013817D02*
X017652Y013817D01*
X017652Y013778D02*
X012061Y013778D01*
X012045Y013740D02*
X017652Y013740D01*
X017665Y013701D02*
X012029Y013701D01*
X012007Y013663D02*
X017680Y013663D01*
X017696Y013624D02*
X011968Y013624D01*
X011930Y013586D02*
X017723Y013586D01*
X017761Y013547D02*
X011842Y013547D01*
X011643Y013509D02*
X017778Y013509D01*
X017794Y013470D02*
X011605Y013470D01*
X011571Y013432D02*
X017829Y013432D01*
X017868Y013393D02*
X011664Y013393D01*
X011709Y013355D02*
X017906Y013355D01*
X017945Y013316D02*
X011748Y013316D01*
X011776Y013278D02*
X017983Y013278D01*
X018022Y013239D02*
X011792Y013239D01*
X011808Y013201D02*
X018060Y013201D01*
X018099Y013162D02*
X011818Y013162D01*
X011818Y013124D02*
X018137Y013124D01*
X018176Y013085D02*
X011818Y013085D01*
X011818Y013047D02*
X018214Y013047D01*
X018253Y013008D02*
X011803Y013008D01*
X011787Y012970D02*
X018291Y012970D01*
X018330Y012931D02*
X011771Y012931D01*
X011737Y012893D02*
X018368Y012893D01*
X018407Y012854D02*
X011710Y012854D01*
X011748Y012816D02*
X018445Y012816D01*
X018484Y012777D02*
X011776Y012777D01*
X011792Y012739D02*
X018522Y012739D01*
X018561Y012700D02*
X011808Y012700D01*
X011818Y012662D02*
X018552Y012662D01*
X018552Y012623D02*
X011818Y012623D01*
X011818Y012585D02*
X018552Y012585D01*
X018552Y012546D02*
X011818Y012546D01*
X011803Y012508D02*
X018562Y012508D01*
X018578Y012469D02*
X011787Y012469D01*
X012792Y012238D02*
X030811Y012238D01*
X030727Y012200D02*
X012808Y012200D01*
X012818Y012161D02*
X030656Y012161D01*
X030598Y012123D02*
X012818Y012123D01*
X012818Y012084D02*
X030547Y012084D01*
X030504Y012046D02*
X012818Y012046D01*
X012802Y012007D02*
X030462Y012007D01*
X030430Y011969D02*
X012787Y011969D01*
X012771Y011930D02*
X030398Y011930D01*
X030369Y011892D02*
X012736Y011892D01*
X012697Y011853D02*
X030345Y011853D01*
X030322Y011815D02*
X012670Y011815D01*
X010347Y011314D02*
X007400Y011314D01*
X007400Y011353D02*
X010283Y011353D01*
X010245Y011391D02*
X007400Y011391D01*
X007400Y011430D02*
X010210Y011430D01*
X010194Y011468D02*
X007400Y011468D01*
X007400Y011584D02*
X010162Y011584D01*
X010139Y011622D02*
X007400Y011622D01*
X007400Y011661D02*
X010100Y011661D01*
X010080Y011699D02*
X007400Y011699D01*
X007400Y011738D02*
X010064Y011738D01*
X010057Y011776D02*
X007400Y011776D01*
X007400Y011815D02*
X009435Y011815D01*
X009396Y011853D02*
X007400Y011853D01*
X007400Y011892D02*
X009370Y011892D01*
X009370Y011930D02*
X007400Y011930D01*
X007400Y011969D02*
X009363Y011969D01*
X009324Y012007D02*
X007400Y012007D01*
X007400Y012046D02*
X009286Y012046D01*
X009247Y012084D02*
X007400Y012084D01*
X007400Y012123D02*
X009209Y012123D01*
X009170Y012161D02*
X007400Y012161D01*
X007400Y012200D02*
X009132Y012200D01*
X009093Y012238D02*
X007400Y012238D01*
X007400Y012277D02*
X009055Y012277D01*
X009050Y012315D02*
X007400Y012315D01*
X007400Y012354D02*
X009050Y012354D01*
X009050Y012392D02*
X007400Y012392D01*
X007400Y012431D02*
X009050Y012431D01*
X009050Y012469D02*
X007400Y012469D01*
X007400Y012508D02*
X009050Y012508D01*
X009050Y012546D02*
X007400Y012546D01*
X007400Y012585D02*
X009050Y012585D01*
X009050Y012623D02*
X007400Y012623D01*
X007400Y012662D02*
X009050Y012662D01*
X009050Y012700D02*
X007400Y012700D01*
X007400Y012739D02*
X009050Y012739D01*
X009050Y012777D02*
X007400Y012777D01*
X007400Y012816D02*
X008343Y012816D01*
X008282Y012854D02*
X007400Y012854D01*
X007400Y012893D02*
X008243Y012893D01*
X008209Y012931D02*
X007400Y012931D01*
X007400Y012970D02*
X008193Y012970D01*
X008177Y013008D02*
X007400Y013008D01*
X007400Y013047D02*
X008162Y013047D01*
X008162Y013085D02*
X007400Y013085D01*
X007400Y013124D02*
X008162Y013124D01*
X008162Y013162D02*
X007400Y013162D01*
X007400Y013201D02*
X008172Y013201D01*
X008188Y013239D02*
X007400Y013239D01*
X007400Y013278D02*
X008204Y013278D01*
X008232Y013316D02*
X007400Y013316D01*
X007400Y013355D02*
X008271Y013355D01*
X008310Y013393D02*
X007400Y013393D01*
X007400Y013432D02*
X008310Y013432D01*
X008310Y013470D02*
X007400Y013470D01*
X007400Y013509D02*
X008310Y013509D01*
X008298Y013547D02*
X007400Y013547D01*
X007400Y013586D02*
X008260Y013586D01*
X008221Y013624D02*
X007400Y013624D01*
X007400Y013663D02*
X008183Y013663D01*
X008144Y013701D02*
X007400Y013701D01*
X007400Y013740D02*
X008106Y013740D01*
X008067Y013778D02*
X007400Y013778D01*
X007400Y013817D02*
X008029Y013817D01*
X007990Y013855D02*
X007400Y013855D01*
X007400Y013894D02*
X007952Y013894D01*
X007913Y013932D02*
X007400Y013932D01*
X007400Y013971D02*
X007875Y013971D01*
X007836Y014009D02*
X007400Y014009D01*
X007400Y014048D02*
X007798Y014048D01*
X007759Y014086D02*
X007400Y014086D01*
X007400Y014125D02*
X007721Y014125D01*
X007682Y014163D02*
X007400Y014163D01*
X007400Y014202D02*
X007644Y014202D01*
X007605Y014240D02*
X007400Y014240D01*
X007400Y014279D02*
X007567Y014279D01*
X007560Y014317D02*
X007400Y014317D01*
X007400Y014356D02*
X007560Y014356D01*
X007560Y014394D02*
X007400Y014394D01*
X007400Y014433D02*
X007560Y014433D01*
X007560Y014471D02*
X007400Y014471D01*
X007400Y014510D02*
X007560Y014510D01*
X007560Y014548D02*
X007400Y014548D01*
X007400Y014587D02*
X007560Y014587D01*
X007560Y014625D02*
X007400Y014625D01*
X007400Y014664D02*
X007560Y014664D01*
X007560Y014702D02*
X007400Y014702D01*
X007400Y014741D02*
X007560Y014741D01*
X007560Y014779D02*
X007400Y014779D01*
X007400Y014818D02*
X007560Y014818D01*
X007560Y014856D02*
X007400Y014856D01*
X007400Y014895D02*
X007560Y014895D01*
X007560Y014933D02*
X007400Y014933D01*
X007400Y014972D02*
X007560Y014972D01*
X007560Y015010D02*
X007400Y015010D01*
X007400Y015049D02*
X007560Y015049D01*
X007560Y015087D02*
X007400Y015087D01*
X007400Y015126D02*
X007560Y015126D01*
X007560Y015164D02*
X007400Y015164D01*
X007400Y015203D02*
X007560Y015203D01*
X007560Y015241D02*
X007400Y015241D01*
X007400Y015280D02*
X007560Y015280D01*
X007560Y015318D02*
X007400Y015318D01*
X007400Y015357D02*
X007560Y015357D01*
X007560Y015395D02*
X007400Y015395D01*
X007400Y015434D02*
X007560Y015434D01*
X007560Y015472D02*
X007400Y015472D01*
X007400Y015511D02*
X007560Y015511D01*
X007560Y015549D02*
X007400Y015549D01*
X007400Y015588D02*
X007560Y015588D01*
X007560Y015626D02*
X007400Y015626D01*
X007400Y015665D02*
X007560Y015665D01*
X007560Y015703D02*
X007400Y015703D01*
X007400Y015742D02*
X007560Y015742D01*
X007560Y015780D02*
X007400Y015780D01*
X007400Y015819D02*
X007560Y015819D01*
X007560Y015857D02*
X007400Y015857D01*
X007400Y015896D02*
X007560Y015896D01*
X007560Y015934D02*
X007400Y015934D01*
X007400Y015973D02*
X007560Y015973D01*
X007560Y016011D02*
X007400Y016011D01*
X007400Y016050D02*
X007560Y016050D01*
X007560Y016088D02*
X007400Y016088D01*
X007400Y016127D02*
X007560Y016127D01*
X007560Y016165D02*
X007400Y016165D01*
X007400Y016204D02*
X007560Y016204D01*
X007560Y016242D02*
X007400Y016242D01*
X007400Y016281D02*
X007560Y016281D01*
X007560Y016319D02*
X007400Y016319D01*
X007400Y016358D02*
X007560Y016358D01*
X007560Y016396D02*
X007400Y016396D01*
X007400Y016435D02*
X007560Y016435D01*
X007560Y016473D02*
X007400Y016473D01*
X007400Y016512D02*
X007560Y016512D01*
X007560Y016550D02*
X007400Y016550D01*
X007400Y016589D02*
X007560Y016589D01*
X007560Y016627D02*
X007400Y016627D01*
X007400Y016666D02*
X007560Y016666D01*
X007560Y016704D02*
X007400Y016704D01*
X007400Y016743D02*
X007560Y016743D01*
X007560Y016781D02*
X007400Y016781D01*
X007400Y016820D02*
X007560Y016820D01*
X007560Y016858D02*
X007400Y016858D01*
X007400Y016897D02*
X007560Y016897D01*
X007560Y016935D02*
X007400Y016935D01*
X007400Y016974D02*
X007560Y016974D01*
X007560Y017012D02*
X007400Y017012D01*
X007400Y017051D02*
X007560Y017051D01*
X007560Y017089D02*
X007400Y017089D01*
X007400Y017128D02*
X007560Y017128D01*
X007560Y017166D02*
X007400Y017166D01*
X007400Y017205D02*
X007560Y017205D01*
X007560Y017243D02*
X007400Y017243D01*
X007400Y017282D02*
X007560Y017282D01*
X007560Y017320D02*
X007400Y017320D01*
X007400Y017359D02*
X007560Y017359D01*
X007560Y017397D02*
X007400Y017397D01*
X007400Y017436D02*
X007560Y017436D01*
X007560Y017474D02*
X007400Y017474D01*
X007400Y017513D02*
X007560Y017513D01*
X007560Y017551D02*
X007400Y017551D01*
X007400Y017590D02*
X007560Y017590D01*
X007560Y017628D02*
X007400Y017628D01*
X007400Y017667D02*
X007560Y017667D01*
X007560Y017705D02*
X007400Y017705D01*
X007400Y017744D02*
X007560Y017744D01*
X007560Y017782D02*
X007400Y017782D01*
X007400Y017821D02*
X007560Y017821D01*
X007560Y017859D02*
X007400Y017859D01*
X007400Y017898D02*
X007560Y017898D01*
X007560Y017936D02*
X007400Y017936D01*
X007400Y017975D02*
X007560Y017975D01*
X007560Y018013D02*
X007400Y018013D01*
X007400Y018052D02*
X007560Y018052D01*
X007560Y018090D02*
X007400Y018090D01*
X007400Y018129D02*
X007560Y018129D01*
X007560Y018167D02*
X007400Y018167D01*
X007400Y018206D02*
X007560Y018206D01*
X007560Y018244D02*
X007400Y018244D01*
X007400Y018283D02*
X007560Y018283D01*
X007560Y018321D02*
X007400Y018321D01*
X007400Y018360D02*
X007560Y018360D01*
X007560Y018398D02*
X007400Y018398D01*
X007400Y018437D02*
X007560Y018437D01*
X007560Y018475D02*
X007400Y018475D01*
X007400Y018514D02*
X007560Y018514D01*
X007560Y018552D02*
X007400Y018552D01*
X007400Y018591D02*
X007560Y018591D01*
X007560Y018629D02*
X007400Y018629D01*
X007400Y018668D02*
X007560Y018668D01*
X007582Y018706D02*
X007400Y018706D01*
X007400Y018745D02*
X007620Y018745D01*
X007659Y018783D02*
X007400Y018783D01*
X007400Y018822D02*
X007697Y018822D01*
X007736Y018860D02*
X007400Y018860D01*
X007400Y018899D02*
X007774Y018899D01*
X007813Y018937D02*
X007403Y018937D01*
X007406Y018976D02*
X007851Y018976D01*
X007890Y019014D02*
X007417Y019014D01*
X007429Y019053D02*
X008928Y019053D01*
X008967Y019091D02*
X007447Y019091D01*
X007471Y019130D02*
X009005Y019130D01*
X009044Y019168D02*
X007501Y019168D01*
X007539Y019207D02*
X009082Y019207D01*
X009121Y019245D02*
X008526Y019245D01*
X008679Y019284D02*
X009159Y019284D01*
X009198Y019322D02*
X008784Y019322D01*
X008855Y019361D02*
X009236Y019361D01*
X009275Y019399D02*
X008938Y019399D01*
X009002Y019438D02*
X009310Y019438D01*
X009310Y019476D02*
X009064Y019476D01*
X009115Y019515D02*
X009310Y019515D01*
X009310Y019553D02*
X009164Y019553D01*
X009202Y019592D02*
X009310Y019592D01*
X009310Y019630D02*
X009241Y019630D01*
X009273Y019669D02*
X009310Y019669D01*
X009302Y019707D02*
X009310Y019707D01*
X009670Y019707D02*
X010186Y019707D01*
X010224Y019669D02*
X009670Y019669D01*
X009670Y019630D02*
X010263Y019630D01*
X010264Y019592D02*
X009670Y019592D01*
X009670Y019553D02*
X010226Y019553D01*
X010187Y019515D02*
X009670Y019515D01*
X009670Y019476D02*
X010149Y019476D01*
X010110Y019438D02*
X009670Y019438D01*
X009670Y019399D02*
X010072Y019399D01*
X010033Y019361D02*
X009670Y019361D01*
X009670Y019322D02*
X009995Y019322D01*
X009990Y019284D02*
X009668Y019284D01*
X009630Y019245D02*
X009990Y019245D01*
X009990Y019207D02*
X009591Y019207D01*
X009553Y019168D02*
X009990Y019168D01*
X009990Y019130D02*
X009514Y019130D01*
X009476Y019091D02*
X009990Y019091D01*
X009990Y019053D02*
X009437Y019053D01*
X009399Y019014D02*
X009990Y019014D01*
X009990Y018976D02*
X009360Y018976D01*
X009322Y018937D02*
X009990Y018937D01*
X009994Y018899D02*
X009283Y018899D01*
X009245Y018860D02*
X010033Y018860D01*
X010071Y018822D02*
X009206Y018822D01*
X009168Y018783D02*
X010110Y018783D01*
X010148Y018745D02*
X009129Y018745D01*
X009091Y018706D02*
X010187Y018706D01*
X010225Y018668D02*
X008052Y018668D01*
X008014Y018629D02*
X010264Y018629D01*
X010263Y018591D02*
X007975Y018591D01*
X007937Y018552D02*
X010225Y018552D01*
X010186Y018514D02*
X007920Y018514D01*
X007920Y018475D02*
X010148Y018475D01*
X010109Y018437D02*
X007920Y018437D01*
X007920Y018398D02*
X010071Y018398D01*
X010032Y018360D02*
X007920Y018360D01*
X007920Y018321D02*
X009994Y018321D01*
X009990Y018283D02*
X007920Y018283D01*
X007920Y018244D02*
X009990Y018244D01*
X009990Y018206D02*
X007920Y018206D01*
X007920Y018167D02*
X009990Y018167D01*
X009990Y018129D02*
X007920Y018129D01*
X007920Y018090D02*
X009990Y018090D01*
X009990Y018052D02*
X007920Y018052D01*
X007920Y018013D02*
X009990Y018013D01*
X009990Y017975D02*
X007920Y017975D01*
X007920Y017936D02*
X009990Y017936D01*
X009995Y017898D02*
X007920Y017898D01*
X007920Y017859D02*
X010034Y017859D01*
X010072Y017821D02*
X007920Y017821D01*
X007920Y017782D02*
X010111Y017782D01*
X010149Y017744D02*
X007920Y017744D01*
X007920Y017705D02*
X010188Y017705D01*
X010226Y017667D02*
X007920Y017667D01*
X007920Y017628D02*
X010265Y017628D01*
X010715Y017628D02*
X015008Y017628D01*
X015046Y017590D02*
X007920Y017590D01*
X007920Y017551D02*
X015128Y017551D01*
X015198Y017513D02*
X007920Y017513D01*
X007920Y017474D02*
X015182Y017474D01*
X015166Y017436D02*
X007920Y017436D01*
X007920Y017397D02*
X015162Y017397D01*
X015162Y017359D02*
X007920Y017359D01*
X007920Y017320D02*
X015162Y017320D01*
X015167Y017282D02*
X007920Y017282D01*
X007920Y017243D02*
X015183Y017243D01*
X015199Y017205D02*
X007920Y017205D01*
X007920Y017166D02*
X015220Y017166D01*
X015258Y017128D02*
X007920Y017128D01*
X007920Y017089D02*
X015297Y017089D01*
X015380Y017051D02*
X007920Y017051D01*
X007920Y017012D02*
X030848Y017012D01*
X030864Y017028D02*
X030772Y016936D01*
X030722Y016815D01*
X030722Y016685D01*
X030772Y016564D01*
X030864Y016472D01*
X030985Y016422D01*
X031115Y016422D01*
X031121Y016424D01*
X031575Y015970D01*
X031707Y015970D01*
X031740Y015937D01*
X031683Y015937D01*
X031601Y015855D01*
X031601Y015404D01*
X031366Y015639D01*
X031368Y015645D01*
X031368Y015775D01*
X031318Y015896D01*
X031226Y015988D01*
X031105Y016038D01*
X030975Y016038D01*
X030854Y015988D01*
X030762Y015896D01*
X030712Y015775D01*
X030712Y015645D01*
X030762Y015524D01*
X030854Y015432D01*
X030975Y015382D01*
X031105Y015382D01*
X031111Y015384D01*
X031575Y014920D01*
X031666Y014920D01*
X031601Y014855D01*
X031601Y014404D01*
X031366Y014639D01*
X031368Y014645D01*
X031368Y014775D01*
X031318Y014896D01*
X031226Y014988D01*
X031105Y015038D01*
X030975Y015038D01*
X030854Y014988D01*
X030762Y014896D01*
X030712Y014775D01*
X030712Y014645D01*
X030762Y014524D01*
X030854Y014432D01*
X030975Y014382D01*
X031105Y014382D01*
X031111Y014384D01*
X031575Y013920D01*
X031666Y013920D01*
X031601Y013855D01*
X031601Y013345D01*
X031683Y013263D01*
X032980Y013263D01*
X033062Y013345D01*
X033062Y013855D01*
X032980Y013937D01*
X032249Y013937D01*
X032011Y014175D01*
X031923Y014263D01*
X032980Y014263D01*
X033062Y014345D01*
X033062Y014855D01*
X032980Y014937D01*
X032249Y014937D01*
X032011Y015175D01*
X031923Y015263D01*
X032980Y015263D01*
X033062Y015345D01*
X033062Y015855D01*
X032980Y015937D01*
X032249Y015937D01*
X031961Y016225D01*
X031923Y016263D01*
X032980Y016263D01*
X033062Y016345D01*
X033062Y016855D01*
X032980Y016937D01*
X032249Y016937D01*
X032011Y017175D01*
X031923Y017263D01*
X032980Y017263D01*
X033062Y017345D01*
X033062Y017855D01*
X032980Y017937D01*
X032249Y017937D01*
X032011Y018175D01*
X031923Y018263D01*
X032980Y018263D01*
X033062Y018345D01*
X033062Y018855D01*
X032980Y018937D01*
X031818Y018937D01*
X030680Y020075D01*
X030680Y020575D01*
X030575Y020680D01*
X030325Y020930D01*
X024725Y020930D01*
X024620Y020825D01*
X023971Y020176D01*
X023965Y020178D01*
X023835Y020178D01*
X023714Y020128D01*
X023622Y020036D01*
X023572Y019915D01*
X023572Y019785D01*
X023622Y019664D01*
X023714Y019572D01*
X023835Y019522D01*
X023965Y019522D01*
X024086Y019572D01*
X024178Y019664D01*
X024228Y019785D01*
X024228Y019915D01*
X024226Y019921D01*
X024875Y020570D01*
X030175Y020570D01*
X030320Y020425D01*
X030320Y019925D01*
X031601Y018644D01*
X031601Y018404D01*
X031366Y018639D01*
X031368Y018645D01*
X031368Y018775D01*
X031318Y018896D01*
X031226Y018988D01*
X031105Y019038D01*
X030975Y019038D01*
X030854Y018988D01*
X030762Y018896D01*
X030712Y018775D01*
X030712Y018645D01*
X030762Y018524D01*
X030854Y018432D01*
X030975Y018382D01*
X031105Y018382D01*
X031111Y018384D01*
X031575Y017920D01*
X031666Y017920D01*
X031601Y017855D01*
X031601Y017404D01*
X031366Y017639D01*
X031368Y017645D01*
X031368Y017775D01*
X031318Y017896D01*
X031226Y017988D01*
X031105Y018038D01*
X030975Y018038D01*
X030854Y017988D01*
X030762Y017896D01*
X030712Y017775D01*
X030712Y017645D01*
X030762Y017524D01*
X030854Y017432D01*
X030975Y017382D01*
X031105Y017382D01*
X031111Y017384D01*
X031470Y017025D01*
X031575Y016920D01*
X031666Y016920D01*
X031601Y016855D01*
X031601Y016454D01*
X031376Y016679D01*
X031378Y016685D01*
X031378Y016815D01*
X031328Y016936D01*
X031236Y017028D01*
X031115Y017078D01*
X030985Y017078D01*
X030864Y017028D01*
X030918Y017051D02*
X015600Y017051D01*
X015683Y017089D02*
X031406Y017089D01*
X031368Y017128D02*
X015722Y017128D01*
X015760Y017166D02*
X031329Y017166D01*
X031291Y017205D02*
X015781Y017205D01*
X015797Y017243D02*
X031252Y017243D01*
X031214Y017282D02*
X015813Y017282D01*
X015818Y017320D02*
X031175Y017320D01*
X031137Y017359D02*
X015818Y017359D01*
X015818Y017397D02*
X030938Y017397D01*
X030850Y017436D02*
X015820Y017436D01*
X015859Y017474D02*
X030812Y017474D01*
X030773Y017513D02*
X015897Y017513D01*
X015920Y017551D02*
X030751Y017551D01*
X030735Y017590D02*
X027374Y017590D01*
X027355Y017582D02*
X027476Y017632D01*
X027564Y017720D01*
X027869Y017720D01*
X028481Y018332D01*
X028605Y018332D01*
X028726Y018382D01*
X028818Y018474D01*
X028868Y018595D01*
X028868Y018725D01*
X028818Y018846D01*
X028726Y018938D01*
X028605Y018988D01*
X028475Y018988D01*
X028354Y018938D01*
X028262Y018846D01*
X028212Y018725D01*
X028212Y018601D01*
X027711Y018100D01*
X027564Y018100D01*
X027476Y018188D01*
X027355Y018238D01*
X027225Y018238D01*
X027104Y018188D01*
X027012Y018096D01*
X026962Y017975D01*
X026962Y017845D01*
X027012Y017724D01*
X027104Y017632D01*
X027225Y017582D01*
X027355Y017582D01*
X027467Y017628D02*
X030719Y017628D01*
X030712Y017667D02*
X027511Y017667D01*
X027549Y017705D02*
X030712Y017705D01*
X030712Y017744D02*
X027892Y017744D01*
X027931Y017782D02*
X030715Y017782D01*
X030731Y017821D02*
X027969Y017821D01*
X028008Y017859D02*
X030747Y017859D01*
X030764Y017898D02*
X028046Y017898D01*
X028085Y017936D02*
X030802Y017936D01*
X030841Y017975D02*
X028123Y017975D01*
X028162Y018013D02*
X030914Y018013D01*
X031166Y018013D02*
X031482Y018013D01*
X031444Y018052D02*
X028200Y018052D01*
X028239Y018090D02*
X031405Y018090D01*
X031367Y018129D02*
X028277Y018129D01*
X028316Y018167D02*
X031328Y018167D01*
X031290Y018206D02*
X028354Y018206D01*
X028393Y018244D02*
X031251Y018244D01*
X031213Y018283D02*
X028431Y018283D01*
X028470Y018321D02*
X031174Y018321D01*
X031136Y018360D02*
X028672Y018360D01*
X028742Y018398D02*
X030936Y018398D01*
X030849Y018437D02*
X028781Y018437D01*
X028819Y018475D02*
X030811Y018475D01*
X030772Y018514D02*
X028834Y018514D01*
X028850Y018552D02*
X030750Y018552D01*
X030734Y018591D02*
X028866Y018591D01*
X028868Y018629D02*
X030718Y018629D01*
X030712Y018668D02*
X028868Y018668D01*
X028868Y018706D02*
X030712Y018706D01*
X030712Y018745D02*
X028860Y018745D01*
X028844Y018783D02*
X030715Y018783D01*
X030731Y018822D02*
X028828Y018822D01*
X028804Y018860D02*
X030747Y018860D01*
X030765Y018899D02*
X028765Y018899D01*
X028727Y018937D02*
X030803Y018937D01*
X030842Y018976D02*
X028635Y018976D01*
X028445Y018976D02*
X020547Y018976D01*
X020531Y019014D02*
X030917Y019014D01*
X031077Y019168D02*
X020420Y019168D01*
X020420Y019207D02*
X031039Y019207D01*
X031000Y019245D02*
X020420Y019245D01*
X020420Y019284D02*
X030962Y019284D01*
X030923Y019322D02*
X020420Y019322D01*
X020420Y019361D02*
X030885Y019361D01*
X030846Y019399D02*
X020420Y019399D01*
X020420Y019438D02*
X030808Y019438D01*
X030769Y019476D02*
X020420Y019476D01*
X020420Y019515D02*
X030731Y019515D01*
X030692Y019553D02*
X024041Y019553D01*
X024106Y019592D02*
X030654Y019592D01*
X030615Y019630D02*
X024144Y019630D01*
X024180Y019669D02*
X030577Y019669D01*
X030538Y019707D02*
X024196Y019707D01*
X024212Y019746D02*
X030500Y019746D01*
X030461Y019784D02*
X024228Y019784D01*
X024228Y019823D02*
X030423Y019823D01*
X030384Y019861D02*
X024228Y019861D01*
X024228Y019900D02*
X030346Y019900D01*
X030320Y019938D02*
X024243Y019938D01*
X024281Y019977D02*
X030320Y019977D01*
X030320Y020015D02*
X024320Y020015D01*
X024358Y020054D02*
X030320Y020054D01*
X030320Y020092D02*
X024397Y020092D01*
X024435Y020131D02*
X030320Y020131D01*
X030320Y020169D02*
X024474Y020169D01*
X024512Y020208D02*
X030320Y020208D01*
X030320Y020246D02*
X024551Y020246D01*
X024589Y020285D02*
X030320Y020285D01*
X030320Y020323D02*
X024628Y020323D01*
X024666Y020362D02*
X030320Y020362D01*
X030320Y020400D02*
X024705Y020400D01*
X024743Y020439D02*
X030307Y020439D01*
X030268Y020477D02*
X024782Y020477D01*
X024820Y020516D02*
X030230Y020516D01*
X030191Y020554D02*
X024859Y020554D01*
X024619Y020824D02*
X023498Y020824D01*
X023479Y020842D02*
X023291Y020920D01*
X023089Y020920D01*
X022901Y020842D01*
X022758Y020699D01*
X022690Y020536D01*
X022622Y020699D01*
X022479Y020842D01*
X022291Y020920D01*
X022089Y020920D01*
X021901Y020842D01*
X021758Y020699D01*
X021680Y020511D01*
X021680Y020309D01*
X021758Y020121D01*
X021901Y019978D01*
X022089Y019900D01*
X022291Y019900D01*
X022479Y019978D01*
X022622Y020121D01*
X022690Y020284D01*
X022758Y020121D01*
X022901Y019978D01*
X023089Y019900D01*
X023291Y019900D01*
X023479Y019978D01*
X023622Y020121D01*
X023700Y020309D01*
X023700Y020511D01*
X023622Y020699D01*
X023479Y020842D01*
X023431Y020862D02*
X024658Y020862D01*
X024696Y020901D02*
X023338Y020901D01*
X023536Y020785D02*
X024581Y020785D01*
X024542Y020747D02*
X023575Y020747D01*
X023613Y020708D02*
X024504Y020708D01*
X024465Y020670D02*
X023634Y020670D01*
X023650Y020631D02*
X024427Y020631D01*
X024388Y020593D02*
X023666Y020593D01*
X023682Y020554D02*
X024350Y020554D01*
X024311Y020516D02*
X023698Y020516D01*
X023700Y020477D02*
X024273Y020477D01*
X024234Y020439D02*
X023700Y020439D01*
X023700Y020400D02*
X024196Y020400D01*
X024157Y020362D02*
X023700Y020362D01*
X023700Y020323D02*
X024119Y020323D01*
X024080Y020285D02*
X023690Y020285D01*
X023674Y020246D02*
X024042Y020246D01*
X024003Y020208D02*
X023658Y020208D01*
X023642Y020169D02*
X023813Y020169D01*
X023720Y020131D02*
X023626Y020131D01*
X023593Y020092D02*
X023678Y020092D01*
X023640Y020054D02*
X023555Y020054D01*
X023516Y020015D02*
X023613Y020015D01*
X023597Y019977D02*
X023476Y019977D01*
X023383Y019938D02*
X023581Y019938D01*
X023572Y019900D02*
X020420Y019900D01*
X020420Y019938D02*
X021997Y019938D01*
X021904Y019977D02*
X020420Y019977D01*
X020420Y020015D02*
X021864Y020015D01*
X021825Y020054D02*
X020420Y020054D01*
X020420Y020092D02*
X021787Y020092D01*
X021754Y020131D02*
X020420Y020131D01*
X020420Y020169D02*
X021738Y020169D01*
X021722Y020208D02*
X020397Y020208D01*
X020358Y020246D02*
X021706Y020246D01*
X021690Y020285D02*
X020320Y020285D01*
X020281Y020323D02*
X021680Y020323D01*
X021680Y020362D02*
X020243Y020362D01*
X020204Y020400D02*
X021680Y020400D01*
X021680Y020439D02*
X020166Y020439D01*
X020127Y020477D02*
X021680Y020477D01*
X021682Y020516D02*
X020089Y020516D01*
X020120Y020485D02*
X020120Y020485D01*
X020050Y020554D02*
X021698Y020554D01*
X021714Y020593D02*
X019241Y020593D01*
X019280Y020631D02*
X021730Y020631D01*
X021746Y020670D02*
X019318Y020670D01*
X019500Y020708D02*
X021767Y020708D01*
X021805Y020747D02*
X019500Y020747D01*
X019500Y020785D02*
X021844Y020785D01*
X021882Y020824D02*
X019500Y020824D01*
X019670Y020862D02*
X019770Y020862D01*
X019732Y020901D02*
X019708Y020901D01*
X020260Y020862D02*
X021949Y020862D01*
X022042Y020901D02*
X020299Y020901D01*
X020313Y020939D02*
X030706Y020939D01*
X030735Y020901D02*
X030354Y020901D01*
X030392Y020862D02*
X030774Y020862D01*
X030824Y020824D02*
X030431Y020824D01*
X030469Y020785D02*
X030917Y020785D01*
X031063Y020785D02*
X031344Y020785D01*
X031344Y020747D02*
X030508Y020747D01*
X030546Y020708D02*
X031344Y020708D01*
X031344Y020670D02*
X030585Y020670D01*
X030623Y020631D02*
X031344Y020631D01*
X031344Y020593D02*
X030662Y020593D01*
X030680Y020554D02*
X031342Y020554D01*
X031344Y020516D02*
X030680Y020516D01*
X030680Y020400D02*
X031351Y020400D01*
X031354Y020362D02*
X030680Y020362D01*
X030680Y020323D02*
X031359Y020323D01*
X031371Y020285D02*
X030680Y020285D01*
X030680Y020246D02*
X031379Y020246D01*
X031381Y020208D02*
X030680Y020208D01*
X030680Y020169D02*
X031395Y020169D01*
X031404Y020131D02*
X030680Y020131D01*
X030680Y020092D02*
X031424Y020092D01*
X031433Y020054D02*
X030701Y020054D01*
X030739Y020015D02*
X031442Y020015D01*
X031456Y019977D02*
X030778Y019977D01*
X030816Y019938D02*
X031470Y019938D01*
X031485Y019900D02*
X030855Y019900D01*
X030893Y019861D02*
X031503Y019861D01*
X031524Y019823D02*
X030932Y019823D01*
X030970Y019784D02*
X031545Y019784D01*
X031569Y019746D02*
X031009Y019746D01*
X031047Y019707D02*
X031598Y019707D01*
X031627Y019669D02*
X031086Y019669D01*
X031124Y019630D02*
X031659Y019630D01*
X031698Y019592D02*
X031163Y019592D01*
X031201Y019553D02*
X031736Y019553D01*
X031785Y019515D02*
X031240Y019515D01*
X031278Y019476D02*
X031836Y019476D01*
X031898Y019438D02*
X031317Y019438D01*
X031355Y019399D02*
X031969Y019399D01*
X032064Y019361D02*
X031394Y019361D01*
X031432Y019322D02*
X032137Y019322D01*
X032242Y019284D02*
X031471Y019284D01*
X031509Y019245D02*
X032395Y019245D01*
X033018Y018899D02*
X033489Y018899D01*
X033495Y018860D02*
X033057Y018860D01*
X033062Y018822D02*
X033498Y018822D01*
X033500Y018783D02*
X033062Y018783D01*
X033062Y018745D02*
X033500Y018745D01*
X033500Y018706D02*
X033062Y018706D01*
X033062Y018668D02*
X033500Y018668D01*
X033500Y018629D02*
X033062Y018629D01*
X033062Y018591D02*
X033500Y018591D01*
X033500Y018552D02*
X033062Y018552D01*
X033062Y018514D02*
X033500Y018514D01*
X033500Y018475D02*
X033062Y018475D01*
X033062Y018437D02*
X033500Y018437D01*
X033500Y018398D02*
X033062Y018398D01*
X033062Y018360D02*
X033500Y018360D01*
X033500Y018321D02*
X033038Y018321D01*
X032999Y018283D02*
X033500Y018283D01*
X033500Y018244D02*
X031942Y018244D01*
X031980Y018206D02*
X033500Y018206D01*
X033500Y018167D02*
X032019Y018167D01*
X032057Y018129D02*
X033500Y018129D01*
X033500Y018090D02*
X032096Y018090D01*
X032134Y018052D02*
X033500Y018052D01*
X033500Y018013D02*
X032173Y018013D01*
X032211Y017975D02*
X033500Y017975D01*
X033500Y017936D02*
X032981Y017936D01*
X033019Y017898D02*
X033500Y017898D01*
X033500Y017859D02*
X033058Y017859D01*
X033062Y017821D02*
X033500Y017821D01*
X033500Y017782D02*
X033062Y017782D01*
X033062Y017744D02*
X033500Y017744D01*
X033500Y017705D02*
X033062Y017705D01*
X033062Y017667D02*
X033500Y017667D01*
X033500Y017628D02*
X033062Y017628D01*
X033062Y017590D02*
X033500Y017590D01*
X033500Y017551D02*
X033062Y017551D01*
X033062Y017513D02*
X033500Y017513D01*
X033500Y017474D02*
X033062Y017474D01*
X033062Y017436D02*
X033500Y017436D01*
X033500Y017397D02*
X033062Y017397D01*
X033062Y017359D02*
X033500Y017359D01*
X033500Y017320D02*
X033037Y017320D01*
X032998Y017282D02*
X033500Y017282D01*
X033500Y017243D02*
X031943Y017243D01*
X031981Y017205D02*
X033500Y017205D01*
X033500Y017166D02*
X032020Y017166D01*
X032058Y017128D02*
X033500Y017128D01*
X033500Y017089D02*
X032097Y017089D01*
X032135Y017051D02*
X033500Y017051D01*
X033500Y017012D02*
X032174Y017012D01*
X032212Y016974D02*
X033500Y016974D01*
X033500Y016935D02*
X032982Y016935D01*
X033020Y016897D02*
X033500Y016897D01*
X033500Y016858D02*
X033059Y016858D01*
X033062Y016820D02*
X033500Y016820D01*
X033500Y016781D02*
X033062Y016781D01*
X033062Y016743D02*
X033500Y016743D01*
X033500Y016704D02*
X033062Y016704D01*
X033062Y016666D02*
X033500Y016666D01*
X033500Y016627D02*
X033062Y016627D01*
X033062Y016589D02*
X033500Y016589D01*
X033500Y016550D02*
X033062Y016550D01*
X033062Y016512D02*
X033500Y016512D01*
X033500Y016473D02*
X033062Y016473D01*
X033062Y016435D02*
X033500Y016435D01*
X033500Y016396D02*
X033062Y016396D01*
X033062Y016358D02*
X033500Y016358D01*
X033500Y016319D02*
X033036Y016319D01*
X032997Y016281D02*
X033500Y016281D01*
X033500Y016242D02*
X031944Y016242D01*
X031982Y016204D02*
X033500Y016204D01*
X033500Y016165D02*
X032021Y016165D01*
X032059Y016127D02*
X033500Y016127D01*
X033500Y016088D02*
X032098Y016088D01*
X032136Y016050D02*
X033500Y016050D01*
X033500Y016011D02*
X032175Y016011D01*
X032213Y015973D02*
X033500Y015973D01*
X033500Y015934D02*
X032983Y015934D01*
X033021Y015896D02*
X033500Y015896D01*
X033500Y015857D02*
X033060Y015857D01*
X033062Y015819D02*
X033500Y015819D01*
X033500Y015780D02*
X033062Y015780D01*
X033062Y015742D02*
X033500Y015742D01*
X033500Y015703D02*
X033062Y015703D01*
X033062Y015665D02*
X033500Y015665D01*
X033500Y015626D02*
X033062Y015626D01*
X033062Y015588D02*
X033500Y015588D01*
X033500Y015549D02*
X033062Y015549D01*
X033062Y015511D02*
X033500Y015511D01*
X033500Y015472D02*
X033062Y015472D01*
X033062Y015434D02*
X033500Y015434D01*
X033500Y015395D02*
X033062Y015395D01*
X033062Y015357D02*
X033500Y015357D01*
X033500Y015318D02*
X033035Y015318D01*
X032996Y015280D02*
X033500Y015280D01*
X033500Y015241D02*
X031945Y015241D01*
X031983Y015203D02*
X033500Y015203D01*
X033500Y015164D02*
X032022Y015164D01*
X032060Y015126D02*
X033500Y015126D01*
X033500Y015087D02*
X032099Y015087D01*
X032137Y015049D02*
X033500Y015049D01*
X033500Y015010D02*
X032176Y015010D01*
X032214Y014972D02*
X033500Y014972D01*
X033500Y014933D02*
X032984Y014933D01*
X033022Y014895D02*
X033500Y014895D01*
X033500Y014856D02*
X033061Y014856D01*
X033062Y014818D02*
X033500Y014818D01*
X033500Y014779D02*
X033062Y014779D01*
X033062Y014741D02*
X033500Y014741D01*
X033500Y014702D02*
X033062Y014702D01*
X033062Y014664D02*
X033500Y014664D01*
X033500Y014625D02*
X033062Y014625D01*
X033062Y014587D02*
X033500Y014587D01*
X033500Y014548D02*
X033062Y014548D01*
X033062Y014510D02*
X033500Y014510D01*
X033500Y014471D02*
X033062Y014471D01*
X033062Y014433D02*
X033500Y014433D01*
X033500Y014394D02*
X033062Y014394D01*
X033062Y014356D02*
X033500Y014356D01*
X033500Y014317D02*
X033034Y014317D01*
X032995Y014279D02*
X033500Y014279D01*
X033500Y014240D02*
X031946Y014240D01*
X031984Y014202D02*
X033500Y014202D01*
X033500Y014163D02*
X032023Y014163D01*
X032061Y014125D02*
X033500Y014125D01*
X033500Y014086D02*
X032100Y014086D01*
X032138Y014048D02*
X033500Y014048D01*
X033500Y014009D02*
X032177Y014009D01*
X032215Y013971D02*
X033500Y013971D01*
X033500Y013932D02*
X032985Y013932D01*
X033023Y013894D02*
X033500Y013894D01*
X033500Y013855D02*
X033062Y013855D01*
X033062Y013817D02*
X033500Y013817D01*
X033500Y013778D02*
X033062Y013778D01*
X033062Y013740D02*
X033500Y013740D01*
X033500Y013701D02*
X033062Y013701D01*
X033062Y013663D02*
X033500Y013663D01*
X033500Y013624D02*
X033062Y013624D01*
X033062Y013586D02*
X033500Y013586D01*
X033500Y013547D02*
X033062Y013547D01*
X033062Y013509D02*
X033500Y013509D01*
X033500Y013470D02*
X033062Y013470D01*
X033062Y013432D02*
X033500Y013432D01*
X033500Y013393D02*
X033062Y013393D01*
X033062Y013355D02*
X033500Y013355D01*
X033500Y013316D02*
X033033Y013316D01*
X032994Y013278D02*
X033500Y013278D01*
X033500Y013239D02*
X029475Y013239D01*
X029493Y013201D02*
X033500Y013201D01*
X033500Y013162D02*
X029509Y013162D01*
X029525Y013124D02*
X033500Y013124D01*
X033500Y013085D02*
X029528Y013085D01*
X029528Y013047D02*
X033500Y013047D01*
X033500Y013008D02*
X029528Y013008D01*
X029522Y012970D02*
X033500Y012970D01*
X033500Y012931D02*
X032986Y012931D01*
X033024Y012893D02*
X033500Y012893D01*
X033500Y012854D02*
X033062Y012854D01*
X033062Y012816D02*
X033500Y012816D01*
X033500Y012777D02*
X033062Y012777D01*
X033062Y012739D02*
X033500Y012739D01*
X033500Y012700D02*
X033062Y012700D01*
X033062Y012662D02*
X033492Y012662D01*
X033484Y012623D02*
X033456Y012549D01*
X033454Y012546D02*
X033062Y012546D01*
X033062Y012508D02*
X033430Y012508D01*
X033404Y012469D02*
X033062Y012469D01*
X033062Y012431D02*
X033370Y012431D01*
X033325Y012392D02*
X033062Y012392D01*
X033062Y012354D02*
X033265Y012354D01*
X033172Y012315D02*
X033032Y012315D01*
X031677Y012931D02*
X029506Y012931D01*
X029490Y012893D02*
X030949Y012893D01*
X030890Y012854D02*
X029468Y012854D01*
X029430Y012816D02*
X030852Y012816D01*
X030818Y012777D02*
X029391Y012777D01*
X029305Y012739D02*
X030802Y012739D01*
X031251Y012893D02*
X031639Y012893D01*
X031601Y012854D02*
X031310Y012854D01*
X031348Y012816D02*
X031601Y012816D01*
X031669Y013278D02*
X029436Y013278D01*
X029430Y013316D02*
X031630Y013316D01*
X031601Y013355D02*
X029400Y013355D01*
X029362Y013393D02*
X031601Y013393D01*
X031601Y013432D02*
X029323Y013432D01*
X029285Y013470D02*
X031601Y013470D01*
X031601Y013509D02*
X029246Y013509D01*
X029208Y013547D02*
X031601Y013547D01*
X031601Y013586D02*
X029169Y013586D01*
X029131Y013624D02*
X031601Y013624D01*
X031601Y013663D02*
X029092Y013663D01*
X029054Y013701D02*
X031601Y013701D01*
X031601Y013740D02*
X029015Y013740D01*
X028977Y013778D02*
X031601Y013778D01*
X031601Y013817D02*
X028938Y013817D01*
X028900Y013855D02*
X031601Y013855D01*
X031640Y013894D02*
X028861Y013894D01*
X028823Y013932D02*
X031563Y013932D01*
X031525Y013971D02*
X028784Y013971D01*
X028745Y014009D02*
X031486Y014009D01*
X031448Y014048D02*
X028762Y014048D01*
X028787Y014086D02*
X031409Y014086D01*
X031371Y014125D02*
X028803Y014125D01*
X028819Y014163D02*
X031332Y014163D01*
X031294Y014202D02*
X028828Y014202D01*
X028828Y014240D02*
X031255Y014240D01*
X031217Y014279D02*
X028828Y014279D01*
X028827Y014317D02*
X031178Y014317D01*
X031140Y014356D02*
X028811Y014356D01*
X028795Y014394D02*
X030945Y014394D01*
X030853Y014433D02*
X028780Y014433D01*
X028743Y014471D02*
X030815Y014471D01*
X030776Y014510D02*
X028704Y014510D01*
X028638Y014548D02*
X030752Y014548D01*
X030736Y014587D02*
X023818Y014587D01*
X023776Y014625D02*
X030720Y014625D01*
X030712Y014664D02*
X023734Y014664D01*
X023691Y014702D02*
X030712Y014702D01*
X030712Y014741D02*
X023649Y014741D01*
X023618Y014779D02*
X030713Y014779D01*
X030729Y014818D02*
X023618Y014818D01*
X023618Y014856D02*
X030745Y014856D01*
X030761Y014895D02*
X023610Y014895D01*
X023594Y014933D02*
X030799Y014933D01*
X030838Y014972D02*
X023578Y014972D01*
X023554Y015010D02*
X030907Y015010D01*
X031173Y015010D02*
X031485Y015010D01*
X031447Y015049D02*
X023515Y015049D01*
X023477Y015087D02*
X031408Y015087D01*
X031370Y015126D02*
X023386Y015126D01*
X023194Y015126D02*
X014729Y015126D01*
X014690Y015164D02*
X031331Y015164D01*
X031293Y015203D02*
X014652Y015203D01*
X014613Y015241D02*
X031254Y015241D01*
X031216Y015280D02*
X014575Y015280D01*
X014566Y015289D02*
X014568Y015295D01*
X014568Y015425D01*
X014518Y015546D01*
X014426Y015638D01*
X014305Y015688D01*
X014175Y015688D01*
X014054Y015638D01*
X013962Y015546D01*
X013912Y015425D01*
X013912Y015295D01*
X013962Y015174D01*
X014054Y015082D01*
X014175Y015032D01*
X014305Y015032D01*
X014311Y015034D01*
X014664Y014681D01*
X014662Y014675D01*
X014662Y014545D01*
X014712Y014424D01*
X014804Y014332D01*
X014925Y014282D01*
X015055Y014282D01*
X015176Y014332D01*
X015268Y014424D01*
X015318Y014545D01*
X015318Y014675D01*
X015268Y014796D01*
X015176Y014888D01*
X015055Y014938D01*
X014925Y014938D01*
X014919Y014936D01*
X014566Y015289D01*
X014568Y015318D02*
X031177Y015318D01*
X031139Y015357D02*
X014568Y015357D01*
X014568Y015395D02*
X030943Y015395D01*
X030852Y015434D02*
X014565Y015434D01*
X014549Y015472D02*
X030814Y015472D01*
X030775Y015511D02*
X014533Y015511D01*
X014515Y015549D02*
X030752Y015549D01*
X030736Y015588D02*
X014476Y015588D01*
X014438Y015626D02*
X030720Y015626D01*
X030712Y015665D02*
X014362Y015665D01*
X014118Y015665D02*
X011612Y015665D01*
X011555Y015688D02*
X011425Y015688D01*
X011304Y015638D01*
X011212Y015546D01*
X011185Y015480D01*
X011142Y015522D01*
X010921Y015522D01*
X010931Y015532D01*
X011055Y015532D01*
X011176Y015582D01*
X011268Y015674D01*
X011318Y015795D01*
X011318Y015925D01*
X011268Y016046D01*
X011176Y016138D01*
X011055Y016188D01*
X010925Y016188D01*
X010804Y016138D01*
X010712Y016046D01*
X010662Y015925D01*
X010662Y015801D01*
X010384Y015522D01*
X009452Y015522D01*
X009370Y015440D01*
X009370Y014635D01*
X009452Y014553D01*
X011142Y014553D01*
X011224Y014635D01*
X011224Y014651D01*
X011300Y014651D01*
X011319Y014670D01*
X011430Y014781D01*
X011430Y015031D01*
X011431Y015032D01*
X011555Y015032D01*
X011676Y015082D01*
X011768Y015174D01*
X011818Y015295D01*
X011818Y015425D01*
X011768Y015546D01*
X011676Y015638D01*
X011555Y015688D01*
X011688Y015626D02*
X014042Y015626D01*
X014004Y015588D02*
X011726Y015588D01*
X011765Y015549D02*
X013965Y015549D01*
X013947Y015511D02*
X011783Y015511D01*
X011799Y015472D02*
X013931Y015472D01*
X013915Y015434D02*
X011815Y015434D01*
X011818Y015395D02*
X013912Y015395D01*
X013912Y015357D02*
X011818Y015357D01*
X011818Y015318D02*
X013912Y015318D01*
X013918Y015280D02*
X011812Y015280D01*
X011796Y015241D02*
X013934Y015241D01*
X013950Y015203D02*
X011780Y015203D01*
X011758Y015164D02*
X013972Y015164D01*
X014010Y015126D02*
X011720Y015126D01*
X011681Y015087D02*
X014049Y015087D01*
X014134Y015049D02*
X011596Y015049D01*
X011430Y015010D02*
X014335Y015010D01*
X014374Y014972D02*
X011430Y014972D01*
X011430Y014933D02*
X014412Y014933D01*
X014451Y014895D02*
X011430Y014895D01*
X011430Y014856D02*
X014489Y014856D01*
X014528Y014818D02*
X011430Y014818D01*
X011428Y014779D02*
X014566Y014779D01*
X014605Y014741D02*
X011389Y014741D01*
X011351Y014702D02*
X014643Y014702D01*
X014662Y014664D02*
X011312Y014664D01*
X011214Y014625D02*
X014662Y014625D01*
X014662Y014587D02*
X011176Y014587D01*
X011167Y014317D02*
X014840Y014317D01*
X014780Y014356D02*
X007999Y014356D01*
X007960Y014394D02*
X014742Y014394D01*
X014708Y014433D02*
X007922Y014433D01*
X007920Y014471D02*
X014692Y014471D01*
X014676Y014510D02*
X007920Y014510D01*
X007920Y014548D02*
X014662Y014548D01*
X015140Y014317D02*
X023550Y014317D01*
X023592Y014279D02*
X011205Y014279D01*
X011224Y014240D02*
X023634Y014240D01*
X023677Y014202D02*
X011224Y014202D01*
X011224Y014163D02*
X011614Y014163D01*
X011541Y014125D02*
X011224Y014125D01*
X011224Y014086D02*
X011502Y014086D01*
X011464Y014048D02*
X011224Y014048D01*
X011224Y014009D02*
X011447Y014009D01*
X011431Y013971D02*
X011224Y013971D01*
X011224Y013932D02*
X011415Y013932D01*
X011412Y013894D02*
X011224Y013894D01*
X011224Y013855D02*
X011412Y013855D01*
X011412Y013817D02*
X011193Y013817D01*
X011154Y013778D02*
X011403Y013778D01*
X011365Y013740D02*
X009430Y013740D01*
X009430Y013778D02*
X009440Y013778D01*
X009430Y013701D02*
X011326Y013701D01*
X011288Y013663D02*
X009430Y013663D01*
X009430Y013624D02*
X011249Y013624D01*
X011211Y013586D02*
X009430Y013586D01*
X009430Y013547D02*
X009445Y013547D01*
X009050Y013547D02*
X008670Y013547D01*
X008670Y013509D02*
X009050Y013509D01*
X009050Y013470D02*
X008670Y013470D01*
X008670Y013432D02*
X009050Y013432D01*
X009050Y013393D02*
X008670Y013393D01*
X008709Y013355D02*
X009050Y013355D01*
X009050Y013316D02*
X008748Y013316D01*
X008776Y013278D02*
X009050Y013278D01*
X009050Y013239D02*
X008792Y013239D01*
X008808Y013201D02*
X009050Y013201D01*
X009050Y013162D02*
X008818Y013162D01*
X008818Y013124D02*
X009050Y013124D01*
X009050Y013085D02*
X008818Y013085D01*
X008818Y013047D02*
X009050Y013047D01*
X009050Y013008D02*
X008803Y013008D01*
X008787Y012970D02*
X009050Y012970D01*
X009050Y012931D02*
X008771Y012931D01*
X008737Y012893D02*
X009050Y012893D01*
X009050Y012854D02*
X008698Y012854D01*
X008637Y012816D02*
X009050Y012816D01*
X009050Y013586D02*
X008670Y013586D01*
X008670Y013624D02*
X009050Y013624D01*
X009050Y013663D02*
X008670Y013663D01*
X008654Y013701D02*
X009050Y013701D01*
X009050Y013740D02*
X008615Y013740D01*
X008577Y013778D02*
X009050Y013778D01*
X009050Y013817D02*
X008538Y013817D01*
X008500Y013855D02*
X009050Y013855D01*
X009050Y013894D02*
X008461Y013894D01*
X008423Y013932D02*
X009050Y013932D01*
X009082Y013971D02*
X008384Y013971D01*
X008345Y014009D02*
X009120Y014009D01*
X009159Y014048D02*
X008307Y014048D01*
X008268Y014086D02*
X009197Y014086D01*
X009236Y014125D02*
X008230Y014125D01*
X008191Y014163D02*
X009274Y014163D01*
X009313Y014202D02*
X008153Y014202D01*
X008114Y014240D02*
X009351Y014240D01*
X009389Y014279D02*
X008076Y014279D01*
X008037Y014317D02*
X009427Y014317D01*
X009419Y014587D02*
X007920Y014587D01*
X007920Y014625D02*
X009380Y014625D01*
X009370Y014664D02*
X007920Y014664D01*
X007920Y014702D02*
X009370Y014702D01*
X009370Y014741D02*
X007920Y014741D01*
X007920Y014779D02*
X009370Y014779D01*
X009370Y014818D02*
X007920Y014818D01*
X007920Y014856D02*
X009370Y014856D01*
X009370Y014895D02*
X007920Y014895D01*
X007920Y014933D02*
X009370Y014933D01*
X009370Y014972D02*
X007920Y014972D01*
X007920Y015010D02*
X009370Y015010D01*
X009370Y015049D02*
X007920Y015049D01*
X007920Y015087D02*
X009370Y015087D01*
X009370Y015126D02*
X007920Y015126D01*
X007920Y015164D02*
X009370Y015164D01*
X009370Y015203D02*
X007920Y015203D01*
X007920Y015241D02*
X009370Y015241D01*
X009370Y015280D02*
X007920Y015280D01*
X007920Y015318D02*
X009370Y015318D01*
X009370Y015357D02*
X007920Y015357D01*
X007920Y015395D02*
X009370Y015395D01*
X009370Y015434D02*
X007920Y015434D01*
X007920Y015472D02*
X009401Y015472D01*
X009440Y015511D02*
X007920Y015511D01*
X007920Y015549D02*
X010410Y015549D01*
X010449Y015588D02*
X007920Y015588D01*
X007920Y015626D02*
X010487Y015626D01*
X010526Y015665D02*
X007920Y015665D01*
X007920Y015703D02*
X010564Y015703D01*
X010603Y015742D02*
X007920Y015742D01*
X007920Y015780D02*
X010641Y015780D01*
X010662Y015819D02*
X007920Y015819D01*
X007920Y015857D02*
X010662Y015857D01*
X010662Y015896D02*
X007920Y015896D01*
X007920Y015934D02*
X010666Y015934D01*
X010681Y015973D02*
X007920Y015973D01*
X007920Y016011D02*
X010697Y016011D01*
X010716Y016050D02*
X007920Y016050D01*
X007920Y016088D02*
X010754Y016088D01*
X010793Y016127D02*
X007920Y016127D01*
X007920Y016165D02*
X010869Y016165D01*
X011111Y016165D02*
X031380Y016165D01*
X031342Y016204D02*
X007920Y016204D01*
X007920Y016242D02*
X031303Y016242D01*
X031265Y016281D02*
X007920Y016281D01*
X007920Y016319D02*
X031226Y016319D01*
X031188Y016358D02*
X007920Y016358D01*
X007920Y016396D02*
X031149Y016396D01*
X030954Y016435D02*
X007920Y016435D01*
X007920Y016473D02*
X030863Y016473D01*
X030824Y016512D02*
X007920Y016512D01*
X007920Y016550D02*
X030786Y016550D01*
X030762Y016589D02*
X007920Y016589D01*
X007920Y016627D02*
X030746Y016627D01*
X030730Y016666D02*
X007920Y016666D01*
X007920Y016704D02*
X030722Y016704D01*
X030722Y016743D02*
X007920Y016743D01*
X007920Y016781D02*
X030722Y016781D01*
X030724Y016820D02*
X007920Y016820D01*
X007920Y016858D02*
X030740Y016858D01*
X030756Y016897D02*
X007920Y016897D01*
X007920Y016935D02*
X030772Y016935D01*
X030810Y016974D02*
X007920Y016974D01*
X010754Y017667D02*
X014969Y017667D01*
X014949Y017705D02*
X010792Y017705D01*
X010831Y017744D02*
X014933Y017744D01*
X014917Y017782D02*
X010869Y017782D01*
X010908Y017821D02*
X014912Y017821D01*
X014912Y017859D02*
X010946Y017859D01*
X010985Y017898D02*
X014912Y017898D01*
X014909Y017936D02*
X010990Y017936D01*
X010990Y017975D02*
X014871Y017975D01*
X014832Y018013D02*
X010990Y018013D01*
X010990Y018052D02*
X013613Y018052D01*
X013546Y018090D02*
X010990Y018090D01*
X010990Y018129D02*
X013507Y018129D01*
X013471Y018167D02*
X010990Y018167D01*
X010990Y018206D02*
X012040Y018206D01*
X012001Y018244D02*
X010990Y018244D01*
X010990Y018283D02*
X011963Y018283D01*
X011924Y018321D02*
X010986Y018321D01*
X010948Y018360D02*
X011886Y018360D01*
X011847Y018398D02*
X010909Y018398D01*
X010909Y018437D02*
X010871Y018437D01*
X010870Y018475D02*
X010832Y018475D01*
X010832Y018514D02*
X010794Y018514D01*
X010793Y018552D02*
X010755Y018552D01*
X010755Y018591D02*
X010717Y018591D01*
X010994Y018860D02*
X011033Y018860D01*
X011033Y018822D02*
X011071Y018822D01*
X011071Y018783D02*
X011110Y018783D01*
X010994Y018899D02*
X010986Y018899D01*
X010990Y018937D02*
X010990Y018937D01*
X010990Y018976D02*
X010990Y018976D01*
X010990Y019014D02*
X010990Y019014D01*
X010990Y019053D02*
X010990Y019053D01*
X010990Y019091D02*
X010990Y019091D01*
X010990Y019130D02*
X010990Y019130D01*
X010990Y019168D02*
X010990Y019168D01*
X010990Y019207D02*
X010990Y019207D01*
X010990Y019245D02*
X010990Y019245D01*
X010990Y019284D02*
X010990Y019284D01*
X010985Y019322D02*
X010995Y019322D01*
X011033Y019361D02*
X010947Y019361D01*
X010908Y019399D02*
X011072Y019399D01*
X010908Y019438D02*
X010870Y019438D01*
X010869Y019476D02*
X010831Y019476D01*
X010831Y019515D02*
X010793Y019515D01*
X010792Y019553D02*
X010754Y019553D01*
X010754Y019592D02*
X010716Y019592D01*
X010147Y019746D02*
X009670Y019746D01*
X009670Y019784D02*
X010109Y019784D01*
X010070Y019823D02*
X009670Y019823D01*
X009670Y019861D02*
X010032Y019861D01*
X009993Y019900D02*
X009670Y019900D01*
X009670Y019938D02*
X009990Y019938D01*
X009990Y019977D02*
X009670Y019977D01*
X009670Y020015D02*
X009990Y020015D01*
X009990Y020054D02*
X009688Y020054D01*
X009727Y020092D02*
X009990Y020092D01*
X009990Y020131D02*
X009765Y020131D01*
X009804Y020169D02*
X009990Y020169D01*
X009990Y020208D02*
X009842Y020208D01*
X009881Y020246D02*
X009990Y020246D01*
X009990Y020285D02*
X009919Y020285D01*
X009958Y020323D02*
X009996Y020323D01*
X009996Y020362D02*
X010034Y020362D01*
X010035Y020400D02*
X010073Y020400D01*
X011910Y019823D02*
X016378Y019823D01*
X016303Y019861D02*
X011948Y019861D01*
X011987Y019900D02*
X016264Y019900D01*
X016602Y019823D02*
X017362Y019823D01*
X017362Y019795D02*
X017412Y019674D01*
X017504Y019582D01*
X017560Y019559D01*
X017560Y019085D01*
X017564Y019081D01*
X017562Y019075D01*
X017562Y018945D01*
X017612Y018824D01*
X017704Y018732D01*
X017825Y018682D01*
X017955Y018682D01*
X018076Y018732D01*
X018168Y018824D01*
X018218Y018945D01*
X018218Y019075D01*
X018168Y019196D01*
X018076Y019288D01*
X017955Y019338D01*
X017920Y019338D01*
X017920Y019626D01*
X017968Y019674D01*
X018018Y019795D01*
X018018Y019925D01*
X017968Y020046D01*
X017876Y020138D01*
X017755Y020188D01*
X017625Y020188D01*
X017504Y020138D01*
X017412Y020046D01*
X017362Y019925D01*
X017362Y019795D01*
X017366Y019784D02*
X013570Y019784D01*
X013609Y019746D02*
X017382Y019746D01*
X017398Y019707D02*
X013647Y019707D01*
X013686Y019669D02*
X017417Y019669D01*
X017456Y019630D02*
X013724Y019630D01*
X013763Y019592D02*
X017494Y019592D01*
X017560Y019553D02*
X013801Y019553D01*
X013840Y019515D02*
X017560Y019515D01*
X017560Y019476D02*
X013878Y019476D01*
X013917Y019438D02*
X017560Y019438D01*
X017560Y019399D02*
X013955Y019399D01*
X013994Y019361D02*
X017560Y019361D01*
X017560Y019322D02*
X014032Y019322D01*
X014571Y019284D02*
X017560Y019284D01*
X017560Y019245D02*
X014609Y019245D01*
X014648Y019207D02*
X017560Y019207D01*
X017560Y019168D02*
X014686Y019168D01*
X014725Y019130D02*
X017560Y019130D01*
X017560Y019091D02*
X014763Y019091D01*
X014802Y019053D02*
X017562Y019053D01*
X017562Y019014D02*
X014840Y019014D01*
X014879Y018976D02*
X017562Y018976D01*
X017565Y018937D02*
X014917Y018937D01*
X014956Y018899D02*
X017581Y018899D01*
X017597Y018860D02*
X014994Y018860D01*
X015033Y018822D02*
X017614Y018822D01*
X017653Y018783D02*
X015071Y018783D01*
X015110Y018745D02*
X017691Y018745D01*
X017766Y018706D02*
X015148Y018706D01*
X015187Y018668D02*
X019968Y018668D01*
X019949Y018706D02*
X018014Y018706D01*
X018089Y018745D02*
X019933Y018745D01*
X019917Y018783D02*
X018127Y018783D01*
X018166Y018822D02*
X019912Y018822D01*
X019912Y018860D02*
X018183Y018860D01*
X018199Y018899D02*
X019912Y018899D01*
X019917Y018937D02*
X018215Y018937D01*
X018218Y018976D02*
X019933Y018976D01*
X019949Y019014D02*
X018218Y019014D01*
X018218Y019053D02*
X019969Y019053D01*
X020007Y019091D02*
X018212Y019091D01*
X018196Y019130D02*
X020046Y019130D01*
X020060Y019168D02*
X018180Y019168D01*
X018157Y019207D02*
X020060Y019207D01*
X020060Y019245D02*
X018119Y019245D01*
X018080Y019284D02*
X020060Y019284D01*
X020060Y019322D02*
X017994Y019322D01*
X017920Y019361D02*
X020060Y019361D01*
X020060Y019399D02*
X017920Y019399D01*
X017920Y019438D02*
X020060Y019438D01*
X020060Y019476D02*
X017920Y019476D01*
X017920Y019515D02*
X020060Y019515D01*
X020060Y019553D02*
X017920Y019553D01*
X017920Y019592D02*
X020060Y019592D01*
X020060Y019630D02*
X017924Y019630D01*
X017963Y019669D02*
X020060Y019669D01*
X020060Y019707D02*
X017982Y019707D01*
X017998Y019746D02*
X020060Y019746D01*
X020060Y019784D02*
X018014Y019784D01*
X018018Y019823D02*
X020060Y019823D01*
X020060Y019861D02*
X018018Y019861D01*
X018018Y019900D02*
X020060Y019900D01*
X020060Y019938D02*
X018013Y019938D01*
X017997Y019977D02*
X020060Y019977D01*
X020060Y020015D02*
X017981Y020015D01*
X017960Y020054D02*
X020042Y020054D01*
X020003Y020092D02*
X017922Y020092D01*
X017883Y020131D02*
X019965Y020131D01*
X019926Y020169D02*
X017801Y020169D01*
X017579Y020169D02*
X016798Y020169D01*
X016798Y020131D02*
X017497Y020131D01*
X017458Y020092D02*
X016798Y020092D01*
X016798Y020054D02*
X017420Y020054D01*
X017399Y020015D02*
X016785Y020015D01*
X016769Y019977D02*
X017383Y019977D01*
X017367Y019938D02*
X016753Y019938D01*
X016716Y019900D02*
X017362Y019900D01*
X017362Y019861D02*
X016677Y019861D01*
X016783Y020208D02*
X019888Y020208D01*
X020420Y019861D02*
X023572Y019861D01*
X023572Y019823D02*
X020420Y019823D01*
X020420Y019784D02*
X023572Y019784D01*
X023588Y019746D02*
X020420Y019746D01*
X020420Y019707D02*
X023604Y019707D01*
X023620Y019669D02*
X020420Y019669D01*
X020420Y019630D02*
X023656Y019630D01*
X023694Y019592D02*
X020420Y019592D01*
X020420Y019553D02*
X023759Y019553D01*
X022997Y019938D02*
X022383Y019938D01*
X022476Y019977D02*
X022904Y019977D01*
X022864Y020015D02*
X022516Y020015D01*
X022555Y020054D02*
X022825Y020054D01*
X022787Y020092D02*
X022593Y020092D01*
X022626Y020131D02*
X022754Y020131D01*
X022738Y020169D02*
X022642Y020169D01*
X022658Y020208D02*
X022722Y020208D01*
X022706Y020246D02*
X022674Y020246D01*
X022682Y020554D02*
X022698Y020554D01*
X022714Y020593D02*
X022666Y020593D01*
X022650Y020631D02*
X022730Y020631D01*
X022746Y020670D02*
X022634Y020670D01*
X022613Y020708D02*
X022767Y020708D01*
X022805Y020747D02*
X022575Y020747D01*
X022536Y020785D02*
X022844Y020785D01*
X022882Y020824D02*
X022498Y020824D01*
X022431Y020862D02*
X022949Y020862D01*
X023042Y020901D02*
X022338Y020901D01*
X020511Y019053D02*
X031193Y019053D01*
X031163Y019014D02*
X031231Y019014D01*
X031238Y018976D02*
X031270Y018976D01*
X031277Y018937D02*
X031308Y018937D01*
X031315Y018899D02*
X031347Y018899D01*
X031333Y018860D02*
X031385Y018860D01*
X031349Y018822D02*
X031424Y018822D01*
X031462Y018783D02*
X031365Y018783D01*
X031368Y018745D02*
X031501Y018745D01*
X031539Y018706D02*
X031368Y018706D01*
X031368Y018668D02*
X031578Y018668D01*
X031601Y018629D02*
X031375Y018629D01*
X031414Y018591D02*
X031601Y018591D01*
X031601Y018552D02*
X031452Y018552D01*
X031491Y018514D02*
X031601Y018514D01*
X031601Y018475D02*
X031529Y018475D01*
X031568Y018437D02*
X031601Y018437D01*
X031521Y017975D02*
X031239Y017975D01*
X031278Y017936D02*
X031559Y017936D01*
X031605Y017859D02*
X031333Y017859D01*
X031349Y017821D02*
X031601Y017821D01*
X031601Y017782D02*
X031365Y017782D01*
X031368Y017744D02*
X031601Y017744D01*
X031601Y017705D02*
X031368Y017705D01*
X031368Y017667D02*
X031601Y017667D01*
X031601Y017628D02*
X031376Y017628D01*
X031415Y017590D02*
X031601Y017590D01*
X031601Y017551D02*
X031453Y017551D01*
X031492Y017513D02*
X031601Y017513D01*
X031601Y017474D02*
X031530Y017474D01*
X031569Y017436D02*
X031601Y017436D01*
X031445Y017051D02*
X031182Y017051D01*
X031252Y017012D02*
X031483Y017012D01*
X031470Y017025D02*
X031470Y017025D01*
X031522Y016974D02*
X031290Y016974D01*
X031328Y016935D02*
X031560Y016935D01*
X031604Y016858D02*
X031360Y016858D01*
X031344Y016897D02*
X031643Y016897D01*
X031601Y016820D02*
X031376Y016820D01*
X031378Y016781D02*
X031601Y016781D01*
X031601Y016743D02*
X031378Y016743D01*
X031378Y016704D02*
X031601Y016704D01*
X031601Y016666D02*
X031389Y016666D01*
X031427Y016627D02*
X031601Y016627D01*
X031601Y016589D02*
X031466Y016589D01*
X031504Y016550D02*
X031601Y016550D01*
X031601Y016512D02*
X031543Y016512D01*
X031581Y016473D02*
X031601Y016473D01*
X031419Y016127D02*
X011187Y016127D01*
X011226Y016088D02*
X031457Y016088D01*
X031496Y016050D02*
X011264Y016050D01*
X011283Y016011D02*
X030909Y016011D01*
X030839Y015973D02*
X011299Y015973D01*
X011314Y015934D02*
X030800Y015934D01*
X030762Y015896D02*
X011318Y015896D01*
X011318Y015857D02*
X030746Y015857D01*
X030730Y015819D02*
X011318Y015819D01*
X011312Y015780D02*
X030714Y015780D01*
X030712Y015742D02*
X011296Y015742D01*
X011280Y015703D02*
X030712Y015703D01*
X031171Y016011D02*
X031534Y016011D01*
X031573Y015973D02*
X031241Y015973D01*
X031280Y015934D02*
X031680Y015934D01*
X031642Y015896D02*
X031318Y015896D01*
X031334Y015857D02*
X031603Y015857D01*
X031601Y015819D02*
X031350Y015819D01*
X031366Y015780D02*
X031601Y015780D01*
X031601Y015742D02*
X031368Y015742D01*
X031368Y015703D02*
X031601Y015703D01*
X031601Y015665D02*
X031368Y015665D01*
X031378Y015626D02*
X031601Y015626D01*
X031601Y015588D02*
X031417Y015588D01*
X031455Y015549D02*
X031601Y015549D01*
X031601Y015511D02*
X031494Y015511D01*
X031532Y015472D02*
X031601Y015472D01*
X031601Y015434D02*
X031571Y015434D01*
X031524Y014972D02*
X031242Y014972D01*
X031281Y014933D02*
X031562Y014933D01*
X031602Y014856D02*
X031335Y014856D01*
X031351Y014818D02*
X031601Y014818D01*
X031601Y014779D02*
X031367Y014779D01*
X031368Y014741D02*
X031601Y014741D01*
X031601Y014702D02*
X031368Y014702D01*
X031368Y014664D02*
X031601Y014664D01*
X031601Y014625D02*
X031379Y014625D01*
X031418Y014587D02*
X031601Y014587D01*
X031601Y014548D02*
X031456Y014548D01*
X031495Y014510D02*
X031601Y014510D01*
X031601Y014471D02*
X031533Y014471D01*
X031572Y014433D02*
X031601Y014433D01*
X031641Y014895D02*
X031319Y014895D01*
X028737Y013509D02*
X024520Y013509D01*
X024591Y013547D02*
X028698Y013547D01*
X028660Y013586D02*
X024630Y013586D01*
X024668Y013624D02*
X024718Y013745D01*
X024718Y013778D02*
X028467Y013778D01*
X028429Y013817D02*
X024718Y013817D01*
X024718Y013855D02*
X028390Y013855D01*
X028352Y013894D02*
X024711Y013894D01*
X024695Y013932D02*
X028320Y013932D01*
X028317Y013971D02*
X024679Y013971D01*
X024655Y014009D02*
X028277Y014009D01*
X028238Y014048D02*
X024616Y014048D01*
X024578Y014086D02*
X028213Y014086D01*
X028197Y014125D02*
X024488Y014125D01*
X024284Y014163D02*
X028181Y014163D01*
X028172Y014202D02*
X024242Y014202D01*
X024199Y014240D02*
X028172Y014240D01*
X028172Y014279D02*
X024157Y014279D01*
X024115Y014317D02*
X028173Y014317D01*
X028189Y014356D02*
X024072Y014356D01*
X024030Y014394D02*
X028205Y014394D01*
X028220Y014433D02*
X023988Y014433D01*
X023945Y014471D02*
X028257Y014471D01*
X028296Y014510D02*
X023903Y014510D01*
X023861Y014548D02*
X028362Y014548D01*
X024204Y013532D02*
X024112Y013624D01*
X024150Y013586D02*
X018354Y013586D01*
X018392Y013547D02*
X024189Y013547D01*
X023507Y014356D02*
X015200Y014356D01*
X015238Y014394D02*
X023465Y014394D01*
X023423Y014433D02*
X015272Y014433D01*
X015288Y014471D02*
X023380Y014471D01*
X023158Y014510D02*
X015304Y014510D01*
X015318Y014548D02*
X023088Y014548D01*
X023049Y014587D02*
X015318Y014587D01*
X015318Y014625D02*
X023011Y014625D01*
X022996Y014664D02*
X015318Y014664D01*
X015307Y014702D02*
X022980Y014702D01*
X022964Y014741D02*
X015291Y014741D01*
X015275Y014779D02*
X022962Y014779D01*
X022962Y014818D02*
X015246Y014818D01*
X015208Y014856D02*
X022962Y014856D01*
X022970Y014895D02*
X015160Y014895D01*
X015067Y014933D02*
X022986Y014933D01*
X023002Y014972D02*
X014883Y014972D01*
X014844Y015010D02*
X023026Y015010D01*
X023065Y015049D02*
X014806Y015049D01*
X014767Y015087D02*
X023103Y015087D01*
X027004Y017744D02*
X015920Y017744D01*
X015920Y017782D02*
X026988Y017782D01*
X026972Y017821D02*
X015920Y017821D01*
X015920Y017859D02*
X026962Y017859D01*
X026962Y017898D02*
X015920Y017898D01*
X015918Y017936D02*
X026962Y017936D01*
X026962Y017975D02*
X015880Y017975D01*
X015841Y018013D02*
X026978Y018013D01*
X026994Y018052D02*
X015803Y018052D01*
X015764Y018090D02*
X027009Y018090D01*
X027045Y018129D02*
X015726Y018129D01*
X015687Y018167D02*
X027083Y018167D01*
X027146Y018206D02*
X015649Y018206D01*
X015610Y018244D02*
X027855Y018244D01*
X027817Y018206D02*
X027434Y018206D01*
X027497Y018167D02*
X027778Y018167D01*
X027740Y018129D02*
X027535Y018129D01*
X027894Y018283D02*
X015572Y018283D01*
X015533Y018321D02*
X027932Y018321D01*
X027971Y018360D02*
X015495Y018360D01*
X015456Y018398D02*
X028009Y018398D01*
X028048Y018437D02*
X015418Y018437D01*
X015379Y018475D02*
X028086Y018475D01*
X028125Y018514D02*
X015341Y018514D01*
X015302Y018552D02*
X020126Y018552D01*
X020045Y018591D02*
X015264Y018591D01*
X015225Y018629D02*
X020007Y018629D01*
X020354Y018552D02*
X028163Y018552D01*
X028202Y018591D02*
X020435Y018591D01*
X020473Y018629D02*
X028212Y018629D01*
X028212Y018668D02*
X020512Y018668D01*
X020531Y018706D02*
X028212Y018706D01*
X028220Y018745D02*
X020547Y018745D01*
X020563Y018783D02*
X028236Y018783D01*
X028252Y018822D02*
X020568Y018822D01*
X020568Y018860D02*
X028276Y018860D01*
X028315Y018899D02*
X020568Y018899D01*
X020563Y018937D02*
X028353Y018937D01*
X027113Y017628D02*
X015920Y017628D01*
X015920Y017590D02*
X027206Y017590D01*
X027069Y017667D02*
X015920Y017667D01*
X015920Y017705D02*
X027031Y017705D01*
X031116Y019130D02*
X020434Y019130D01*
X020473Y019091D02*
X031154Y019091D01*
X031548Y019207D02*
X033288Y019207D01*
X033336Y019168D02*
X031586Y019168D01*
X031625Y019130D02*
X033375Y019130D01*
X033404Y019091D02*
X031663Y019091D01*
X031702Y019053D02*
X033431Y019053D01*
X033450Y019014D02*
X031740Y019014D01*
X031779Y018976D02*
X033468Y018976D01*
X033479Y018937D02*
X031817Y018937D01*
X031644Y017898D02*
X031316Y017898D01*
X031348Y020473D02*
X031344Y020477D01*
X031344Y020824D02*
X031156Y020824D01*
X031206Y020862D02*
X031344Y020862D01*
X031344Y020901D02*
X031245Y020901D01*
X031274Y020939D02*
X031344Y020939D01*
X031344Y020978D02*
X031290Y020978D01*
X031306Y021016D02*
X031344Y021016D01*
X031344Y021055D02*
X031318Y021055D01*
X031318Y021093D02*
X031344Y021093D01*
X031342Y021132D02*
X031318Y021132D01*
X031318Y021170D02*
X031319Y021170D01*
X015157Y019938D02*
X011990Y019938D01*
X011990Y019977D02*
X015119Y019977D01*
X015080Y020015D02*
X011990Y020015D01*
X011990Y020054D02*
X015042Y020054D01*
X015003Y020092D02*
X011990Y020092D01*
X012015Y020131D02*
X014965Y020131D01*
X014926Y020169D02*
X012054Y020169D01*
X014012Y018552D02*
X014293Y018552D01*
X014332Y018514D02*
X014037Y018514D01*
X014053Y018475D02*
X014370Y018475D01*
X014409Y018437D02*
X014069Y018437D01*
X014078Y018398D02*
X014447Y018398D01*
X014486Y018360D02*
X014078Y018360D01*
X014078Y018321D02*
X014524Y018321D01*
X014563Y018283D02*
X014077Y018283D01*
X014061Y018244D02*
X014601Y018244D01*
X014640Y018206D02*
X014045Y018206D01*
X014029Y018167D02*
X014678Y018167D01*
X014717Y018129D02*
X013993Y018129D01*
X013954Y018090D02*
X014755Y018090D01*
X014794Y018052D02*
X013887Y018052D01*
X011368Y015665D02*
X011259Y015665D01*
X011292Y015626D02*
X011220Y015626D01*
X011254Y015588D02*
X011182Y015588D01*
X011215Y015549D02*
X011097Y015549D01*
X011154Y015511D02*
X011197Y015511D01*
X011149Y013547D02*
X011172Y013547D01*
D20*
X010297Y012085D02*
X010297Y011803D01*
X010490Y011610D01*
X018000Y013600D02*
X018000Y013800D01*
X018000Y013600D02*
X018900Y012700D01*
X018900Y012600D01*
D21*
X016490Y020110D03*
D22*
X015240Y020110D01*
X014990Y020360D01*
X011990Y020360D01*
X011740Y020110D01*
X011490Y020110D01*
X010990Y019610D02*
X013490Y019610D01*
X013990Y019110D01*
X014490Y019110D01*
X015740Y017860D01*
X015740Y017610D01*
X015490Y017360D01*
X015240Y017860D02*
X014350Y018750D01*
X014000Y018750D01*
X013640Y019110D01*
X011490Y019110D01*
X011900Y018600D02*
X011000Y018600D01*
X010490Y019110D01*
X010990Y019610D02*
X010490Y020110D01*
X009990Y020610D02*
X009490Y020110D01*
X009490Y019360D01*
X008990Y018860D01*
X007990Y018860D01*
X007740Y018610D01*
X007740Y014360D01*
X008490Y013610D01*
X008490Y013110D01*
X010297Y013266D02*
X011146Y013266D01*
X011740Y013860D01*
X011490Y013110D02*
X011253Y012873D01*
X010297Y012873D01*
X010297Y012479D02*
X011359Y012479D01*
X011490Y012610D01*
X012490Y012110D02*
X012490Y011360D01*
X012990Y010860D01*
X014740Y010860D01*
X014990Y010610D01*
X014990Y008010D01*
X015250Y007750D01*
X015850Y007750D01*
X015990Y007610D01*
X014990Y014610D02*
X014240Y015360D01*
X013750Y018350D02*
X012150Y018350D01*
X011900Y018600D01*
X009990Y020610D02*
X014990Y020610D01*
X015190Y020410D01*
X019940Y020410D01*
X020240Y020110D01*
X020240Y018860D01*
X017890Y019010D02*
X017740Y019160D01*
X017740Y019860D01*
X017690Y019860D01*
X023900Y019850D02*
X024800Y020750D01*
X030250Y020750D01*
X030500Y020500D01*
X030500Y020000D01*
X031900Y018600D01*
X032331Y018600D01*
X031831Y018100D02*
X031650Y018100D01*
X031040Y018710D01*
X031831Y018100D02*
X032331Y017600D01*
X031831Y017100D02*
X031650Y017100D01*
X031040Y017710D01*
X031831Y017100D02*
X032331Y016600D01*
X031781Y016150D02*
X031650Y016150D01*
X031050Y016750D01*
X031781Y016150D02*
X032331Y015600D01*
X031831Y015100D02*
X031650Y015100D01*
X031040Y015710D01*
X031831Y015100D02*
X032331Y014600D01*
X031831Y014100D02*
X031650Y014100D01*
X031040Y014710D01*
X031831Y014100D02*
X032331Y013600D01*
X029250Y013250D02*
X029250Y013100D01*
X029200Y013050D01*
X029250Y013250D02*
X028500Y014000D01*
X028500Y014250D01*
D23*
X018900Y012600D03*
X018000Y013800D03*
M02*
