%
M48
M72
T01C0.0197
T02C0.0236
T03C0.0276
T04C0.0354
T05C0.0400
T06C0.0472
T07C0.0512
T08C0.0591
T09C0.1260
%
T01
X16490Y20110
T02
X17690Y19860
X17890Y19010
X16750Y18000
X15490Y17360
X15240Y17860
X13750Y18350
X13740Y19860
X13740Y21110
X20240Y18860
X19990Y17360
X22390Y17510
X23290Y14810
X24390Y13810
X24940Y12210
X21700Y11900
X22600Y9750
X24500Y7500
X31100Y12600
X29200Y13050
X28540Y12810
X28500Y14250
X30940Y14810
X31040Y15710
X31000Y16800
X31040Y17710
X31040Y18710
X28450Y18750
X27300Y18800
X24800Y20200
X25600Y20700
X22700Y20300
X22200Y20600
X14240Y15360
X14990Y14610
X14190Y13810
X11840Y13960
X11900Y14700
X11900Y15900
X10990Y15860
X11490Y13110
X11490Y12610
X12490Y12110
X10490Y11610
X8490Y13110
X7500Y11000
X11500Y6500
X13740Y6510
X15990Y7610
X17040Y14360
X30990Y20610
T03
X18900Y12600
X18000Y13800
T04
X26720Y11272
X31090Y11272
T05
X29040Y19960
X28040Y19960
X27040Y19960
T06
X12040Y19960
X11040Y19960
X11040Y18960
X12040Y18960
X12040Y17960
X11040Y17960
T07
X9700Y5900
X9900Y5900
X10100Y5900
X10300Y5900
X10500Y5900
X10700Y5900
X10900Y5900
X17500Y5900
X17700Y5900
X17900Y5900
X18100Y5900
X18300Y5900
X18500Y5900
X18700Y5900
X18600Y21400
X18400Y21400
X18200Y21400
X18000Y21400
X17800Y21400
X17600Y21400
X18800Y21400
X10900Y21400
X10700Y21400
X10500Y21400
X10300Y21400
X10100Y21400
X9900Y21400
X9700Y21400
T08
X8500Y10100
X9600Y8600
X31740Y9010
X32490Y10910
T09
X32665Y6756
X32665Y20535
X8256Y20535
X8256Y6756
M30
