G75*
G70*
%OFA0B0*%
%FSLAX24Y24*%
%IPPOS*%
%LPD*%
%AMOC8*
5,1,8,0,0,1.08239X$1,22.5*
%
%ADD10C,0.0572*%
%ADD11R,0.0375X0.0532*%
%ADD12R,0.1241X0.0690*%
%ADD13R,0.2310X0.1960*%
%ADD14R,0.0280X0.0560*%
%ADD15R,0.0560X0.0280*%
%ADD16R,0.0300X0.0930*%
%ADD17R,0.0336X0.0729*%
%ADD18R,0.0454X0.1044*%
%ADD19R,0.1044X0.2422*%
%ADD20R,0.0454X0.0651*%
%ADD21R,0.1044X0.0454*%
%ADD22R,0.0611X0.0493*%
%ADD23R,0.0532X0.0375*%
%ADD24R,0.0493X0.0611*%
%ADD25R,0.0454X0.0611*%
%ADD26C,0.0800*%
%ADD27R,0.1123X0.1084*%
%ADD28R,0.1620X0.1620*%
%ADD29R,0.1310X0.1310*%
%ADD30R,0.0860X0.0320*%
%ADD31R,0.0454X0.0493*%
%ADD32C,0.1320*%
%ADD33OC8,0.0780*%
%ADD34R,0.0611X0.0454*%
%ADD35C,0.1241*%
%ADD36R,0.2501X0.2186*%
%ADD37R,0.0690X0.0454*%
%ADD38C,0.0436*%
%ADD39C,0.0397*%
%ADD40C,0.0476*%
D10*
X009700Y005900D03*
X009900Y005900D03*
X010100Y005900D03*
X010300Y005900D03*
X010500Y005900D03*
X010700Y005900D03*
X010900Y005900D03*
X017500Y005900D03*
X017700Y005900D03*
X017900Y005900D03*
X018100Y005900D03*
X018300Y005900D03*
X018500Y005900D03*
X018700Y005900D03*
X018600Y021400D03*
X018400Y021400D03*
X018200Y021400D03*
X018000Y021400D03*
X017800Y021400D03*
X017600Y021400D03*
X018800Y021400D03*
X010900Y021400D03*
X010700Y021400D03*
X010500Y021400D03*
X010300Y021400D03*
X010100Y021400D03*
X009900Y021400D03*
X009700Y021400D03*
D11*
X016136Y019610D03*
X016844Y019610D03*
X016594Y014360D03*
X015886Y014360D03*
X019656Y012290D03*
X020364Y012290D03*
X015744Y010410D03*
X015036Y010410D03*
X026196Y018800D03*
X026904Y018800D03*
D12*
X015081Y009658D03*
X015081Y007862D03*
X025899Y007462D03*
X025899Y009258D03*
D13*
X028615Y008360D03*
X012365Y008760D03*
D14*
X015138Y015420D03*
X015453Y015420D03*
X015768Y015420D03*
X016083Y015420D03*
X016397Y015420D03*
X016712Y015420D03*
X017027Y015420D03*
X017342Y015420D03*
X017342Y018800D03*
X017027Y018800D03*
X016712Y018800D03*
X016397Y018800D03*
X016083Y018800D03*
X015768Y018800D03*
X015453Y018800D03*
X015138Y018800D03*
D15*
X014550Y018212D03*
X014550Y017897D03*
X014550Y017582D03*
X014550Y017267D03*
X014550Y016953D03*
X014550Y016638D03*
X014550Y016323D03*
X014550Y016008D03*
X017930Y016008D03*
X017930Y016323D03*
X017930Y016638D03*
X017930Y016953D03*
X017930Y017267D03*
X017930Y017582D03*
X017930Y017897D03*
X017930Y018212D03*
D16*
X019990Y018140D03*
X020490Y018140D03*
X020990Y018140D03*
X021490Y018140D03*
X021490Y016080D03*
X020990Y016080D03*
X020490Y016080D03*
X019990Y016080D03*
D17*
X015212Y019610D03*
X014740Y019610D03*
X014268Y019610D03*
D18*
X022740Y018860D03*
X023740Y018860D03*
D19*
X023240Y016860D03*
D20*
X033240Y016388D03*
X033240Y017352D03*
X033240Y015352D03*
X033240Y014388D03*
X033240Y013352D03*
X033240Y012388D03*
D21*
X023688Y006881D03*
X022231Y006881D03*
X022788Y012381D03*
X021331Y012381D03*
D22*
X016190Y009504D03*
X016190Y008716D03*
X019240Y017466D03*
X019240Y018254D03*
X032240Y016254D03*
X032240Y015466D03*
D23*
X022240Y016256D03*
X022240Y016964D03*
X012390Y016064D03*
X012390Y015356D03*
D24*
X019846Y015010D03*
X020634Y015010D03*
X021596Y015010D03*
X022384Y015010D03*
X024366Y011510D03*
X025154Y011510D03*
X013084Y006310D03*
X012296Y006310D03*
X012346Y021110D03*
X013134Y021110D03*
D25*
X031466Y013743D03*
X032214Y013743D03*
X031840Y012877D03*
D26*
X031090Y011272D03*
X026720Y011272D03*
X027040Y019960D03*
X028040Y019960D03*
X029040Y019960D03*
D27*
X024457Y010257D03*
X024457Y008411D03*
D28*
X008990Y014910D03*
D29*
X008990Y011810D03*
X008990Y018010D03*
D30*
X026380Y018160D03*
X026380Y017660D03*
X026380Y017160D03*
X026380Y016660D03*
X026380Y016160D03*
X026380Y015660D03*
X026380Y015160D03*
X028800Y015160D03*
X028800Y015660D03*
X028800Y016160D03*
X028800Y016660D03*
X028800Y017160D03*
X028800Y017660D03*
X028800Y018160D03*
D31*
X029905Y017710D03*
X030575Y017710D03*
X030575Y018610D03*
X029905Y018610D03*
X029905Y016810D03*
X030575Y016810D03*
X030575Y015910D03*
X029905Y015910D03*
X029705Y015010D03*
X030375Y015010D03*
X025435Y015300D03*
X024765Y015300D03*
X024665Y016200D03*
X025335Y016200D03*
X025235Y017100D03*
X024565Y017100D03*
X024765Y018200D03*
X025435Y018200D03*
X025635Y019100D03*
X024965Y019100D03*
X014335Y010750D03*
X013665Y010750D03*
D32*
X008256Y006756D03*
X008256Y020535D03*
X032665Y020535D03*
X032665Y006756D03*
D33*
X012040Y017960D03*
X011040Y017960D03*
X011040Y018960D03*
X012040Y018960D03*
X012040Y019960D03*
X011040Y019960D03*
D34*
X013673Y013234D03*
X013673Y012486D03*
X012807Y012860D03*
D35*
X008500Y010100D03*
X009600Y008600D03*
X031740Y009010D03*
X032490Y010910D03*
D36*
X019916Y009750D03*
D37*
X022790Y008852D03*
X022790Y010648D03*
D38*
X022600Y009750D03*
X021700Y011900D03*
X024390Y013810D03*
X023290Y014810D03*
X022390Y017510D03*
X019990Y017360D03*
X020240Y018860D03*
X017890Y019010D03*
X017690Y019860D03*
X016750Y018000D03*
X015490Y017360D03*
X015240Y017860D03*
X013750Y018350D03*
X013740Y019860D03*
X013740Y021110D03*
X011900Y015900D03*
X010990Y015860D03*
X011900Y014700D03*
X011840Y013960D03*
X011490Y013110D03*
X011490Y012610D03*
X012490Y012110D03*
X010490Y011610D03*
X008490Y013110D03*
X007500Y011000D03*
X014190Y013810D03*
X014990Y014610D03*
X014240Y015360D03*
X017040Y014360D03*
X024940Y012210D03*
X028540Y012810D03*
X029200Y013050D03*
X028500Y014250D03*
X030940Y014810D03*
X031040Y015710D03*
X031000Y016800D03*
X031040Y017710D03*
X031040Y018710D03*
X028450Y018750D03*
X027300Y018800D03*
X024800Y020200D03*
X025600Y020700D03*
X022700Y020300D03*
X022200Y020600D03*
X030990Y020610D03*
X031100Y012600D03*
X024500Y007500D03*
X015990Y007610D03*
X013740Y006510D03*
X011500Y006500D03*
D39*
X016490Y020110D03*
D40*
X018000Y013800D03*
X018900Y012600D03*
M02*
