G75*
G70*
%OFA0B0*%
%FSLAX24Y24*%
%IPPOS*%
%LPD*%
%AMOC8*
5,1,8,0,0,1.08239X$1,22.5*
%
%ADD10R,0.0315X0.0472*%
%ADD11R,0.1181X0.0630*%
%ADD12R,0.2250X0.1900*%
%ADD13R,0.0220X0.0500*%
%ADD14R,0.0500X0.0220*%
%ADD15R,0.0240X0.0870*%
%ADD16R,0.0276X0.0669*%
%ADD17R,0.0394X0.0984*%
%ADD18R,0.0984X0.2362*%
%ADD19R,0.0394X0.0591*%
%ADD20R,0.0984X0.0394*%
%ADD21R,0.0551X0.0433*%
%ADD22R,0.0472X0.0315*%
%ADD23R,0.0433X0.0551*%
%ADD24R,0.0394X0.0551*%
%ADD25R,0.1063X0.1024*%
%ADD26R,0.1560X0.1560*%
%ADD27R,0.1250X0.1250*%
%ADD28R,0.0800X0.0260*%
%ADD29R,0.0394X0.0433*%
%ADD30R,0.0551X0.0394*%
%ADD31R,0.2441X0.2126*%
%ADD32R,0.0630X0.0394*%
D10*
X015036Y010410D03*
X015744Y010410D03*
X019656Y012290D03*
X020364Y012290D03*
X016594Y014360D03*
X015886Y014360D03*
X016136Y019610D03*
X016844Y019610D03*
X026196Y018800D03*
X026904Y018800D03*
D11*
X015081Y009658D03*
X015081Y007862D03*
X025899Y007462D03*
X025899Y009258D03*
D12*
X028615Y008360D03*
X012365Y008760D03*
D13*
X015138Y015420D03*
X015453Y015420D03*
X015768Y015420D03*
X016083Y015420D03*
X016397Y015420D03*
X016712Y015420D03*
X017027Y015420D03*
X017342Y015420D03*
X017342Y018800D03*
X017027Y018800D03*
X016712Y018800D03*
X016397Y018800D03*
X016083Y018800D03*
X015768Y018800D03*
X015453Y018800D03*
X015138Y018800D03*
D14*
X014550Y018212D03*
X014550Y017897D03*
X014550Y017582D03*
X014550Y017267D03*
X014550Y016953D03*
X014550Y016638D03*
X014550Y016323D03*
X014550Y016008D03*
X017930Y016008D03*
X017930Y016323D03*
X017930Y016638D03*
X017930Y016953D03*
X017930Y017267D03*
X017930Y017582D03*
X017930Y017897D03*
X017930Y018212D03*
D15*
X019990Y018140D03*
X020490Y018140D03*
X020990Y018140D03*
X021490Y018140D03*
X021490Y016080D03*
X020990Y016080D03*
X020490Y016080D03*
X019990Y016080D03*
D16*
X015212Y019610D03*
X014740Y019610D03*
X014268Y019610D03*
D17*
X022740Y018860D03*
X023740Y018860D03*
D18*
X023240Y016860D03*
D19*
X033240Y016388D03*
X033240Y017352D03*
X033240Y015352D03*
X033240Y014388D03*
X033240Y013352D03*
X033240Y012388D03*
D20*
X023688Y006881D03*
X022231Y006881D03*
X022788Y012381D03*
X021331Y012381D03*
D21*
X016190Y009504D03*
X016190Y008716D03*
X019240Y017466D03*
X019240Y018254D03*
X032240Y016254D03*
X032240Y015466D03*
D22*
X022240Y016256D03*
X022240Y016964D03*
X012390Y016064D03*
X012390Y015356D03*
D23*
X012296Y006310D03*
X013084Y006310D03*
X024366Y011510D03*
X025154Y011510D03*
X022384Y015010D03*
X021596Y015010D03*
X020634Y015010D03*
X019846Y015010D03*
X013134Y021110D03*
X012346Y021110D03*
D24*
X031466Y013743D03*
X032214Y013743D03*
X031840Y012877D03*
D25*
X024457Y010257D03*
X024457Y008411D03*
D26*
X008990Y014910D03*
D27*
X008990Y011810D03*
X008990Y018010D03*
D28*
X026380Y018160D03*
X026380Y017660D03*
X026380Y017160D03*
X026380Y016660D03*
X026380Y016160D03*
X026380Y015660D03*
X026380Y015160D03*
X028800Y015160D03*
X028800Y015660D03*
X028800Y016160D03*
X028800Y016660D03*
X028800Y017160D03*
X028800Y017660D03*
X028800Y018160D03*
D29*
X029905Y017710D03*
X030575Y017710D03*
X030575Y018610D03*
X029905Y018610D03*
X029905Y016810D03*
X030575Y016810D03*
X030575Y015910D03*
X029905Y015910D03*
X029705Y015010D03*
X030375Y015010D03*
X025435Y015300D03*
X024765Y015300D03*
X024665Y016200D03*
X025335Y016200D03*
X025235Y017100D03*
X024565Y017100D03*
X024765Y018200D03*
X025435Y018200D03*
X025635Y019100D03*
X024965Y019100D03*
X014335Y010750D03*
X013665Y010750D03*
D30*
X013673Y012486D03*
X013673Y013234D03*
X012807Y012860D03*
D31*
X019916Y009750D03*
D32*
X022790Y008852D03*
X022790Y010648D03*
M02*
